<?xml version="1.0" encoding="utf-8"?>
<!-- Generator: Adobe Illustrator 15.1.0, SVG Export Plug-In  -->
<!DOCTYPE svg PUBLIC "-//W3C//DTD SVG 1.1//EN" "http://www.w3.org/Graphics/SVG/1.1/DTD/svg11.dtd" [
	<!ENTITY ns_flows "http://ns.adobe.com/Flows/1.0/">
]>
<svg version="1.1"
	 xmlns="http://www.w3.org/2000/svg" xmlns:xlink="http://www.w3.org/1999/xlink" xmlns:a="http://ns.adobe.com/AdobeSVGViewerExtensions/3.0/"
	 x="0px" y="0px" width="1000px" height="1000px" viewBox="-207.848 0 1000 1000"
	 overflow="visible" enable-background="new -207.848 0 1000 1000" xml:space="preserve">
<defs>
</defs>
<path fill="#FFFFFF" d="M60.038,185.665c-12.121,14.636-19.862,27.06-22.241,41.397c-2.011,12.152-2.308,45.63,22.282,57.295
	c17.516,8.369,35.303,5.733,35.303,5.733s-23.961,8.805-35.375,26c-11.606,17.611-9.749,42.847-3.162,52.088
	c0.437,0.636-0.521-0.763,0,0c-3.76-3.031-14.843-5.875-16.443-1.742c-5.844,15.131,10.227,42.255,10.227,42.255
	c-4.013,1.305-5.316,6.141-3.941,10.972c1.668,6.023,8.705,19.214,8.705,19.214c-5.54-0.557-6.885,6.297-6.588,10.752
	c0.898,12.883,7.32,21.463,14.321,29.363c2.376,2.761-3.75,1.932-5.468,7.384c-2.609,8.149,20.609,23.536,22.844,24.775
	c12.352,7.011,22.759,11.241,33.107,13.288c25.852,5.148,43.966-1.733,57.173-1.287c7.323,0.269,3.833,4.527,3.833,4.527
	c-2.049,0.816-37.089,23.36-42.113,24.845c-5.205,1.549-6.355-1.007-8.629-2.479c-4.541-2.884-5.69-5.29-8.927-8.123
	c-3.834-3.338-7.178-5.947-12.282-3.764c-8.505,3.687-5.978,21.493-7.252,25.825c-1.927,7.125-10.631,11.305-26.255,16.624
	c-21.286,7.271-30.06,5.865-45.276,3.721c-15.546-2.141-24.098-0.339-23.876,8.212c0.301,10.16,25.106,18.827,36.892,26.443
	c12.58,8.058,24.999,19.845,24.999,19.845s14.478,13.963,27.453-0.753c21.731-24.679,28.8-31.415,38.238-38.371
	c-3.086,2.314,14.886-11.319,19.53-10.517c7.446,1.345,4.285,11.658,4.285,11.658c-1.601,6.028-3.534,10.064-8.521,20.421
	c-6.996,14.467-3.612,31.793-2.04,37.032c1.56,5.149,6.697-0.343,8.327-1.541c1.527-1.078,1.153,7.214,1.337,9.183
	c2.122,20.625,14.689,33.457,17.858,36.239c3.229,2.77,3.201,1.077,4.983-1.102c1.27-1.525,2.122-5.394,2.122-5.394
	c1.157,2.817,7.628,11.418,14.875,20.477c3.758,4.76,7.147,12.351,9.194,18.565c1.519,4.701,1.633,7.584,4.98,6.604
	c5.506-1.68,18.567-26.354,18.567-26.354c3.416,3.479,7.251,6.763,10.005,3.993c16.591-16.592,20.714-52.359,20.714-55.948
	c0-3.548,0.823-5.54,3.207-4.392c2.378,1.23,4.388,1.533,5.061-1.178c1.077-4.437,2.591-13.062,1.366-24.562l4.878,12.532
	c3.011,7.448,9.033,14.979,16.406,12.84c3.68-1.053,7.548-4.409,7.548-4.409c4.205,6.408,7.812,10.951,12.129,14.454
	c4.207,3.396,10.19,6.954,13.133,6.122c3.42-0.984,4.648-7.147,4.648-7.147c14.17,17.747,21.056,23.364,40.25,32.254
	c8.924,4.153,39.177,12.176,36.928,1.823c-0.587-2.883-13.045-12.139-19.483-26.149c-2.906-6.438-6.097-17.259-4.163-20.588
	c1.632-2.805,6.92-0.633,10.183-4.207c2.307-2.584,2.829-8.426-0.478-23.288c-1.455-6.713-10.381-21.045-7.254-20.097
	c7.591,2.227,12.462-0.211,7.777-13.433c-3.979-11.258-9.003-17.226-14.622-23.252c-4.686-4.989-14.286-8.764-9.119-9.494
	c5.029-0.703,10.906,1.219,7.772-10.486c-1.811-6.965-15.65-25.346-37.228-34.936c-23.097-10.254-45.015-7.291-45.015-7.291
	c13.089-3.87,15.218-4.573,25.975-6.133c13.195-1.952,31.616-2.381,52.674,14.984c15.692,12.992,22.648,52.109,28.159,67.138
	c7.25,19.941,18.002,15.336,18.002,15.336c3.566-1.2,6.067-8.289,6.067-8.289c12.663,11.546,16.27,15.645,38.993,26.367
	c7.995,3.754,21.059,6.738,24.479,5.694c6.315-1.968,1.562-12.167,1.562-12.167c5.879,0.555,12.755,0.03,25.004,8.699
	c15.696,11.11,18.441,27.835,20.19,35.665c6.591,29.226,15.814-5.169,17.401-20.174c3.688-35.345-6.5-51.369-6.5-51.369
	s4.985,3.327,8.406,3.161c4.014-0.173,6.843-4.241,6.618-8.823c-1.079-19.863-19.227-43.635-19.227-43.635
	c4.426,1.383,7.618,1.936,9.042,1.383c7.433-2.929,3.639-10.481,1.374-13.634c-20.454-28.178-46.579-42.452-68.939-50.098
	c7.446-1.93,12.104-5.224,15.559-8.725c6.579-6.565,9.78-25.368,16.253-30.685c9.073-7.54,29.209-12.404,35.606-21.782
	c6.165-9.006,7.139-22.113,3.151-33.93c-3.899-11.842-2.148-17.978,1.791-25.882c3.91-7.911,28.006-25.766,33.402-47.507
	c2.235-8.969,4.652-30.574-13.389-42.774c-18.49-12.488-51.712-6.945-51.712-6.945s30.14-8.271,34.934-35.372
	c3.384-18.986-18.116-30.764-19.489-41.178c-1.599-11.478,16.808-26.747,8.93-45.885c-6.29-15.197-18.429-19.913-36.836-25.157
	c-18.373-5.22-25.025-6.429-34.172-18.274c-9.273-11.797-10.461-31.605-18.304-40.839c-8.567-9.959-15.815-16.089-31.687-15.927
	c-11.266,0.174-21.235,3.215-34.107,16.385c-10.787,10.955-14.394,24.663-14.394,24.663s5.77-29.545-1.421-48.698
	C366.779,12.167,356.847,0.108,335.488,0c-16.243-0.062-29.559,7.383-41.021,13.09c-14.136,7.169-20.206,14.875-54.608,4.007
	c-36.752-11.588-64.087-6.706-74.737,5.317c-8.55,9.687-10.56,22.274-8.253,34.181c1.928,10.36,8.821,20.686,8.821,20.686
	s-37.658-16.938-63.957-11.68C75.435,70.876,55.02,85.81,51.631,107.937c-2.604,17.013,3.273,30.71,9.229,39.49
	c5.951,8.726,10.186,20.909,7.548,26.183C66.36,177.57,63.646,181.633,60.038,185.665z M233.346,471.972
	c-10.562,24.486-31.35,36.802-31.35,36.802c-0.941-7.141-0.794-11.441,0.285-18.871c1.047-7.276,1.274-24.638-2.008-34.922
	C210.205,465.625,222.334,470.117,233.346,471.972z M200.872,572.255c-15.324-0.592-22.357-5.117-22.357-5.117
	c22.956-15.378,38.133-23.642,44.673-27.458c6.397-3.705,14.112-6.182,24.07-4.948c5.765,0.718,13.466,5.224,14.843,11.353
	c1.528,6.771-5.166,14.766-11.13,28.965c-2.443,6.006-2.002,13.425-0.808,19.85C240.382,580.378,227.952,573.38,200.872,572.255z"/>
<path fill="#00773A" d="M264.41,535.918c1.526,6.568,1.526,17.004-5.618,30.419c-6.771,12.883-4.134,27.627-2.635,33.419
	c0.432,1.667,1.809,2.854,2.334,2.963c3.535,0.938,6.143,1.208,6.143,1.208c-1.973,20.463,14.587,41.619,16.958,43.941
	c2.301,2.336,4.682,1.821,7.481,0.611c2.745-1.18,3.941-1.765,3.941-1.765c3.941,6.682,14.577,14.577,18.525,16.138
	c3.914,1.623,4.316,1.008,6.701-0.537c2.332-1.614,4.717-3.58,4.717-3.58c18.931,26.026,49.743,33.692,57.545,35.095
	c4.357,0.78,5.545-2.378,2.798-5.916c-2.798-3.53-7.71-9.227-9.646-19.456c-3.685-18.527,0-25.163,3.09-26.005
	c3.25-0.801,3.607-2.367,3.25-7.086c-1.383-16.146-6.743-29.183-8.722-33.105c-1.962-3.959,0-4.359,3.163-3.959
	c4.617,0.603,4.686,0.225,3.912-4.339c-2.533-15.415-17.334-29.556-22.469-33.903c-5.135-4.328-3.563-4.78,1.604-5.51
	c4.946-0.742,5.087-1.604,3.277-6.957c-2.309-6.75-12.177-22.146-33.485-31.62c-22.769-10.129-60.036-5.34-60.036-5.34
	c8.409-5.287,28.905-13.604,43.558-17.2c19.349-4.855,39.759-0.323,53.603,9.909c16.219,12.049,24.102,49.854,29.466,64.736
	c7.175,19.658,18.594,20.081,18.594,20.081c3.572-1.169,5.096-6.391,5.096-6.391c15.794,16.766,44.655,26.489,55.219,28.37
	c3.878,0.671,6.365,0.857,6.365-2.649c0-3.197,0.448-3.668,0.448-3.668c5.797,0.557,14.212,1.041,29.421,8.969
	c15.282,7.853,21.577,18.91,23.692,25.236c2.083,6.288,6.294,3.625,6.809-0.555c4.284-34.003-5.39-61.238-5.39-61.238
	s5.39,0.687,8.56,0.687c3.124,0,3.676-2.003,3.124-5.14c-3.757-22.719-17.301-44.21-17.301-44.21
	c4.421,0.203,6.699,0.651,7.509-0.627c1.078-1.676-1.787-6.981-2.972-8.46c-39.509-49.369-87.645-50.296-106.587-50.296
	c-18.895,0-36.232,3.141-59.415,8.397c-23.14,5.252-34.107,1.384-43.628-4.235c-11.984-6.99-16.624-24.566-16.624-24.566
	c-26.789,31.142-58.999,21.818-58.999,21.818c-16.3,23.1-46.837,44.824-46.837,44.824c-3.941-7.6-3.712-20.993-2.637-28.365
	c1.078-7.364-0.12-20.631-3.201-32.044c-4.543-17.341-21.914-34.2-31.843-40.961c-15.772-10.606-43.003-17.182-60.153-18.61
	c-14.215-1.201-22.02-3.206-30.571-6.25c-11.203-3.931-16.219-9.395-19.421-12.528c-3.119-3.179-7.886-1.024-7.329,2.629
	c2.233,14.545,12.352,31.543,12.352,31.543c-3.125-1.206-5.506,2.332-4.726,5.466c3.754,15.164,9.446,22.875,9.446,22.875
	c-5.51-1.155-6.29,4.359-6.29,6.336c0,16.582,11.429,28.426,14.218,30.759c2.71,2.339,1.555,3.156-0.408,3.919
	c-5.806,2.329-4.804,5.948-3.161,7.896c4.539,5.666,22.096,18.553,31.544,22.868c24.251,11.089,53.636,9.487,66.693,8.296
	c13.018-1.196,22.426,4.707,22.426,4.707c-1.935,0.792-46.161,29.575-50.883,31.998c-4.728,2.328-8.667,0.771-11.05-0.411
	c-6.919-3.464-13.346-10.678-16.556-13.798c-3.159-3.147-5.911-1.578-5.911,1.94c0,3.54-0.78,18.954-0.375,22.864
	c0.375,3.973-2.381,5.551-3.987,6.287c-46.967,23.552-72.535,14.65-79.587,13.823c-7.194-0.783-12.658-0.783-14.218,3.569
	c-1.557,4.328,2.563,8.061,18.964,14.689c19.459,7.921,32.336,17.603,43.718,24.722c8.852,5.563,13.422,0.828,16.554-2.345
	c25.667-25.641,52.403-41.71,60.107-46.131c1.421-0.796,3.61-0.739,4.28-0.495c5.949,2.605,8.223,8.378,8.223,8.378
	c2.53,8.25-2.201,13.104-7.177,23.262c-6.844,14.289-8.149,25.63-6.589,30.785c1.609,5.119,5.652,3.603,7.22,2.456
	c1.526-1.152,2.562-0.437,2.605,1.542c0.181,22.893,12.64,37.355,15.772,40.132c3.158,2.764,3.567,2.764,5.542,0.762
	c1.964-1.967,3.939-5.896,3.939-5.896c1.155,2.777,6.249,14.587,13.358,22.494c7.132,7.882,10.084,17.451,11.826,24.86
	c1.299,5.281,2.375,5.899,5.174,1.155c2.745-4.738,14.769-28.872,14.769-28.872c5.501,3.929,6.501,4.805,9.213,2.056
	c16.412-16.349,17.603-49.204,17.603-52.758c0-3.532,0-3.933,2.378-2.733c2.354,1.18,4.136,0,4.279-2.741
	c0.405-5.137,3.196-20.904-6.243-41.012c-11.977-25.37-31.589-28.386-57.586-29.592c-30.359-1.394-29.76-6.817-29.76-6.817
	c22.463-14.19,69.78-41.367,74.094-43.382c4.354-1.938,5.584-3.675,13.027-0.792C255.934,525.035,262.998,529.815,264.41,535.918z"
	/>
<path fill="#FFFFFF" d="M377.158,485.918c38.312,6.319,64.557,21.519,88.544,44.871c26.826,26.016,39.438,48.703,52.494,70.78
	c0,0-34.924-44.278-65.688-73.414C421.269,498.477,391.4,490.634,377.158,485.918z"/>
<path fill="#FFFFFF" d="M166.021,576.11c0,0,28.159,4.7,40.515,57.802c9.44,40.703,2.154,70.207,2.154,70.207
	s0.51-37.396-3.653-54.634C191.496,593.273,166.021,576.11,166.021,576.11z"/>
<path fill="#FFFFFF" d="M57.884,388.379c0,0,18.858,34.021,50.546,57.009c30.962,22.548,7.896,7.132,50.07,36.287
	c26.42,18.224,33.775,25.623,33.775,25.623l-25.584-15.445c0,0-26.79-15.688-53.9-35.52
	C76.439,429.76,57.884,388.379,57.884,388.379z"/>
<path fill="#FFFFFF" d="M268.171,520.159c0,0,25.03,13.604,38.613,68.743c11.457,46.315,46.111,80.933,46.111,80.933
	s-13.348-7.519-30.565-29.837c-17.224-22.23-24.624-66.03-29.723-80.66C284.311,535.696,268.171,520.159,268.171,520.159z"/>
<path fill="#7C1829" d="M344.043,13.144c18.498,7.401,27.272,23.237,26.826,44.17c-0.482,22.869-11.416,40.632-15.367,44.549
	c-3.94,3.939-8.702,3.552-15.397,1.196c-6.725-2.394-15.369-6.301-27.606-6.301c-12.187,0-23.722,5.064-30.762,12.193
	c0,0-17.73-0.824-29.939,3.931c-12.236,4.762-16.596,7.534-19.71,9.491c0,0-12.877-0.628-24.475-6.325
	c-13.467-6.594-42.974-26.814-42.974-56.386s25.296-39.952,41.33-39.618c12.604,0.311,22.877,3.318,33.923,6.035
	c11.051,2.764,19.42,3.321,24.922,2.812c7.698-0.701,18.496-2.737,26.788-8.632c6.552-4.666,18.229-9.384,27.189-10.309
	C328.72,9.018,338.143,10.756,344.043,13.144z"/>
<path fill="#7C1829" d="M412.266,43.888c21.343,0,32.495,10.069,39.87,31.181c3.127,9.043,5.838,25.392,26.403,29.955
	c25.448,5.58,39.618,13.625,47.731,26.032c6.5,9.92,6.322,25.596,3.494,35.044c-2.716,9.484-4.722,15.399,3.156,24.082
	c6.812,7.48,11.505,19.721,5.544,35.878c-5.872,16.166-21.764,30.305-52.441,31.957c-14.585,0.781-35.522-2.147-34.29-9.466
	c0.402-2.34,1.771-4.273,7.318-10.544c3.83-4.447,6.436-11.103,7.291-17.464c1.337-10.136-3.577-20.292-11.648-29.088
	c-4.39-4.733-5.694-9.135-2.938-17.805c2.787-8.678,3.506-13.838,3.506-24.089c0-12.618-8.305-28.93-22.437-33.41
	c-17.356-5.51-36.327-2.469-51.323,10.558c0,0-13.391-9.47-13.391-27.996C368.113,80.154,387.42,43.888,412.266,43.888z"/>
<path fill="#B80D2F" d="M512.613,281.345c7.965,12.251,8.629,39.033-4.318,60.35c-18.887,31.16-48.688,28.286-48.688,28.286
	c-3.117,44.553-41.571,53.327-62.544,53.327c-55.175,0-56.554-43.469-56.554-48.19s-2.786-5.54-4.716-3.982
	c-13.363,10.716-19.718,30.023-20.497,45.798c-0.816,15.769,2.745,27.586,5.542,32.303c8.555,14.729,21.647,23.264,50.434,16.195
	c28.761-7.14,54.243-9.628,78.297-6.039c24.106,3.59,35.438-3.794,39.649-16.447c3.719-11.382,12.238-20.544,24.591-27.155
	c34.299-18.112,28.235-45.008,25.885-56.853c-2.386-11.556,4.907-17.242,9.824-22.838c19.26-22.264,23.287-50.917,10.603-67.047
	c-12.612-16.21-36.16-12.301-48.843-10.253c-7.516,1.184-15.361,4.721-18.56,6.287C492.718,265.085,503.762,267.65,512.613,281.345z
	"/>
<path fill="#B80D2F" d="M314.102,379.454c-0.598,15.169-6.913,59.368-31.542,73.687c-10.229,6.025-33.145,9.536-55.612,0.877
	c-22.496-8.72-33.179-23.9-39.06-30.387c-11.192-12.537-26.181-27.946-63.088-33.542c-34.777-5.319-65.392-19.992-60.029-57.974
	c4.569-32.868,36.559-40.566,54.266-40.062c2.572,0.09,7.367,2.132,8.888,4.514c4.319,6.791,14.066,20.606,25.706,27.884
	c15.808,9.894,34.226,13.152,52.004,13.231c0,0,8.378,36.301,37.054,48.485C266.189,396.098,292.607,392.163,314.102,379.454z"/>
<path fill="#B80D2F" d="M119.305,68.727c22.794,0,56.018,13.412,61.515,46.503c0,0-22.696-10.112-35.111,5.522
	c-11.013,13.859-3.61,31.193-0.822,40.263c2.759,9.081,5.026,17.422,2.759,25.225c-2.567,8.767-6.88,14.309-22.099,23.664
	c-13.239,8.232-16.593,22.149-17.295,31.171c-1.412,16.604,4.357,34.274,16.922,44.107c0,0-19.53,7.635-40.616-0.734
	c-23.325-9.27-36.275-29.225-36.275-54.01c0-24.888,14.178-38.282,18.941-43.416c4.722-5.13,9.862-13.372,9.862-21.668
	c0-8.254-4.513-14.539-6.701-18.955c-3.758-7.376-8.072-19.592-4.177-36.943C69.304,96.029,85.375,68.727,119.305,68.727z"/>
<path fill="#B80D2F" d="M159.103,140.504c-4.02,10.729-1.528,17.335,2.007,26.43c3.53,9.079,6.692,20.854-8.705,33.501
	c-15.399,12.608-30.583,22.155-29.385,47.035c1.185,24.826,18.822,58.271,42.776,71.204c18.375,10,31.587,10.664,45.378,9.479
	c0,0,12.06,34.673,40.022,46.638c19.534,8.353,49.62,11.432,76.713-11.107c9.485-7.87,20.674-29.867,18.71-49.175
	c0,0-33.114,2.744-66.249-8.71c-33.111-11.422-66.628-36.246-77.263-66.229c-10.636-29.962-14.396-75.774,18.305-110.115
	c0,0-12.842-7.482-27.191-8.7C180.633,119.729,164.639,125.927,159.103,140.504z"/>
<path fill="#7C1829" d="M373.654,144.058c-8.879-17.252-27.782-41.075-59.952-39.432c-9.633,0.491-22.887,6.687-27.607,12.612
	c0,0-15.251-0.363-26.446,2.773c-14.364,4.039-29.313,12.694-39.622,30.817c-10.227,18.136-13.987,32.269-13.987,50.011
	c0,24.921,12.91,55.728,37.461,72.963c3.952,2.74,4.958-0.708,4.133-7.4c-0.78-6.726-5.36-34.03,7.521-60.352
	c14.766-30.289,40.246-48.898,68.177-57.944C340.105,142.644,362.992,142.46,373.654,144.058z"/>
<path fill="#B80D2F" d="M317.231,159.03c-24.847,11.458-59.296,43.749-61.524,84.802c-1.937,36.236,14.213,58.324,62.712,60.298
	c48.51,1.94,96.651-31.941,98.58-33.111c1.965-1.186,1.605-3.969-3.95-2.759c-5.492,1.198-38.977,5.543-59.178,4.754
	c-20.083-0.826-42.479-7.115-52.408-22.511C290.587,233.649,286.876,205.164,317.231,159.03z"/>
<path fill="#B80D2F" d="M394.234,170.84c13.688,15.698,11.785,36.908-1.601,60.582c-13.39,23.651-32.218,29.178-44.409,28.384
	c-12.254-0.781-17.074-2.382-22.691-4.968c0,0,22.168-1.58,35.815-17.63c9.638-11.309,8.339-26.066,2.645-35.774
	c-3.461-5.799-9.042-10.323-13.175-12.865c-9.708-6.021-27.671-8.246-37.116-4.713c0,0,14.989-26.401,45.338-26.401
	C373.654,157.454,385.532,161.015,394.234,170.84z"/>
<path fill="#B80D2F" d="M314.148,187.789c-7.111,6.355-11.653,16.605-12.28,25.684c-0.747,10.846,2.753,21.26,12.234,26.78
	c9.451,5.526,26.148,2.827,33.33-3.845c8.07-7.495,8.299-16.766,7.892-19.832c-0.676-5.168-4.392-10.25-11.685-8.774
	c-5.688,1.185-10.259,1.001-13.577,0.2C326.238,207.127,317.013,204.095,314.148,187.789z"/>
<path fill="#7C1829" d="M432.75,125.11c13.795,7.249,16.183,21.289,11.909,37.042c-4.318,15.813-6.738,22.101,3.532,35.512
	c10.233,13.447,5.917,32.348,0,40.23c-5.915,7.886-18.188,21.666-42.995,24.045c-24.845,2.383-29.605-1.204-29.605-1.204
	s17.562-10.919,30.133-32.721c8.119-14.021,12.461-30.262,8.523-45.693c-5.694-22.434-29.209-28.832-39.065-28.832
	c0,0,4.357-19.307,18.976-26.383C408.703,120.012,424.506,120.752,432.75,125.11z"/>
<path fill="#B80D2F" d="M352.758,305.334c2.82,7.85,7.178,19.457-0.443,36.681c-6.443,14.626-8.676,40.249,9.518,57.546
	c18.161,17.371,47.575,13.261,59.734,7.176c14.193-7.094,19.701-20.866,22.671-36.342c1.454-7.611,5.438-10.417,14.558-10.654
	c9.181-0.221,27.819-3.151,39.647-22.406c9.48-15.351,13.429-37.819,3.762-53.285c-10.832-17.349-39.889-21.812-52.085-20.531
	c-7.474,0.803-13.013,2.751-17.743,7.124C427.673,274.955,399.253,301,352.758,305.334z"/>
<path fill="#0D402E" d="M357.297,478.397c3.011-0.428,6.245-1.033,9.738-1.812c23.183-5.257,40.521-8.397,59.415-8.397
	c18.942,0,67.078,0.928,106.587,50.296c1.185,1.479,4.05,6.784,2.972,8.46c-0.81,1.278-3.088,0.83-7.509,0.627
	c0,0,13.544,21.491,17.301,44.21c0.552,3.137,0,5.14-3.124,5.14c-3.17,0-8.56-0.687-8.56-0.687s9.674,27.235,5.39,61.238
	c-0.25,2.252-1.602,4.053-3.084,4.238c0,0-9.569-25.533-18.228-40.143c-13.131-22.014-25.668-44.765-52.494-70.78
	c-23.987-23.352-50.231-38.552-88.544-44.871c-5.69-1.25-30.953-6.869-30.953-6.869
	C349.561,479.118,353.195,478.926,357.297,478.397z"/>
<path fill="#0D402E" d="M208.69,704.119c0,0,7.286-35.981-3.203-74.191c-13.838-50.617-39.467-53.817-39.467-53.817
	s-3.942-1.931-2.531-8.972c0,0-0.599,5.424,29.76,6.817c25.997,1.206,45.61,4.222,57.586,29.592
	c9.439,20.107,6.647,35.875,6.243,41.012c-0.143,2.741-1.925,3.921-4.279,2.741c-2.378-1.199-2.378-0.799-2.378,2.733
	c0,3.554-1.191,36.409-17.603,52.758c-2.712,2.749-3.712,1.873-9.213-2.056c0,0-12.024,24.134-14.769,28.872
	c-1.898,3.295-2.975,3.996-3.953,2.42C204.885,732.028,206.266,715.878,208.69,704.119z"/>
<path fill="#0D402E" d="M47.32,374.791c0,0,3.234-1.849,5.8,0.878c3.129,3.165,8.218,8.597,19.421,12.528
	c8.551,3.044,16.356,5.049,30.571,6.25c17.15,1.428,44.381,8.004,60.153,18.61c9.929,6.761,27.299,23.62,31.843,40.961
	c3.082,11.413,4.279,24.68,3.201,32.044c-1.076,7.372-1.305,20.766,2.637,28.365l-8.672-7.129c0,0-7.431-7.341-33.775-25.623
	c-37.607-26.175-24.697-17.224-50.07-36.287c-6.728-5.027-30.766-22.987-50.546-57.009C56.353,385.75,50.332,376.272,47.32,374.791z
	"/>
<path fill="#0D402E" d="M267.238,510.634c0,0,37.268-4.789,60.036,5.34c21.309,9.475,31.177,24.87,33.485,31.62
	c1.81,5.354,1.669,6.215-3.277,6.957c-5.167,0.729-6.738,1.182-1.604,5.51c5.135,4.348,19.936,18.488,22.469,33.903
	c0.773,4.563,0.705,4.941-3.912,4.339c-3.163-0.4-5.125,0-3.163,3.959c1.979,3.923,7.339,16.959,8.722,33.105
	c0.357,4.719,0,6.285-3.25,7.086c-3.09,0.842-6.774,7.478-3.09,26.005c1.937,10.229,6.849,15.926,9.646,19.456
	c1.737,2.312,1.887,4.397,0.63,5.398c0,0-15.251-6.423-31.035-23.479c0,0-35.209-36.082-46.111-80.933
	c-13.358-55.14-38.613-68.743-38.613-68.743C265.112,517.138,263.147,512.581,267.238,510.634z"/>
<polygon points="61.131,841.105 71.323,841.105 71.323,779.144 61.131,779.144 61.131,765.421 127.85,765.421 127.85,790.96 
	113.175,790.96 113.175,779.007 86.677,779.007 86.677,802.922 113.719,802.922 113.719,815.967 86.677,815.967 86.677,841.242 
	113.312,841.242 113.312,829.284 127.987,829.284 127.987,854.833 61.131,854.833 "/>
<path d="M159.67,804.824c5.708-5.572,12.095-10.6,20.79-10.6c7.063,0,12.228,2.854,15.355,7.611
	c2.038,3.259,3.126,7.336,3.126,12.23v28.533h8.832v12.233h-31.796v-12.233h8.15v-24.865c0-2.445-0.408-4.619-1.221-6.115
	c-1.357-2.579-3.803-3.938-7.34-3.938c-5.16,0-10.598,2.987-15.352,6.925v27.994h8.153v12.233h-31.801v-12.233h8.834v-34.788h-8.834
	v-12.498h23.104V804.824z"/>
<path d="M271.084,854.966c0,7.334-1.905,13.451-5.572,17.935c-4.891,5.983-12.634,9.107-22.285,9.107
	c-10.326,0-19.16-3.264-23.373-7.478c-2.31-2.307-3.261-4.889-3.261-7.745c0-4.21,3.125-8.29,8.017-8.29
	c4.623,0,8.291,3.264,8.291,7.746c0,0.68-0.136,1.77-0.273,2.311c2.448,0.812,5.3,1.498,8.831,1.498
	c5.299,0,9.514-1.633,12.095-5.162c1.767-2.446,2.718-5.845,2.718-10.329v-8.564c-4.484,4.484-9.24,7.611-17.121,7.611
	c-15.083,0-27.175-11.551-27.175-29.213c0-16.986,12.365-30.169,27.853-30.169c7.609,0,13.049,2.99,16.988,6.388v-5.299h23.1v12.498
	h-8.833V854.966z M227.195,824.258c0,10.865,6.657,16.847,15.765,16.847c5.026,0,9.508-2.311,13.313-5.84v-23.646
	c-3.534-2.72-8.018-4.621-13.313-4.621C233.852,806.998,227.195,812.978,227.195,824.258z"/>
<polygon points="278.808,842.599 288.045,842.599 288.045,767.864 278.808,767.864 278.808,755.361 302.857,755.361 
	302.857,842.599 311.692,842.599 311.692,854.833 278.808,854.833 "/>
<path d="M316.854,839.205c0-11.144,9.781-17.937,23.915-17.937c6.112,0,11.821,0.814,15.08,1.629v-4.756
	c0-3.536-0.814-6.252-2.309-8.153c-2.446-3.125-6.386-4.351-11.685-4.351c-2.581,0-4.479,0.409-5.842,0.953
	c0.271,0.816,0.543,2.177,0.543,2.988c0,4.487-3.533,7.743-8.019,7.743c-4.484,0-7.882-3.122-7.882-8.017
	c0-7.334,7.472-15.081,23.642-15.081c10.192,0,17.124,2.854,21.336,8.016c3.125,3.807,4.616,8.97,4.616,14.95v25.409h8.838v12.233
	h-22.965v-6.527c-4.76,4.082-11.957,7.611-19.974,7.611C325.959,855.917,316.854,850.343,316.854,839.205z M355.849,839.884v-9.374
	c-3.396-0.816-7.607-1.362-12.222-1.362c-7.207,0-11.558,3.259-11.558,8.696c0,4.755,3.536,7.336,8.836,7.336
	C346.205,845.18,351.364,843.138,355.849,839.884z"/>
<path d="M408.304,804.824c5.703-5.572,12.092-10.6,20.793-10.6c7.065,0,12.23,2.854,15.353,7.611
	c2.04,3.259,3.127,7.336,3.127,12.23v28.533h8.831v12.233h-31.795v-12.233h8.152v-24.865c0-2.445-0.407-4.619-1.226-6.115
	c-1.355-2.579-3.805-3.938-7.334-3.938c-5.165,0-10.601,2.987-15.355,6.925v27.994h8.153v12.233h-31.798v-12.233h8.833v-34.788
	h-8.833v-12.498h23.099V804.824z"/>
<path d="M458.595,825.345c0-17.256,12.501-31.121,28.529-31.121c7.613,0,13.185,2.854,16.583,5.705v-32.065h-8.97v-12.503h23.781
	v87.238h8.835v12.233h-23.646v-6.527c-4.349,4.212-9.92,7.611-17.529,7.611C470.417,855.917,458.595,843.278,458.595,825.345z
	 M503.708,837.165v-25.546c-3.938-2.72-8.56-4.621-14.131-4.621c-8.29,0-15.763,6.389-15.763,18.209
	c0,11.414,7.061,17.932,15.763,17.932C495.148,843.138,499.627,840.696,503.708,837.165z"/>
<path d="M114.231,959.097h10.188v-61.961h-10.188V883.41h34.649c20.519,0,35.194,8.835,35.194,27.044
	c0,11.545-7.065,20.381-16.848,24.319l13.722,24.324h10.194v13.725h-20.655l-17.938-33.971c-1.902,0.132-3.669,0.27-5.434,0.27
	c-2.853,0-5.436,0-7.34-0.138v20.114h11.146v13.725h-36.69V959.097z M168.175,911c0-9.382-7.744-13.863-20.108-13.863h-8.292v28.668
	c1.633,0.139,3.806,0.268,8.698,0.268C160.023,926.072,168.175,920.374,168.175,911z"/>
<path d="M203.798,966.025c-1.898-3.12-2.989-7.195-2.989-11.955v-28.266h-8.83v-12.497h23.641v37.094
	c0,2.584,0.406,4.482,1.221,6.113c1.358,2.583,3.804,3.943,7.34,3.943c5.165,0,10.599-2.993,15.353-6.928v-27.726h-9.239v-12.497
	h24.053v47.287h8.834v12.228h-23.103v-9.508c-5.707,5.571-12.093,10.603-20.791,10.603
	C212.086,973.917,206.787,970.923,203.798,966.025z"/>
<path d="M324.054,972.96c0,7.337-1.906,13.452-5.572,17.935c-4.894,5.976-12.64,9.105-22.287,9.105
	c-10.324,0-19.159-3.262-23.369-7.478c-2.311-2.306-3.266-4.889-3.266-7.741c0-4.217,3.127-8.292,8.021-8.292
	c4.619,0,8.289,3.262,8.289,7.746c0,0.678-0.136,1.765-0.272,2.309c2.447,0.816,5.299,1.494,8.832,1.494
	c5.302,0,9.509-1.626,12.095-5.16c1.769-2.444,2.715-5.843,2.715-10.327v-8.56c-4.482,4.482-9.237,7.609-17.117,7.609
	c-15.087,0-27.178-11.551-27.178-29.219c0-16.983,12.367-30.164,27.854-30.164c7.609,0,13.044,2.986,16.987,6.386v-5.297h23.099
	v12.497h-8.83V972.96z M280.163,942.249c0,10.87,6.658,16.849,15.764,16.849c5.025,0,9.51-2.311,13.312-5.835v-23.651
	c-3.531-2.718-8.014-4.621-13.312-4.621C286.821,924.99,280.163,930.973,280.163,942.249z"/>
<path d="M354.1,967.112l-3.259,5.98h-10.059v-87.236h-8.965v-12.508h23.78v46.479c4.349-4.212,9.918-7.609,17.527-7.609
	c15.763,0,27.586,12.64,27.586,30.569c0,17.263-12.499,31.129-28.537,31.129C364.566,973.917,359.133,971.189,354.1,967.112z
	 M385.495,942.926c0-11.409-7.068-17.937-15.767-17.937c-5.571,0-10.057,2.447-14.13,5.983v25.541
	c3.941,2.72,8.559,4.621,14.13,4.621C378.02,961.135,385.495,954.75,385.495,942.926z"/>
<path d="M418.814,999.862c-7.878,0-12.77-4.624-12.77-9.379c0-5.023,3.397-7.604,7.334-7.604c3.536,0,5.573,2.172,6.522,4.482
	c1.498-0.409,3.131-1.36,4.755-3.534c0.952-1.219,1.77-2.713,2.72-4.616l4.482-9.379l-21.195-44.027h-7.341v-12.497h30.71v11.816
	h-8.694l13.72,31.391l13.863-31.391h-9.236v-11.816h30.568v12.497h-7.197l-27.854,59.109c-1.362,2.721-2.856,5.163-4.623,7.202
	C430.225,997.144,424.794,999.862,418.814,999.862z"/>
<path d="M418.033,658.332c0-12.729,10.135-22.847,22.895-22.847c12.836,0,22.873,10.118,22.873,22.847
	c0,12.681-10.037,22.797-22.873,22.797C428.167,681.128,418.033,671.012,418.033,658.332z M421.751,658.332
	c0,10.757,8.719,19.08,19.176,19.08s19.157-8.323,19.157-19.08c0-10.784-8.7-19.162-19.157-19.162S421.751,647.547,421.751,658.332z
	"/>
<path d="M431.522,665.578h2.696v-16.381h-2.696v-3.628h9.16c5.426,0,9.305,2.333,9.305,7.146c0,3.057-1.869,5.39-4.454,6.432
	l3.627,6.432h2.695v3.624h-5.46l-4.744-8.978c-0.501,0.036-0.969,0.072-1.433,0.072c-0.758,0-1.44,0-1.942-0.036v5.317h2.946v3.624
	h-9.7V665.578z M445.782,652.86c0-2.479-2.046-3.663-5.314-3.663h-2.191v7.579c0.432,0.036,1.005,0.073,2.301,0.073
	C443.628,656.849,445.782,655.339,445.782,652.86z"/>
</svg>
