<?xml version="1.0" encoding="UTF-8" standalone="no"?>
<!-- Created with Inkscape (http://www.inkscape.org/) -->

<svg
   xmlns:dc="http://purl.org/dc/elements/1.1/"
   xmlns:cc="http://creativecommons.org/ns#"
   xmlns:rdf="http://www.w3.org/1999/02/22-rdf-syntax-ns#"
   xmlns:svg="http://www.w3.org/2000/svg"
   xmlns="http://www.w3.org/2000/svg"
   version="1.1"
   width="202"
   height="211"
   viewBox="0 0 202 211"
   id="svg3087">
  <defs
     id="defs3089" />
  <metadata
     id="metadata3092">
    <rdf:RDF>
      <cc:Work
         rdf:about="">
        <dc:format>image/svg+xml</dc:format>
        <dc:type
           rdf:resource="http://purl.org/dc/dcmitype/StillImage" />
        <dc:title></dc:title>
      </cc:Work>
    </rdf:RDF>
  </metadata>
  <g
     transform="translate(0,-841.36218)"
     id="layer1">
    <g
       transform="translate(-350.76942,526.91484)"
       id="g3014">
      <path
         d="m 543.55723,350.70958 -34.9932,-28.59589 c 0,0 -10.38406,10.13241 -26.75483,10.13241 -16.37079,0 -24.2383,-10.07943 -24.2383,-10.07943 l -11.88074,0 c 0,0 -7.86751,10.07943 -24.23828,10.07943 -16.37078,0 -26.76809,-10.13241 -26.76809,-10.13241 l -34.97996,28.59589 c 0,0 11.90723,8.13241 11.90723,16.47674 l -4.72845,83.72144 c 0,0 10.54299,36.01306 84.72806,67.48311 l 0.0132,0.0132 c 74.18507,-31.47004 84.74131,-67.49635 84.74131,-67.49635 L 531.65,367.18631 c 0,-8.34433 11.90722,-16.47674 11.90722,-16.47674"
         id="path6330"
         style="fill:#0d3a63;fill-opacity:1;fill-rule:nonzero;stroke:none" />
      <path
         d="m 455.73249,326.39579 c 3.24503,3.21853 11.81452,10.06618 26.07934,10.06618 12.80789,0 22.23831,-5.56289 26.75484,-8.88737 3.98673,3.25826 22.48995,18.38401 28.27801,23.09922 -4.06621,3.65561 -9.41718,9.73504 -9.41718,16.50323 l 0,0.1192 c 0,0 4.58276,81.33735 4.67547,83.00622 -0.82118,2.13244 -4.23839,9.89399 -13.94694,20.27804 -10.43704,11.16551 -30.45018,27.65549 -66.52947,43.20508 -36.09254,-15.54959 -56.10569,-32.03957 -66.52947,-43.20508 -9.72182,-10.38405 -13.12577,-18.1456 -13.94696,-20.27804 0.0927,-1.65563 4.68873,-83.00622 4.68873,-83.00622 l 0,-0.1192 c 0,-6.76819 -5.36423,-12.84762 -9.41718,-16.50323 5.7748,-4.71521 24.29127,-19.84096 28.27801,-23.09922 4.50329,3.32448 13.9337,8.88737 26.74159,8.88737 14.26483,0 22.83432,-6.84765 26.07933,-10.06618 l 8.21188,0 z m 49.8938,-7.31122 c -0.0927,0.0795 -9.4834,8.92711 -23.81446,8.92711 -13.94694,0 -20.6489,-8.11917 -20.92704,-8.46353 l -1.27152,-1.57616 -2.03972,-0.0265 -13.90722,0 -1.28476,1.60265 c -0.29139,0.34436 -6.99334,8.46353 -20.94029,8.46353 -14.33106,0 -23.72175,-8.84764 -23.81446,-8.92712 l -2.70197,-2.59601 -2.90065,2.35761 -39.36404,32.15878 4.64898,3.19204 c 3.2715,2.25164 10.02644,8.35757 10.06618,12.94033 -0.0132,0.3841 -4.75495,84.26449 -4.75495,84.26449 l 0.21192,0.70198 c 0.45033,1.54966 11.97346,38.30445 87.1254,70.18508 l 1.65562,0.70198 1.65562,-0.70198 c 75.16519,-31.88063 86.70156,-68.63542 87.15189,-70.18508 l 0.21192,-0.70198 c 0,0 -4.72846,-83.88039 -4.75495,-84.26449 0.053,-4.58276 6.79467,-10.68869 10.06618,-12.94033 l 4.64899,-3.19204 -4.35761,-3.56289 -37.89385,-30.96674 -2.71521,2.60925 z"
         id="path6334"
         style="fill:#0d3a63;fill-opacity:1;fill-rule:nonzero;stroke:none" />
      <path
         d="m 457.08084,323.22627 c 1.66886,1.92053 9.66882,10.06618 24.72836,10.06618 14.41051,0 24.17206,-7.50989 26.79456,-9.78803 1.29801,1.07284 31.27137,25.56278 33.23162,27.15218 -3.05958,2.31787 -11.24497,9.20525 -11.24497,16.52972 l 0,0.0265 c 0,0 4.68872,83.16515 4.71521,83.5625 -0.4106,1.21854 -3.54965,9.76155 -14.41053,21.50983 -10.75491,11.64233 -31.50978,28.88728 -69.27118,44.96666 -37.76141,-16.09263 -58.51626,-33.32433 -69.27118,-44.96666 -10.86087,-11.74828 -13.98668,-20.29129 -14.39728,-21.50983 0.0132,-0.39735 4.70196,-83.5625 4.70196,-83.5625 l 0,-0.0265 c 0,-7.32447 -8.17214,-14.21185 -11.23173,-16.52972 1.94701,-1.5894 31.92037,-26.07934 33.23162,-27.15218 2.62251,2.27814 12.38405,9.78803 26.79457,9.78803 15.05953,0 23.04625,-8.14565 24.72836,-10.06618 l 10.90061,0 z m 50.74147,-1.86754 c -0.0927,0.0927 -10.29134,9.82777 -26.01311,9.82777 -15.61583,0 -23.33764,-9.57611 -23.40387,-9.66883 l -0.31787,-0.39735 -0.51656,-0.0132 -12.39729,0 -0.31788,0.41059 c -0.0795,0.0927 -7.78804,9.66883 -23.40386,9.66883 -15.72178,0 -25.92039,-9.73506 -26.02636,-9.82777 l -0.67549,-0.649 -0.72848,0.58278 -36.07929,29.49654 1.16557,0.79469 c 0.10595,0.0795 11.4304,7.90726 11.44364,15.58934 -0.0132,0.0927 -4.72845,83.86713 -4.72845,83.86713 l 0.053,0.17218 c 0.10596,0.37086 2.83443,9.39069 14.78138,22.35751 10.9271,11.88074 32.05282,29.47005 70.5427,45.8011 l 0.41059,0.17218 0.42384,-0.17218 c 38.48988,-16.33105 59.6156,-33.92036 70.55595,-45.8011 11.94695,-12.96682 14.68866,-21.98665 14.79463,-22.35751 l 0.053,-0.17218 c 0,0 -4.72845,-83.77442 -4.72845,-83.86713 0.0132,-7.68208 11.32444,-15.50986 11.44364,-15.58934 l 1.16557,-0.79469 -36.82101,-30.07932 -0.67549,0.649 z"
         id="path6338"
         style="fill:#ffffff;fill-opacity:1;fill-rule:nonzero;stroke:none" />
      <path
         d="m 379.1342,377.04985 145.40325,0 3.96026,71.72149 c 0,0 -17.50986,35.2846 -77.36386,59.28448 0,0 -58.45004,-25.1257 -75.39036,-59.28448 l 3.39071,-71.72149 z"
         id="path6342"
         style="fill:#ffffff;fill-opacity:1;fill-rule:nonzero;stroke:none" />
      <path
         d="m 380.25738,365.05653 c 0.0132,0.0795 0.0795,0.18543 0.17218,0.34437 0.0663,0.10596 0.23841,0.15894 0.50331,0.17219 0.27815,0.0132 0.60927,-0.0265 0.98013,-0.10597 0.38411,-0.0795 0.7947,-0.19867 1.23178,-0.37086 0.45033,-0.17218 0.87416,-0.3841 1.28477,-0.63575 0.7682,-0.49007 1.28475,-0.94039 1.53641,-1.35099 0.25166,-0.41059 0.2649,-0.78145 0.053,-1.12582 -0.1192,-0.18543 -0.35762,-0.21192 -0.72847,-0.0927 -0.35762,0.11921 -0.7947,0.30464 -1.31126,0.5563 -0.5033,0.25165 -1.04635,0.52979 -1.62913,0.80794 -0.59602,0.29139 -1.16556,0.51655 -1.74833,0.66225 -0.56954,0.14569 -1.09934,0.18543 -1.60265,0.0927 -0.49006,-0.0795 -0.90066,-0.37086 -1.20528,-0.87417 -0.25166,-0.39734 -0.38411,-0.80794 -0.39736,-1.24503 -0.0265,-0.43708 0.053,-0.87416 0.23841,-1.31124 0.18543,-0.42385 0.47683,-0.86093 0.86093,-1.28477 0.3841,-0.41059 0.86092,-0.80794 1.43046,-1.16555 0.52979,-0.33113 1.04635,-0.60927 1.54965,-0.83444 0.49006,-0.21191 0.9404,-0.3841 1.35099,-0.5298 0.41059,-0.13245 0.75496,-0.25165 1.03311,-0.33112 0.27815,-0.0795 0.47681,-0.15895 0.56953,-0.22517 0.10596,-0.053 0.17219,-0.13244 0.21192,-0.22516 0.0265,-0.0795 0.053,-0.17219 0.0662,-0.2649 l 0.21193,-0.053 0.27813,2.84767 -0.2384,0.0265 -0.10597,-0.17218 c -0.0662,-0.0927 -0.22515,-0.13246 -0.49006,-0.10597 -0.2649,0.0398 -0.56953,0.10597 -0.92715,0.22517 -0.37086,0.1192 -0.75496,0.2649 -1.1788,0.46357 -0.41059,0.18544 -0.79469,0.39735 -1.16555,0.62252 -0.67549,0.42384 -1.09933,0.79469 -1.27152,1.12582 -0.17218,0.31788 -0.19867,0.56954 -0.0927,0.74172 0.1192,0.18543 0.29139,0.25165 0.52979,0.22516 0.23841,-0.0265 0.5298,-0.1192 0.86093,-0.2649 0.31788,-0.14569 0.68874,-0.33112 1.08609,-0.54304 0.39734,-0.21192 0.82118,-0.42383 1.25827,-0.62251 0.43708,-0.19868 0.87416,-0.38411 1.32449,-0.52981 0.43708,-0.14569 0.87417,-0.22515 1.28477,-0.22515 0.41059,-0.0132 0.80794,0.0662 1.1788,0.25165 0.37085,0.17218 0.70198,0.49006 0.98012,0.94039 0.21193,0.34437 0.35762,0.71523 0.42384,1.13906 0.0663,0.42385 0.0132,0.87418 -0.15893,1.35099 -0.17219,0.47683 -0.49007,0.96689 -0.95364,1.47019 -0.46357,0.51656 -1.12582,1.03311 -1.96026,1.56291 -0.66224,0.4106 -1.24503,0.72848 -1.76158,0.96689 -0.50331,0.2384 -0.95364,0.41059 -1.35098,0.52979 -0.38411,0.11921 -0.68874,0.21193 -0.92715,0.25166 -0.23842,0.053 -0.4106,0.10596 -0.50331,0.15894 -0.0663,0.0397 -0.10597,0.0927 -0.11921,0.17219 -0.0265,0.0663 -0.0397,0.14569 -0.0663,0.22515 l -0.21192,0.0795 -0.59602,-3.49667 0.21192,-0.0265 z"
         id="path6346"
         style="fill:#ffffff;fill-opacity:1;fill-rule:nonzero;stroke:none" />
      <path
         d="m 396.31425,354.85923 -0.29139,0 c 0,-0.053 -0.0132,-0.10597 -0.0132,-0.15895 -0.0132,-0.053 -0.0265,-0.10595 -0.053,-0.15893 -0.0265,-0.0663 -0.13245,-0.11921 -0.31788,-0.13246 -0.17218,-0.0265 -0.39735,-0.0265 -0.63575,0 -0.25166,0.0265 -0.52981,0.0795 -0.83444,0.15895 -0.2914,0.0663 -0.58278,0.17218 -0.86092,0.30463 -0.30464,0.1457 -0.60927,0.33113 -0.88742,0.55629 -0.29139,0.22517 -0.51655,0.49007 -0.70198,0.76821 -0.18543,0.27814 -0.29139,0.58278 -0.34437,0.9139 -0.053,0.31788 0.0132,0.66225 0.17219,1.01986 0.17218,0.34437 0.3841,0.60928 0.67549,0.78146 0.29139,0.17219 0.59602,0.29139 0.92714,0.33112 0.33113,0.0397 0.6755,0.0132 1.03311,-0.053 0.35761,-0.0795 0.68874,-0.18542 1.00662,-0.33112 0.33112,-0.15894 0.62252,-0.34437 0.87417,-0.56953 0.26489,-0.22517 0.47682,-0.43709 0.649,-0.66225 0.17219,-0.22517 0.29139,-0.42384 0.37086,-0.59603 0.0663,-0.18542 0.0927,-0.30463 0.0663,-0.35761 l -0.0663,-0.14569 c -0.0397,-0.0662 -0.0662,-0.11921 -0.0927,-0.1457 l 0.13246,-0.19867 2.64899,1.53641 -0.14569,0.21193 c -0.15895,-0.0795 -0.27815,-0.0927 -0.35762,-0.0663 -0.0397,0.0265 -0.13245,0.13245 -0.27814,0.31787 -0.15895,0.19868 -0.35762,0.42385 -0.62252,0.70199 -0.2649,0.27814 -0.58278,0.56953 -0.98013,0.86092 -0.39735,0.30464 -0.86092,0.56953 -1.40396,0.82119 -0.60927,0.29139 -1.23178,0.50331 -1.86754,0.66225 -0.64901,0.14569 -1.25828,0.18543 -1.8543,0.10596 -0.58278,-0.0795 -1.13906,-0.30464 -1.64237,-0.649 -0.49006,-0.34437 -0.90066,-0.86093 -1.23178,-1.54967 -0.31788,-0.67549 -0.45034,-1.31125 -0.39735,-1.92051 0.053,-0.60927 0.2384,-1.16557 0.55628,-1.68212 0.30464,-0.51655 0.72848,-0.98013 1.24503,-1.39072 0.51655,-0.41059 1.07285,-0.75496 1.69535,-1.04635 0.35762,-0.17218 0.72848,-0.30464 1.09934,-0.41059 0.37086,-0.0927 0.71523,-0.18544 1.04635,-0.25166 0.31788,-0.0662 0.59602,-0.1192 0.83444,-0.15894 0.23841,-0.0397 0.39734,-0.0795 0.49006,-0.11921 0.053,-0.0265 0.10596,-0.0663 0.13245,-0.1192 0.0265,-0.053 0.0397,-0.10596 0.053,-0.14569 l 0.22516,-0.0265 -0.053,2.99337 z"
         id="path6350"
         style="fill:#ffffff;fill-opacity:1;fill-rule:nonzero;stroke:none" />
      <path
         d="m 402.38707,351.27647 c -0.25166,0.19868 -0.46358,0.43708 -0.60927,0.68874 -0.15894,0.25166 -0.25166,0.52979 -0.29139,0.83443 -0.0265,0.29139 0.0132,0.60927 0.13245,0.92715 0.1192,0.33112 0.27814,0.59603 0.49006,0.80794 0.21193,0.21192 0.46357,0.35761 0.74172,0.46358 0.29139,0.10596 0.59603,0.14569 0.91391,0.14569 0.33112,0 0.649,-0.0663 0.98012,-0.18543 0.33112,-0.1192 0.62251,-0.27814 0.87417,-0.47682 0.23841,-0.19867 0.45033,-0.42384 0.59603,-0.68874 0.15893,-0.25165 0.25164,-0.52979 0.27813,-0.82118 0.0398,-0.30464 0,-0.60927 -0.1192,-0.9404 -0.1192,-0.31788 -0.27814,-0.58277 -0.49006,-0.79469 -0.21192,-0.21193 -0.46358,-0.37086 -0.74171,-0.47682 -0.2914,-0.0927 -0.58279,-0.1457 -0.91391,-0.1457 -0.31788,0.0132 -0.63576,0.0663 -0.98013,0.18543 -0.31788,0.11921 -0.60926,0.27814 -0.86092,0.47682 m 1.93376,-2.66224 c 0.59603,-0.053 1.17881,0 1.73509,0.15894 0.5563,0.15894 1.07284,0.43708 1.52317,0.83443 0.45034,0.39735 0.79471,0.9404 1.04635,1.61589 0.23842,0.68874 0.31788,1.33775 0.21193,1.92052 -0.10596,0.59602 -0.31788,1.12582 -0.64901,1.5894 -0.34437,0.47681 -0.75496,0.87416 -1.25826,1.20529 -0.49007,0.33112 -1.01987,0.59602 -1.56292,0.79469 -0.54303,0.19868 -1.11257,0.31788 -1.7086,0.37087 -0.59602,0.0662 -1.1788,0.0132 -1.73509,-0.13246 -0.55628,-0.15893 -1.05959,-0.42383 -1.50992,-0.82118 -0.45033,-0.3841 -0.7947,-0.92715 -1.04636,-1.62913 -0.2384,-0.6755 -0.31788,-1.31125 -0.21191,-1.90728 0.0927,-0.59602 0.31788,-1.12582 0.649,-1.60264 0.33112,-0.47682 0.74172,-0.88741 1.23178,-1.23178 0.50331,-0.34437 1.01987,-0.62251 1.5629,-0.80794 0.54305,-0.19868 1.11259,-0.31788 1.72185,-0.35762"
         id="path6354"
         style="fill:#ffffff;fill-opacity:1;fill-rule:nonzero;stroke:none" />
      <path
         d="m 417.05851,344.69769 c 0.053,-0.0663 0.0662,-0.18542 0.0265,-0.34437 l 0.21191,-0.053 0.68874,2.59602 -0.21191,0.053 c -0.053,-0.17219 -0.11921,-0.2649 -0.19868,-0.29139 -0.0795,-0.0265 -0.15894,-0.0397 -0.22517,-0.0132 l -2.54303,0.67549 1.4437,5.47017 c 0.0397,0.13245 0.10597,0.19868 0.19868,0.21192 0.10596,0.0132 0.19867,0.0132 0.29139,0 l 0.0662,0.21191 -3.19203,0.84769 -0.0662,-0.21193 c 0.0927,-0.0397 0.18543,-0.0927 0.26489,-0.14569 0.0795,-0.053 0.0927,-0.15894 0.0663,-0.27814 l -1.45695,-5.48342 -2.54303,0.67549 c -0.0663,0.0132 -0.13245,0.0663 -0.18542,0.11921 -0.0663,0.0795 -0.0663,0.18543 -0.0265,0.35761 l -0.21192,0.053 -0.68874,-2.59602 0.21192,-0.053 c 0.0397,0.15895 0.10597,0.26491 0.18543,0.2914 0.0927,0.0265 0.17218,0.0265 0.23842,0.0132 l 7.45691,-1.97349 c 0.0795,-0.0265 0.14569,-0.0663 0.19867,-0.13246"
         id="path6358"
         style="fill:#ffffff;fill-opacity:1;fill-rule:nonzero;stroke:none" />
      <path
         d="m 419.61878,344.52021 c -0.10597,-0.0132 -0.22517,-0.0265 -0.35762,-0.0132 l -0.0398,-0.21193 3.37746,-0.63576 0.0398,0.21192 c -0.13245,0.0397 -0.23842,0.0927 -0.31788,0.1457 -0.0795,0.053 -0.10596,0.1457 -0.0927,0.27814 l 1.04636,5.54965 4.95362,-0.92716 c 0.0795,-0.0132 0.14569,-0.053 0.21191,-0.1192 0.053,-0.0662 0.0662,-0.19868 0.0265,-0.39734 l 0.22516,-0.0397 0.50331,2.71522 -0.21192,0.0397 c -0.0398,-0.19867 -0.0927,-0.30464 -0.17218,-0.33113 -0.0795,-0.0265 -0.15895,-0.0265 -0.22517,-0.0132 l -7.86751,1.47019 -0.0397,-0.21192 c 0.13245,-0.0397 0.23841,-0.0795 0.33112,-0.13245 0.0795,-0.0663 0.11921,-0.15894 0.0927,-0.29138 l -1.28476,-6.8609 c -0.0265,-0.13245 -0.0927,-0.21192 -0.19868,-0.22516"
         id="path6362"
         style="fill:#ffffff;fill-opacity:1;fill-rule:nonzero;stroke:none" />
      <path
         d="m 434.62929,343.77452 -1.15231,3.36422 3.03309,-0.33113 -1.88078,-3.03309 z m 3.09932,5.66885 c 0.0265,-0.0132 0.0795,-0.0265 0.13245,-0.0398 0.0662,-0.0132 0.0927,-0.0662 0.0795,-0.15894 0,-0.053 -0.0398,-0.1192 -0.0927,-0.22516 -0.053,-0.0927 -0.10596,-0.19868 -0.17219,-0.31788 -0.0795,-0.1192 -0.14569,-0.23841 -0.22516,-0.34437 -0.0663,-0.1192 -0.13246,-0.21192 -0.17219,-0.30464 l -4.23839,0.46357 c -0.0132,0.0927 -0.053,0.19868 -0.0927,0.33113 -0.0397,0.11921 -0.0795,0.25166 -0.13245,0.3841 -0.0397,0.13246 -0.0927,0.23841 -0.11921,0.35762 -0.0397,0.10596 -0.053,0.18543 -0.053,0.23841 0.0132,0.0795 0.0397,0.13244 0.10597,0.13244 0.0663,0 0.10595,0 0.14569,0 l 0.0265,0.22517 -2.7417,0.29139 -0.0265,-0.21192 c 0.0795,-0.0132 0.1457,-0.0397 0.21192,-0.0795 0.0795,-0.0265 0.1192,-0.0795 0.13245,-0.14569 0.27814,-0.90066 0.55629,-1.77482 0.84768,-2.649 0.27815,-0.8874 0.54304,-1.66886 0.76821,-2.38409 0.22517,-0.70199 0.41059,-1.298 0.55629,-1.76158 0.14569,-0.46357 0.21191,-0.72848 0.21191,-0.7947 -0.0132,-0.10596 -0.10595,-0.15893 -0.2649,-0.15893 l -0.0265,-0.21193 3.8278,-0.41059 0.0265,0.21192 c -0.15894,0.0265 -0.2384,0.10596 -0.22516,0.21192 0,0.0397 0.0927,0.18543 0.25165,0.46358 0.15894,0.27813 0.35761,0.60926 0.60927,1.01985 0.2649,0.4106 0.54305,0.86093 0.84767,1.36423 l 0.91391,1.49669 c 0.31788,0.49006 0.59603,0.96688 0.87416,1.40396 0.26491,0.45034 0.49007,0.82119 0.66225,1.12583 0.0265,0.053 0.0795,0.0927 0.15895,0.1192 0.0663,0.0265 0.14569,0.0265 0.22516,0.0265 l 0.0132,0.21192 -3.0331,0.33113 -0.0132,-0.21192 z"
         id="path6366"
         style="fill:#ffffff;fill-opacity:1;fill-rule:nonzero;stroke:none" />
      <path
         d="m 451.80934,348.66456 c 0.10596,0.0397 0.22516,0.053 0.37086,0.0663 l 0,0.21193 -3.39072,0.10595 -0.0132,-0.22516 c 0.10595,0 0.21192,-0.0132 0.34437,-0.0398 0.13245,-0.0265 0.18543,-0.10597 0.18543,-0.21192 0,-0.10596 -0.1457,-0.30464 -0.42385,-0.59603 -0.27813,-0.30463 -0.63575,-0.66225 -1.07284,-1.08609 -0.43708,-0.43708 -0.92714,-0.91389 -1.47019,-1.4437 -0.54304,-0.52979 -1.07284,-1.08608 -1.60263,-1.68211 l -0.0398,0.0397 0.14569,4.80792 c 0,0.13246 0.053,0.22517 0.1457,0.25166 0.0927,0.0397 0.19867,0.0663 0.33113,0.0663 l 0.0132,0.22517 -3.13905,0.0927 -0.0132,-0.22517 c 0.1192,-0.0132 0.22516,-0.0397 0.31788,-0.0795 0.0927,-0.0398 0.13245,-0.13245 0.13245,-0.26491 l -0.21193,-6.98009 c 0,-0.1457 -0.053,-0.22516 -0.14569,-0.25165 -0.10595,-0.0397 -0.22517,-0.0663 -0.35761,-0.0663 l 0,-0.22516 4.37083,-0.13245 0,0.22516 c -0.0795,0.0132 -0.15893,0.0397 -0.25164,0.0795 -0.0795,0.0397 -0.11921,0.13244 -0.11921,0.26489 0,0.0265 0.10596,0.1457 0.31788,0.37086 0.21192,0.21192 0.47682,0.49007 0.80794,0.82119 0.31788,0.34437 0.68874,0.70198 1.09934,1.11258 0.39735,0.41059 0.80794,0.80794 1.20529,1.21853 l -0.10596,-3.62912 c 0,-0.13245 -0.053,-0.21192 -0.15895,-0.25166 -0.0927,-0.0265 -0.21191,-0.053 -0.35761,-0.0662 l -0.0132,-0.21191 3.23177,-0.0927 0.0132,0.21193 c -0.14569,0.0132 -0.27814,0.053 -0.37086,0.0927 -0.0927,0.0397 -0.14569,0.11921 -0.13244,0.25166 l 0.19867,6.99334 c 0.0132,0.13245 0.0662,0.21192 0.15894,0.25166"
         id="path6370"
         style="fill:#ffffff;fill-opacity:1;fill-rule:nonzero;stroke:none" />
      <path
         d="m 458.15368,347.39304 c 0.95363,0.0397 1.64237,-0.0927 2.06622,-0.41059 0.43708,-0.31788 0.66224,-0.90065 0.70198,-1.74834 0.0397,-0.84767 -0.1457,-1.4437 -0.54305,-1.80131 -0.39735,-0.34437 -1.07284,-0.54304 -2.02648,-0.59602 l -1.32449,-0.053 -0.19868,4.55627 1.3245,0.053 z m -3.66886,-6.19864 c -0.0795,-0.0397 -0.19867,-0.0662 -0.33113,-0.0927 l 0.0132,-0.21193 5.5099,0.23842 c 0.68874,0.0265 1.25827,0.15893 1.72185,0.41059 0.47681,0.23841 0.84767,0.54304 1.1523,0.92715 0.2914,0.3841 0.50332,0.82119 0.62252,1.32449 0.1192,0.49007 0.17219,1.00662 0.14569,1.54967 -0.0265,0.54304 -0.1192,1.04635 -0.27814,1.53641 -0.15894,0.47682 -0.4106,0.90066 -0.74171,1.25828 -0.31788,0.35761 -0.72848,0.6225 -1.21854,0.82118 -0.49006,0.21192 -1.07285,0.29139 -1.76159,0.2649 l -5.5099,-0.23841 0.0132,-0.22517 c 0.13244,0 0.25165,-0.0265 0.34437,-0.053 0.0927,-0.0397 0.14569,-0.1192 0.14569,-0.25164 l 0.30463,-6.99335 c 0,-0.13244 -0.0397,-0.22517 -0.13244,-0.2649"
         id="path6374"
         style="fill:#ffffff;fill-opacity:1;fill-rule:nonzero;stroke:none" />
      <path
         d="m 477.79332,345.65133 c 0.52979,0.0927 0.9139,0.053 1.15231,-0.1192 0.22517,-0.15895 0.35761,-0.3841 0.41059,-0.64901 0.0398,-0.2649 -0.0132,-0.50331 -0.18542,-0.74171 -0.17219,-0.22517 -0.51656,-0.38411 -1.04636,-0.47683 l -3.04634,-0.5033 -0.33113,1.98675 3.04635,0.5033 z m -3.81455,4.68872 c 0.0397,0.0662 0.17218,0.11921 0.39735,0.18543 l -0.0265,0.22516 -3.73509,-0.62251 0.0397,-0.21192 c 0.22516,0.0132 0.37086,-0.0132 0.43709,-0.053 0.0662,-0.0397 0.10595,-0.10596 0.1192,-0.19867 l 1.39072,-8.43704 c 0.0132,-0.0927 0,-0.15895 -0.0397,-0.22517 -0.053,-0.0663 -0.18544,-0.13245 -0.4106,-0.18543 l 0.0398,-0.22516 6.63573,1.09933 c 1.33774,0.22516 2.27814,0.62251 2.79469,1.21854 0.5298,0.58277 0.70198,1.39071 0.5298,2.42382 -0.13245,0.83444 -0.49007,1.4437 -1.0596,1.82781 -0.56953,0.39735 -1.24503,0.63575 -2.02648,0.71523 l 1.65562,3.36422 c 0.10596,0.23841 0.2649,0.37086 0.46358,0.41059 l -0.0265,0.21192 -3.77482,-0.62251 0.0265,-0.21193 c 0.27814,0.0265 0.42383,-0.053 0.45032,-0.26489 0.0132,-0.0265 -0.0265,-0.10596 -0.0927,-0.27814 -0.0795,-0.15895 -0.17218,-0.35762 -0.27815,-0.58279 -0.1192,-0.22515 -0.2384,-0.47681 -0.37085,-0.74171 -0.14569,-0.2649 -0.27814,-0.51655 -0.39735,-0.75496 -0.13245,-0.25166 -0.23841,-0.46358 -0.33113,-0.64901 -0.0927,-0.19867 -0.15893,-0.31788 -0.18542,-0.3841 l -1.77483,-0.30464 -0.50331,3.04635 c -0.0132,0.0927 0,0.15893 0.053,0.22516"
         id="path6378"
         style="fill:#ffffff;fill-opacity:1;fill-rule:nonzero;stroke:none" />
      <path
         d="m 485.00255,344.77054 c -0.0927,-0.0662 -0.21192,-0.1192 -0.34437,-0.15894 l 0.053,-0.22516 3.20528,0.83443 -0.053,0.21192 c -0.0662,0 -0.13244,0 -0.21192,0.0265 -0.0795,0.0132 -0.13245,0.0795 -0.17218,0.21192 l -1.11258,4.3311 c -0.11921,0.45033 -0.0397,0.80794 0.23841,1.08609 0.27814,0.27815 0.67549,0.49006 1.21854,0.63576 0.52979,0.13245 0.98013,0.14569 1.36423,0.0397 0.37086,-0.11921 0.62252,-0.39735 0.72847,-0.84768 l 1.12582,-4.31786 c 0.0265,-0.13245 0.0132,-0.22516 -0.0529,-0.27814 -0.053,-0.053 -0.11922,-0.0927 -0.17219,-0.13245 l 0.0529,-0.21192 3.20529,0.83443 -0.053,0.21192 c -0.1457,-0.0265 -0.2649,-0.0265 -0.38411,-0.0265 -0.10596,0.0132 -0.17219,0.0795 -0.21192,0.21192 l -1.00662,3.90726 c -0.1192,0.47683 -0.30463,0.90066 -0.55628,1.28477 -0.25166,0.3841 -0.58278,0.70198 -0.98013,0.92715 -0.39735,0.2384 -0.88742,0.37086 -1.47019,0.39734 -0.58278,0.0398 -1.25828,-0.053 -2.05297,-0.25165 -0.78145,-0.19868 -1.41721,-0.46357 -1.90728,-0.76821 -0.49006,-0.30463 -0.84768,-0.66225 -1.09934,-1.0596 -0.2384,-0.39734 -0.37085,-0.82119 -0.41059,-1.28476 -0.0265,-0.45033 0.0132,-0.9139 0.13246,-1.39072 l 1.01985,-3.90727 c 0.0265,-0.13244 0,-0.22516 -0.0927,-0.29139"
         id="path6382"
         style="fill:#ffffff;fill-opacity:1;fill-rule:nonzero;stroke:none" />
      <path
         d="m 502.71637,356.33604 c -0.0397,0.11921 -0.053,0.22517 -0.0265,0.34437 0.0265,0.10597 0.0927,0.18543 0.19868,0.22517 l 0.15893,0.053 -0.0795,0.21192 c -0.33113,0.0397 -0.68874,0.0662 -1.09933,0.0795 -0.4106,0.0132 -0.84769,0.0132 -1.29801,-0.0265 -0.46357,-0.0265 -0.92716,-0.0927 -1.37748,-0.18543 -0.46357,-0.0927 -0.9139,-0.21192 -1.35099,-0.37086 -0.67549,-0.23841 -1.27151,-0.5298 -1.78807,-0.87417 -0.51655,-0.33112 -0.9139,-0.72847 -1.20529,-1.19204 -0.27814,-0.46357 -0.45032,-0.98013 -0.50331,-1.54966 -0.0397,-0.56954 0.053,-1.19205 0.29139,-1.88079 0.25166,-0.6755 0.58278,-1.21853 1.00662,-1.61588 0.42383,-0.39735 0.9139,-0.68874 1.45694,-0.84769 0.54305,-0.17218 1.11258,-0.2384 1.70861,-0.19866 0.60927,0.0397 1.20529,0.17218 1.78807,0.37085 0.45032,0.15894 0.83443,0.33113 1.1788,0.51655 0.34436,0.17219 0.649,0.35762 0.90066,0.51656 0.25165,0.17218 0.46357,0.31788 0.62251,0.42384 0.15894,0.1192 0.2649,0.18543 0.33113,0.21192 0.0927,0.0265 0.15893,0.0398 0.19867,0.0132 0.0397,-0.0265 0.0927,-0.053 0.1457,-0.0795 l 0.19867,0.10596 -1.70861,1.96025 -0.17218,-0.17218 0.0398,-0.1192 c 0.0397,-0.10597 0,-0.23842 -0.13246,-0.38412 -0.1192,-0.14569 -0.27814,-0.30462 -0.49006,-0.45032 -0.19868,-0.15894 -0.42384,-0.30464 -0.67549,-0.43709 -0.23842,-0.13244 -0.46357,-0.23841 -0.6755,-0.31788 -0.35761,-0.1192 -0.71523,-0.19867 -1.05959,-0.23841 -0.35762,-0.0397 -0.68874,0 -0.99338,0.10597 -0.30463,0.0927 -0.56953,0.26489 -0.80794,0.49006 -0.23841,0.23841 -0.43708,0.55629 -0.56953,0.96688 -0.15894,0.4106 -0.21192,0.7947 -0.17219,1.13907 0.0265,0.34437 0.13245,0.649 0.30464,0.92715 0.17218,0.27814 0.41059,0.51655 0.70198,0.72847 0.29139,0.21192 0.62252,0.38411 1.00662,0.51655 0.29139,0.10596 0.58277,0.18544 0.87416,0.23841 0.2914,0.053 0.59603,0.0927 0.90067,0.0927 l 0.39734,-1.11258 -1.45694,-0.51655 c -0.13246,-0.053 -0.23841,-0.0397 -0.31788,0.053 -0.0663,0.0927 -0.11921,0.17219 -0.1457,0.25166 l -0.19867,-0.0795 0.76821,-2.14568 0.19867,0.0663 c -0.0265,0.0662 -0.0397,0.15893 -0.0397,0.27815 0,0.1192 0.0662,0.19866 0.21192,0.25164 l 3.60263,1.28477 -0.84767,2.37085 z"
         id="path6386"
         style="fill:#ffffff;fill-opacity:1;fill-rule:nonzero;stroke:none" />
      <path
         d="m 510.4819,356.67114 c 0.43708,0.19868 0.75496,0.2649 0.98013,0.17219 0.22516,-0.0795 0.3841,-0.23841 0.49006,-0.46358 0.15894,-0.33113 0.15894,-0.58277 0.0265,-0.76821 -0.13245,-0.18542 -0.3841,-0.37086 -0.75496,-0.54304 l -1.9735,-0.9139 -0.74171,1.5894 1.97349,0.92714 z m -1.53641,2.86091 c 0.39735,0.18544 0.75496,0.2649 1.08608,0.25166 0.33113,0 0.56953,-0.17218 0.72848,-0.50331 0.0927,-0.22516 0.13244,-0.42384 0.10595,-0.58278 -0.0265,-0.15894 -0.0927,-0.30463 -0.19867,-0.41059 -0.10596,-0.11921 -0.23841,-0.22517 -0.39735,-0.30464 -0.14569,-0.0927 -0.30463,-0.17219 -0.47682,-0.25165 l -1.81456,-0.84768 -0.84767,1.80132 1.81456,0.84767 z m -1.54967,-7.61585 c -0.0795,-0.0795 -0.19867,-0.17219 -0.35761,-0.25166 l 0.0927,-0.19867 5.01984,2.33111 c 0.5033,0.23842 0.9139,0.46357 1.24502,0.6755 0.33113,0.21192 0.58278,0.43708 0.74172,0.67549 0.15894,0.23841 0.23841,0.50331 0.22517,0.7947 0,0.27814 -0.0927,0.60927 -0.26491,0.98013 -0.15893,0.35761 -0.42383,0.62251 -0.7682,0.80794 -0.34437,0.17219 -0.70199,0.2649 -1.07284,0.27814 0.37085,0.34437 0.60927,0.71523 0.71522,1.08609 0.10596,0.3841 0.0398,0.82119 -0.19867,1.3245 -0.30463,0.649 -0.78146,1.0596 -1.43046,1.23178 -0.63575,0.15894 -1.49668,0 -2.54303,-0.49006 l -5.08607,-2.37086 0.0927,-0.19866 c 0.17218,0.0662 0.31788,0.10595 0.42383,0.1192 0.10597,0 0.19868,-0.053 0.25166,-0.17219 l 2.95363,-6.33109 c 0.053,-0.11921 0.0398,-0.22517 -0.0397,-0.29139"
         id="path6390"
         style="fill:#ffffff;fill-opacity:1;fill-rule:nonzero;stroke:none" />
      <path
         d="m 518.26199,366.04858 c 0.053,0.0795 0.11921,0.14569 0.18543,0.19867 l -0.11921,0.18543 -2.76819,-1.68211 0.1192,-0.18542 c 0.0795,0.0397 0.17218,0.0529 0.26491,0.0662 0.0927,0.0132 0.17218,-0.0398 0.2384,-0.1457 l 1.23179,-2.02648 -0.52981,-5.89401 c 0,-0.0927 -0.0397,-0.17219 -0.13244,-0.25166 -0.0927,-0.0795 -0.15894,-0.14569 -0.22517,-0.18542 l 0.11921,-0.18543 3.37746,2.05297 -0.1192,0.18542 c -0.0662,-0.0397 -0.1457,-0.0662 -0.23841,-0.10595 -0.10596,-0.0397 -0.17218,-0.0265 -0.22516,0.0663 -0.0398,0.053 -0.0398,0.17219 -0.0265,0.3841 0.0132,0.19868 0.0265,0.43708 0.053,0.72847 0.0265,0.29139 0.0662,0.59603 0.10596,0.92716 0.0398,0.34436 0.0662,0.66224 0.10596,0.96688 0.0927,-0.0663 0.27815,-0.15894 0.54304,-0.27815 0.27815,-0.11921 0.56954,-0.23841 0.87417,-0.37085 0.29139,-0.13246 0.56954,-0.25166 0.80794,-0.37086 0.23842,-0.10597 0.37086,-0.18544 0.4106,-0.23842 0.053,-0.0927 0.0397,-0.15893 -0.0398,-0.22516 -0.0663,-0.0662 -0.13245,-0.11921 -0.18543,-0.15894 l 0.10595,-0.18543 3.11257,1.89403 -0.10595,0.18543 c -0.053,-0.0265 -0.13246,-0.0663 -0.23842,-0.0927 -0.1192,-0.0397 -0.21191,-0.0397 -0.29139,0 l -5.11255,2.37085 -1.27152,2.07946 c -0.0795,0.1192 -0.0795,0.21191 -0.0265,0.29138"
         id="path6394"
         style="fill:#ffffff;fill-opacity:1;fill-rule:nonzero;stroke:none" />
      <path
         d="m 429.00018,366.33069 c 0.0927,0 0.17218,-0.0397 0.22517,-0.10596 0.0397,-0.0663 0.0795,-0.19867 0.10595,-0.41059 l 0.22517,0 0,3.16555 -0.22517,0 c -0.0265,-0.18544 -0.0663,-0.30464 -0.10595,-0.34437 -0.053,-0.053 -0.13246,-0.0662 -0.22517,-0.0662 l -9.6026,0 0,-0.22517 c 0.23841,-0.0265 0.37086,-0.0663 0.43708,-0.1192 0.053,-0.053 0.0795,-0.1192 0.0795,-0.21193 l 0,-8.56949 c 0,-0.0795 -0.0265,-0.15893 -0.0795,-0.21191 -0.0662,-0.053 -0.19867,-0.0927 -0.43708,-0.11921 l 0,-0.22516 3.78806,0 0,0.22516 c -0.22516,0.0265 -0.37086,0.0662 -0.42384,0.11921 -0.053,0.053 -0.0795,0.13244 -0.0795,0.21191 l 0,6.88739 6.31785,0 z"
         id="path6398"
         style="fill:#ffffff;fill-opacity:1;fill-rule:nonzero;stroke:none" />
      <path
         d="m 439.77099,366.49096 0.22517,0 0,2.39734 -0.18544,0 c -0.0663,-0.15894 -0.13244,-0.2649 -0.19867,-0.29139 -0.0663,-0.0132 -0.17218,-0.0265 -0.31788,-0.0265 l -8.21188,0 0,-0.22517 c 0.1457,-0.0132 0.2649,-0.0397 0.35761,-0.0795 0.10597,-0.0265 0.15895,-0.11921 0.15895,-0.25166 l 0,-6.99334 c 0,-0.13245 -0.053,-0.21192 -0.15895,-0.25165 -0.0927,-0.0398 -0.21191,-0.0663 -0.35761,-0.0795 l 0,-0.21193 8.35758,0 c 0.0795,0 0.14569,-0.0265 0.22516,-0.0795 0.0663,-0.0398 0.10596,-0.15894 0.10596,-0.33113 l 0.22517,0 0,2.46357 -0.22517,0 c 0,-0.18543 -0.0397,-0.30464 -0.10596,-0.35762 -0.0795,-0.053 -0.1457,-0.0795 -0.22516,-0.0795 l -5.36421,0 0,1.48343 3.45693,0 c 0.0662,0 0.14569,-0.0265 0.21192,-0.0795 0.0795,-0.053 0.11921,-0.17218 0.11921,-0.34437 l 0.21191,0 0,2.3841 -0.21191,0 c 0,-0.17219 -0.0398,-0.27815 -0.11921,-0.33113 -0.0662,-0.0662 -0.14569,-0.0927 -0.21192,-0.0927 l -3.45693,0 0,1.84105 5.21851,0 c 0.23841,0 0.39735,-0.15894 0.47682,-0.46358"
         id="path6402"
         style="fill:#ffffff;fill-opacity:1;fill-rule:nonzero;stroke:none" />
      <path
         d="m 446.69148,362.39694 -1.50992,3.21853 3.05958,0 -1.54966,-3.21853 z m 2.46356,5.94699 c 0.0398,0 0.0795,0 0.1457,-0.0132 0.0662,-0.0132 0.0927,-0.0662 0.0927,-0.14569 0,-0.053 -0.0265,-0.13246 -0.0662,-0.23842 -0.0397,-0.0927 -0.0927,-0.21192 -0.1457,-0.33112 -0.0529,-0.1192 -0.10595,-0.25166 -0.17218,-0.37086 -0.0663,-0.1192 -0.10595,-0.22517 -0.1457,-0.30463 l -4.26488,0 c -0.0265,0.0795 -0.0663,0.18543 -0.1192,0.30463 -0.0662,0.1192 -0.1192,0.25166 -0.18543,0.37086 -0.053,0.1192 -0.10596,0.23841 -0.15894,0.33112 -0.0529,0.10596 -0.0795,0.18543 -0.0795,0.23842 0,0.0795 0.0397,0.13244 0.0927,0.14569 0.0663,0.0132 0.11921,0.0132 0.1457,0.0132 l 0,0.22517 -2.75496,0 0,-0.22517 c 0.0795,0 0.14569,-0.0132 0.22516,-0.0397 0.0663,-0.0397 0.11921,-0.0795 0.1457,-0.1457 0.37086,-0.86092 0.74172,-1.70859 1.12582,-2.54303 0.37086,-0.83443 0.71523,-1.60264 1.01987,-2.27813 0.29139,-0.68874 0.54303,-1.24504 0.74171,-1.69536 0.19868,-0.45033 0.29139,-0.70199 0.29139,-0.76821 0,-0.10596 -0.0795,-0.17219 -0.23841,-0.17219 l 0,-0.22516 3.84104,0 0,0.22516 c -0.15893,0 -0.23841,0.0663 -0.23841,0.17219 0,0.0398 0.0662,0.19867 0.19868,0.49006 0.1192,0.29139 0.29139,0.64901 0.5033,1.08609 0.21193,0.43708 0.4371,0.91391 0.68874,1.4437 0.25166,0.5298 0.50332,1.0596 0.75496,1.5894 0.25166,0.51655 0.49007,1.01986 0.70199,1.49668 0.22517,0.46357 0.39736,0.86092 0.54305,1.1788 0.0132,0.0662 0.0663,0.10596 0.14569,0.1457 0.0663,0.0265 0.1457,0.0397 0.21192,0.0397 l 0,0.22517 -3.04635,0 0,-0.22517 z"
         id="path6406"
         style="fill:#ffffff;fill-opacity:1;fill-rule:nonzero;stroke:none" />
      <path
         d="m 462.19869,366.67506 c 0,0.11921 0.0265,0.23841 0.0927,0.33112 0.0663,0.0927 0.14569,0.14571 0.25165,0.14571 l 0.17219,0 0,0.22515 c -0.29139,0.1457 -0.63576,0.29139 -1.00662,0.45034 -0.3841,0.15893 -0.7947,0.29138 -1.23179,0.41059 -0.45032,0.13245 -0.90065,0.22516 -1.36422,0.29139 -0.46358,0.0663 -0.9404,0.0927 -1.40397,0.0927 -0.70198,0 -1.36423,-0.0663 -1.96026,-0.21193 -0.60927,-0.14569 -1.11257,-0.39735 -1.53641,-0.72847 -0.42384,-0.34437 -0.75496,-0.76821 -0.99337,-1.28476 -0.23842,-0.5298 -0.35762,-1.15232 -0.35762,-1.86754 0,-0.72848 0.13245,-1.35098 0.41059,-1.86754 0.26491,-0.5298 0.62252,-0.95364 1.07285,-1.29801 0.46357,-0.33112 0.98013,-0.58277 1.56291,-0.75496 0.56953,-0.15894 1.1788,-0.23841 1.80131,-0.23841 0.46357,0 0.90066,0.0265 1.28476,0.0795 0.3841,0.053 0.72847,0.1192 1.01986,0.19867 0.29139,0.0663 0.52981,0.13246 0.72847,0.18543 0.18544,0.053 0.30464,0.0795 0.37086,0.0795 0.0927,0 0.15895,-0.0132 0.19868,-0.053 0.0265,-0.0265 0.0662,-0.0795 0.1192,-0.1192 l 0.21193,0.0265 -0.95364,2.43708 -0.21193,-0.10596 0,-0.13246 c 0,-0.10595 -0.0927,-0.21191 -0.25164,-0.31788 -0.17219,-0.0927 -0.37086,-0.18542 -0.62252,-0.26489 -0.23841,-0.0795 -0.5033,-0.13245 -0.78145,-0.18543 -0.27815,-0.0398 -0.51656,-0.0663 -0.74172,-0.0663 -0.3841,0 -0.74172,0.053 -1.08609,0.13245 -0.34436,0.0927 -0.63576,0.22517 -0.88741,0.42385 -0.25166,0.19867 -0.45033,0.45032 -0.59603,0.74171 -0.14569,0.30464 -0.22516,0.66225 -0.22516,1.09934 0,0.43708 0.0795,0.82118 0.22516,1.12582 0.1457,0.31788 0.34437,0.56953 0.59603,0.78145 0.2649,0.19868 0.56953,0.34437 0.9139,0.45032 0.33113,0.0927 0.71523,0.1457 1.11258,0.1457 0.30464,0 0.60927,-0.0265 0.90065,-0.0663 0.29139,-0.0397 0.59603,-0.1192 0.88742,-0.21192 l 0,-1.20529 -1.54966,0 c -0.1457,0 -0.23841,0.053 -0.27814,0.17218 -0.0265,0.10597 -0.053,0.19868 -0.053,0.27815 l -0.21193,0 0,-2.29138 0.21193,0 c 0,0.0795 0.0265,0.17218 0.053,0.27814 0.0397,0.11921 0.13244,0.17219 0.27814,0.17219 l 3.82779,0 0,2.51654 z"
         id="path6410"
         style="fill:#ffffff;fill-opacity:1;fill-rule:nonzero;stroke:none" />
      <path
         d="m 464.351,360.77046 c -0.10596,-0.0397 -0.22517,-0.0663 -0.3841,-0.0795 l 0,-0.21191 3.32448,0 0,0.21191 c -0.0663,0.0132 -0.13245,0.0398 -0.19867,0.0795 -0.0795,0.0397 -0.11921,0.11921 -0.11921,0.25166 l 0,4.4768 c 0,0.47682 0.17219,0.80794 0.50331,1.00661 0.34437,0.19868 0.78145,0.30463 1.33775,0.30463 0.55628,0 0.99336,-0.10595 1.33773,-0.30463 0.33113,-0.19867 0.50332,-0.52979 0.50332,-1.00661 l 0,-4.4768 c 0,-0.13245 -0.0398,-0.21193 -0.10597,-0.25166 -0.0795,-0.0397 -0.14569,-0.0663 -0.21191,-0.0795 l 0,-0.21191 3.32448,0 0,0.21191 c -0.14569,0.0132 -0.27815,0.0398 -0.3841,0.0795 -0.10596,0.0397 -0.14569,0.11921 -0.14569,0.25166 l 0,4.05295 c 0,0.49007 -0.0795,0.95364 -0.22517,1.39072 -0.14569,0.4371 -0.38411,0.8212 -0.71523,1.13908 -0.33113,0.33112 -0.78145,0.58277 -1.3245,0.75496 -0.55628,0.18543 -1.24502,0.2649 -2.05296,0.2649 -0.80795,0 -1.49669,-0.0795 -2.03973,-0.2649 -0.55629,-0.17219 -0.99337,-0.42384 -1.3245,-0.75496 -0.33112,-0.31788 -0.56954,-0.70198 -0.71523,-1.13908 -0.15893,-0.43708 -0.22516,-0.90065 -0.22516,-1.39072 l 0,-4.05295 c 0,-0.13245 -0.053,-0.21193 -0.15894,-0.25166"
         id="path6414"
         style="fill:#ffffff;fill-opacity:1;fill-rule:nonzero;stroke:none" />
      <path
         d="m 484.10454,366.49096 0.22517,0 0,2.39734 -0.18544,0 c -0.0663,-0.15894 -0.13244,-0.2649 -0.19867,-0.29139 -0.0663,-0.0132 -0.17218,-0.0265 -0.31788,-0.0265 l -8.21188,0 0,-0.22517 c 0.1457,-0.0132 0.2649,-0.0397 0.35761,-0.0795 0.10597,-0.0265 0.15895,-0.11921 0.15895,-0.25166 l 0,-6.99334 c 0,-0.13245 -0.053,-0.21192 -0.15895,-0.25165 -0.0927,-0.0398 -0.21191,-0.0663 -0.35761,-0.0795 l 0,-0.21193 8.35758,0 c 0.0795,0 0.14569,-0.0265 0.22516,-0.0795 0.0662,-0.0398 0.10596,-0.15894 0.10596,-0.33113 l 0.22517,0 0,2.46357 -0.22517,0 c 0,-0.18543 -0.0397,-0.30464 -0.10596,-0.35762 -0.0795,-0.053 -0.1457,-0.0795 -0.22516,-0.0795 l -5.36421,0 0,1.48343 3.45693,0 c 0.0663,0 0.14569,-0.0265 0.21192,-0.0795 0.0795,-0.053 0.11921,-0.17218 0.11921,-0.34437 l 0.21191,0 0,2.3841 -0.21191,0 c 0,-0.17219 -0.0398,-0.27815 -0.11921,-0.33113 -0.0662,-0.0662 -0.14569,-0.0927 -0.21192,-0.0927 l -3.45693,0 0,1.84105 5.21851,0 c 0.23841,0 0.39735,-0.15894 0.47682,-0.46358"
         id="path6418"
         style="fill:#ffffff;fill-opacity:1;fill-rule:nonzero;stroke:none" />
      <path
         d="m 467.50728,394.27228 c 0,0 13.84099,3.09932 4.51653,18.35753 0,0 -9.03307,-5.08607 -16.37078,-5.36421 0,0 3.66886,-6.78143 11.85425,-12.99332"
         id="path6422"
         style="fill:#0d3a63;fill-opacity:1;fill-rule:nonzero;stroke:none" />
      <path
         d="m 462.98942,393.99017 c 0,0 -14.67543,9.31121 -17.788,14.11913 0,0 -5.64236,0.27814 -11.85424,2.25165 0,0 10.72842,-14.67543 29.64224,-16.37078"
         id="path6426"
         style="fill:#0d3a63;fill-opacity:1;fill-rule:nonzero;stroke:none" />
      <path
         d="m 448.87293,415.44966 c 0,0 11.29796,3.947 13.84099,7.6291 0,0 -11.01981,11.28471 -23.1522,9.03307 l 9.31121,-16.66217 z"
         id="path6430"
         style="fill:#0d3a63;fill-opacity:1;fill-rule:nonzero;stroke:none" />
      <path
         d="m 439.48887,413.75298 -9.81451,15.24496 c 0,0 -4.23839,-5.92051 1.12582,-15.24496 l 8.68869,0 z"
         id="path6434"
         style="fill:#0d3a63;fill-opacity:1;fill-rule:nonzero;stroke:none" />
      <path
         d="m 471.9801,386.33325 26.09259,11.68206 0.49007,11.92046 14.15887,1.7351 c 0,0 -7.19203,8.19863 -8.19864,13.17874 l -16.88733,-0.25165 c 0,0 6.46354,-24.3575 -15.65556,-38.26471"
         id="path6438"
         style="fill:#0d3a63;fill-opacity:1;fill-rule:nonzero;stroke:none" />
      <path
         d="m 433.46904,386.33325 -26.09259,11.68206 -0.49006,11.92046 -14.17211,1.7351 c 0,0 7.20526,8.19863 8.21187,13.17874 l 16.88734,-0.25165 c 0,0 -6.46355,-24.3575 15.65555,-38.26471"
         id="path6442"
         style="fill:#0d3a63;fill-opacity:1;fill-rule:nonzero;stroke:none" />
      <path
         d="m 465.76821,466.83616 -13.1655,0 c 0,0 1.24503,-5.21852 11.17875,-12.42378 l 4.96686,0.50331 c 0,0 3.73509,4.71521 -2.98011,11.92047 m -26.09259,0.49007 c 0.75496,-8.6887 4.96686,-12.17213 4.96686,-12.17213 2.23841,1.74834 7.45692,1.49668 7.45692,1.49668 -4.96686,3.23178 -12.42378,10.67545 -12.42378,10.67545 m 83.48303,-35.27135 -8.94035,0.23841 c -0.99337,-7.94698 3.23177,-19.86746 3.23177,-19.86746 -6.21188,2.98013 -10.9271,15.15225 -10.9271,15.15225 l -26.34423,0 c 10.18537,10.43704 13.92045,25.33762 13.92045,25.33762 -9.94696,2.74171 -15.40389,14.91383 -15.40389,14.91383 l -2.74171,-1.24502 c 6.9536,-12.17213 14.91383,-16.14562 14.91383,-16.14562 l -3.23177,-6.95361 -5.21852,6.95361 -14.15887,0 c 17.13899,-18.38401 5.21852,-33.5495 5.21852,-33.5495 -14.66218,21.37737 -36.52962,20.38401 -36.52962,20.38401 -0.99337,8.43704 4.71521,13.65555 4.71521,13.65555 l -19.37739,0 -4.96686,-8.68869 c -2.72847,3.47018 -2.98012,7.69532 -2.98012,7.69532 13.1655,9.94698 14.15888,18.38401 14.15888,18.38401 l -2.72847,0 c -3.48343,-13.16549 -14.66219,-16.63567 -14.66219,-16.63567 1.24504,-12.67543 14.41053,-25.09922 14.41053,-25.09922 l -26.58265,0 c -8.19863,-16.64892 -12.67543,-14.15887 -12.67543,-14.15887 3.97349,8.43705 4.72845,18.63567 4.72845,18.63567 l -9.44366,0 c 7.69533,3.47019 16.14561,17.6423 16.14561,17.6423 l 0,13.1655 13.41715,0 c 7.70858,6.21189 11.17876,14.90058 11.17876,14.90058 l 12.42378,0 c -3.72183,3.48343 -4.4768,13.92047 -4.4768,13.92047 l 15.16549,0 c -0.99337,-3.48343 1.98674,-13.66881 1.98674,-13.66881 l 36.27798,0 c 6.21188,-19.62904 23.35087,-14.90059 23.35087,-14.90059 -5.70859,-19.39063 16.14561,-30.06607 16.14561,-30.06607"
         id="path6446"
         style="fill:#0d3a63;fill-opacity:1;fill-rule:nonzero;stroke:none" />
    </g>
  </g>
</svg>
