<?xml version="1.0" encoding="UTF-8" standalone="no"?>
<!-- Created with Inkscape (http://www.inkscape.org/) by Marsupilami -->
<svg
   xmlns:svg="http://www.w3.org/2000/svg"
   xmlns="http://www.w3.org/2000/svg"
   version="1.0"
   width="1005"
   height="768"
   viewBox="0 0 122.75427 93.840141"
   id="svg4217">
  <defs
     id="defs4219" />
  <g
     transform="translate(-313.62286,-485.44211)"
     id="layer1">
    <path
       d="M 427.37564,555.99486 L 435.81429,543.02915 L 428.6183,545.99446 C 427.80337,545.4023 426.58434,544.77805 424.90554,544.53826 C 424.00503,542.86531 423.43379,541.67126 423.11975,541.23482 C 425.40359,542.50565 426.54777,542.46175 429.13608,542.17921 C 424.87234,539.35648 422.81697,534.96822 422.51249,533.69731 C 424.25885,534.33385 424.86618,534.25963 427.21978,534.14092 C 425.39237,532.58853 420.69014,528.27451 420.31082,526.72325 C 422.4365,527.8309 423.42367,527.75777 425.13288,527.71603 C 423.42367,526.05812 420.6913,523.33872 420.23428,520.51606 C 421.45274,521.36258 422.65769,521.15645 424.94209,521.57921 C 421.74427,518.75702 416.74323,511.24973 416.43878,508.42673 C 415.52477,511.673 409.45328,520.88541 407.93485,522.17062 C 407.93485,522.17062 410.44043,522.21572 412.49072,521.25482 C 411.65495,523.98902 409.60524,527.6099 408.0868,529.26398 C 406.79574,527.6099 406.1896,526.45446 405.88513,525.46721 C 406.9477,525.98445 407.6315,525.91027 408.84602,525.86515 C 407.93204,525.01865 404.74603,521.13608 402.9006,515.86006 C 402.72558,516.50985 402.27534,517.60756 401.70522,518.8631 C 401.51218,518.36011 401.3045,517.86815 401.07995,517.39647 C 399.79002,514.68698 396.86345,511.58285 396.86345,511.58285 C 399.20358,511.24836 401.67314,512.45633 401.67314,512.45633 C 401.5617,509.33571 396.76947,505.75105 396.76947,505.75105 C 398.44154,505.30527 400.33593,506.25046 400.33593,506.25046 C 398.88728,502.34948 396.43573,501.49776 396.43573,501.49776 C 402.23034,487.67691 399.297,486.00496 399.297,486.00496 C 398.29409,486.2279 391.94177,490.90915 388.59874,492.91532 C 385.25571,494.92141 383.36133,495.03302 383.36133,495.03302 C 382.58072,494.14137 382.45128,491.41271 382.45128,491.41271 C 381.22606,492.1927 379.53767,495.17481 379.53767,495.17481 C 378.28375,492.04015 376.28468,491.87028 376.28468,491.87028 C 376.45184,492.539 376.07588,494.42003 376.07588,494.42003 C 375.44893,493.33331 371.81324,491.20162 371.81324,491.20162 C 371.8971,491.99593 371.77159,493.58426 371.77159,493.58426 C 370.01622,491.49433 366.38019,490.40755 366.38019,490.40755 C 366.96525,491.87028 367.0488,494.25301 367.0488,494.25301 C 364.91744,493.70932 357.22813,488.94448 354.92966,487.27257 C 352.63118,485.60065 352.31567,487.05022 352.38058,488.52641 C 352.58941,493.29156 355.84915,501.23282 355.84915,501.23282 C 352.12995,502.82116 351.16868,506.75016 351.16868,506.75016 C 352.12995,506.49948 353.96867,506.54095 353.96867,506.54095 C 350.24919,508.42207 348.36869,512.01658 348.36869,512.01658 C 351.04305,511.2225 353.20439,511.55673 353.20439,511.55673 C 351.27746,513.37847 349.94853,515.65453 349.24144,519.47655 C 348.85727,518.61076 348.55611,517.8467 348.41209,517.31288 C 346.56708,522.58897 343.79129,525.42267 342.87752,526.26921 C 344.09245,526.3143 344.50385,526.36046 345.56676,525.84266 C 345.26201,526.83097 344.69921,527.37078 343.40846,529.02541 C 341.88987,527.37078 339.83987,523.74995 339.00474,521.01628 C 341.0548,521.97658 343.56013,521.63962 343.56013,521.63962 C 342.04189,520.35445 335.97034,511.43412 335.05657,508.18791 C 334.7521,511.01085 329.75097,518.51788 326.55308,521.34057 C 328.83726,520.91733 330.04225,521.12401 331.26043,520.27692 C 330.80371,523.10017 328.0716,525.81902 326.36179,527.47692 C 328.0716,527.51867 329.05872,527.59235 331.18464,526.48413 C 330.80509,528.03597 326.10265,532.34996 324.27549,533.90232 C 326.62915,534.0211 327.23647,534.0953 328.98284,533.45873 C 328.67808,534.72908 325.5022,539.6511 321.23862,542.47353 C 323.82697,542.75613 324.78385,542.79948 327.06832,541.52891 C 326.7811,541.92812 326.34006,542.81242 325.60745,544.02656 C 324.53656,544.14367 322.99653,544.50055 321.36253,545.59535 L 314.18571,542.74826 L 319.34164,554.73451 L 322.72394,553.11676 L 325.03255,572.41387 L 325.56846,574.98855 L 326.78473,578.71941 L 328.03311,574.9272 L 328.5366,572.50393 L 329.43524,567.02191 L 331.72599,573.26778 L 334.15222,566.84235 L 336.35698,573.71078 L 339.56613,565.46551 L 340.56122,566.94255 L 341.55632,565.46551 L 344.48925,573.95845 L 346.5547,569.68722 L 347.43244,569.86791 C 347.957,569.97657 352.48085,570.82088 355.14427,568.37623 L 355.18798,569.67315 L 370.15977,569.67315 L 370.36009,565.89216 L 377.71026,573.15521 L 380.03462,567.69286 L 383.08893,573.08822 L 384.88595,566.85698 C 385.21125,567.38723 385.47861,568.05313 385.88436,568.45898 C 386.93117,569.50596 388.18058,570.05985 389.49809,570.05985 C 390.864,570.05985 392.10333,569.47895 393.12028,568.46515 L 393.16755,569.67315 L 403.21747,569.67315 L 404.74997,573.06061 L 406.108,569.62755 L 408.98282,561.44082 L 409.26137,569.68835 L 415.9947,569.68835 L 413.85775,576.19817 L 419.76772,572.92667 C 421.56924,574.15997 424.32642,573.92577 424.32642,573.92577 C 428.13995,573.0032 430.45359,570.25515 431.20268,565.75875 C 431.9653,561.18471 428.98355,557.80281 428.56709,557.35647 L 427.37564,555.99486"
       id="path2914"
       style="fill:#ffffff;fill-opacity:1;fill-rule:nonzero;stroke:none" />
    <path
       d="M 427.37564,555.99486 L 435.81429,543.02915 L 428.6183,545.99446 C 427.80337,545.4023 426.58434,544.77805 424.90554,544.53826 C 424.00503,542.86531 423.43379,541.67126 423.11975,541.23482 C 425.40359,542.50565 426.54777,542.46175 429.13608,542.17921 C 424.87234,539.35648 422.81697,534.96822 422.51249,533.69731 C 424.25885,534.33385 424.86618,534.25963 427.21978,534.14092 C 425.39237,532.58853 420.69014,528.27451 420.31082,526.72325 C 422.4365,527.8309 423.42367,527.75777 425.13288,527.71603 C 423.42367,526.05812 420.6913,523.33872 420.23428,520.51606 C 421.45274,521.36258 422.65769,521.15645 424.94209,521.57921 C 421.74427,518.75702 416.74323,511.24973 416.43878,508.42673 C 415.52477,511.673 409.45328,520.88541 407.93485,522.17062 C 407.93485,522.17062 410.44043,522.21572 412.49072,521.25482 C 411.65495,523.98902 409.60524,527.6099 408.0868,529.26398 C 406.79574,527.6099 406.1896,526.45446 405.88513,525.46721 C 406.9477,525.98445 407.6315,525.91027 408.84602,525.86515 C 407.93204,525.01865 404.74603,521.13608 402.9006,515.86006 C 402.72558,516.50985 402.27534,517.60756 401.70522,518.8631 C 401.51218,518.36011 401.3045,517.86815 401.07995,517.39647 C 399.79002,514.68698 396.86345,511.58285 396.86345,511.58285 C 399.20358,511.24836 401.67314,512.45633 401.67314,512.45633 C 401.5617,509.33571 396.76947,505.75105 396.76947,505.75105 C 398.44154,505.30527 400.33593,506.25046 400.33593,506.25046 C 398.88728,502.34948 396.43573,501.49776 396.43573,501.49776 C 402.23034,487.67691 399.297,486.00496 399.297,486.00496 C 398.29409,486.2279 391.94177,490.90915 388.59874,492.91532 C 385.25571,494.92141 383.36133,495.03302 383.36133,495.03302 C 382.58072,494.14137 382.45128,491.41271 382.45128,491.41271 C 381.22606,492.1927 379.53767,495.17481 379.53767,495.17481 C 378.28375,492.04015 376.28468,491.87028 376.28468,491.87028 C 376.45184,492.539 376.07588,494.42003 376.07588,494.42003 C 375.44893,493.33331 371.81324,491.20162 371.81324,491.20162 C 371.8971,491.99593 371.77159,493.58426 371.77159,493.58426 C 370.01622,491.49433 366.38019,490.40755 366.38019,490.40755 C 366.96525,491.87028 367.0488,494.25301 367.0488,494.25301 C 364.91744,493.70932 357.22813,488.94448 354.92966,487.27257 C 352.63118,485.60065 352.31567,487.05022 352.38058,488.52641 C 352.58941,493.29156 355.84915,501.23282 355.84915,501.23282 C 352.12995,502.82116 351.16868,506.75016 351.16868,506.75016 C 352.12995,506.49948 353.96867,506.54095 353.96867,506.54095 C 350.24919,508.42207 348.36869,512.01658 348.36869,512.01658 C 351.04305,511.2225 353.20439,511.55673 353.20439,511.55673 C 351.27746,513.37847 349.94853,515.65453 349.24144,519.47655 C 348.85727,518.61076 348.55611,517.8467 348.41209,517.31288 C 346.56708,522.58897 343.79129,525.42267 342.87752,526.26921 C 344.09245,526.3143 344.50385,526.36046 345.56676,525.84266 C 345.26201,526.83097 344.69921,527.37078 343.40846,529.02541 C 341.88987,527.37078 339.83987,523.74995 339.00474,521.01628 C 341.0548,521.97658 343.56013,521.63962 343.56013,521.63962 C 342.04189,520.35445 335.97034,511.43412 335.05657,508.18791 C 334.7521,511.01085 329.75097,518.51788 326.55308,521.34057 C 328.83726,520.91733 330.04225,521.12401 331.26043,520.27692 C 330.80371,523.10017 328.0716,525.81902 326.36179,527.47692 C 328.0716,527.51867 329.05872,527.59235 331.18464,526.48413 C 330.80509,528.03597 326.10265,532.34996 324.27549,533.90232 C 326.62915,534.0211 327.23647,534.0953 328.98284,533.45873 C 328.67808,534.72908 325.5022,539.6511 321.23862,542.47353 C 323.82697,542.75613 324.78385,542.79948 327.06832,541.52891 C 326.7811,541.92812 326.34006,542.81242 325.60745,544.02656 C 324.53656,544.14367 322.99653,544.50055 321.36253,545.59535 L 314.18571,542.74826 L 319.34164,554.73451 L 322.72394,553.11676 L 325.03255,572.41387 L 325.56846,574.98855 L 326.78473,578.71941 L 328.03311,574.9272 L 328.5366,572.50393 L 329.43524,567.02191 L 331.72599,573.26778 L 334.15222,566.84235 L 336.35698,573.71078 L 339.56613,565.46551 L 340.56122,566.94255 L 341.55632,565.46551 L 344.48925,573.95845 L 346.5547,569.68722 L 347.43244,569.86791 C 347.957,569.97657 352.48085,570.82088 355.14427,568.37623 L 355.18798,569.67315 L 370.15977,569.67315 L 370.36009,565.89216 L 377.71026,573.15521 L 380.03462,567.69286 L 383.08893,573.08822 L 384.88595,566.85698 C 385.21125,567.38723 385.47861,568.05313 385.88436,568.45898 C 386.93117,569.50596 388.18058,570.05985 389.49809,570.05985 C 390.864,570.05985 392.10333,569.47895 393.12028,568.46515 L 393.16755,569.67315 L 403.21747,569.67315 L 404.74997,573.06061 L 406.108,569.62755 L 408.98282,561.44082 L 409.26137,569.68835 L 415.9947,569.68835 L 413.85775,576.19817 L 419.76772,572.92667 C 421.56924,574.15997 424.32642,573.92577 424.32642,573.92577 C 428.13995,573.0032 430.45359,570.25515 431.20268,565.75875 C 431.9653,561.18471 428.98355,557.80281 428.56709,557.35647 L 427.37564,555.99486 z"
       id="path2916"
       style="fill:none;stroke:#ffffff;stroke-width:1.1256932;stroke-linecap:butt;stroke-linejoin:miter;stroke-miterlimit:40;stroke-dasharray:none;stroke-opacity:1" />
    <path
       d="M 427.37564,555.99486 L 435.81429,543.02915 L 428.6183,545.99446 C 427.80337,545.4023 426.58434,544.77805 424.90554,544.53826 C 424.00503,542.86531 423.43379,541.67126 423.11975,541.23482 C 425.40359,542.50565 426.54777,542.46175 429.13608,542.17921 C 424.87234,539.35648 422.81697,534.96822 422.51249,533.69731 C 424.25885,534.33385 424.86618,534.25963 427.21978,534.14092 C 425.39237,532.58853 420.69014,528.27451 420.31082,526.72325 C 422.4365,527.8309 423.42367,527.75777 425.13288,527.71603 C 423.42367,526.05812 420.6913,523.33872 420.23428,520.51606 C 421.45274,521.36258 422.65769,521.15645 424.94209,521.57921 C 421.74427,518.75702 416.74323,511.24973 416.43878,508.42673 C 415.52477,511.673 409.45328,520.88541 407.93485,522.17062 C 407.93485,522.17062 410.44043,522.21572 412.49072,521.25482 C 411.65495,523.98902 409.60524,527.6099 408.0868,529.26398 C 406.79574,527.6099 406.1896,526.45446 405.88513,525.46721 C 406.9477,525.98445 407.6315,525.91027 408.84602,525.86515 C 407.93204,525.01865 404.74603,521.13608 402.9006,515.86006 C 402.72558,516.50985 402.27534,517.60756 401.70522,518.8631 C 401.51218,518.36011 401.3045,517.86815 401.07995,517.39647 C 399.79002,514.68698 396.86345,511.58285 396.86345,511.58285 C 399.20358,511.24836 401.67314,512.45633 401.67314,512.45633 C 401.5617,509.33571 396.76947,505.75105 396.76947,505.75105 C 398.44154,505.30527 400.33593,506.25046 400.33593,506.25046 C 398.88728,502.34948 396.43573,501.49776 396.43573,501.49776 C 402.23034,487.67691 399.297,486.00496 399.297,486.00496 C 398.29409,486.2279 391.94177,490.90915 388.59874,492.91532 C 385.25571,494.92141 383.36133,495.03302 383.36133,495.03302 C 382.58072,494.14137 382.45128,491.41271 382.45128,491.41271 C 381.22606,492.1927 379.53767,495.17481 379.53767,495.17481 C 378.28375,492.04015 376.28468,491.87028 376.28468,491.87028 C 376.45184,492.539 376.07588,494.42003 376.07588,494.42003 C 375.44893,493.33331 371.81324,491.20162 371.81324,491.20162 C 371.8971,491.99593 371.77159,493.58426 371.77159,493.58426 C 370.01622,491.49433 366.38019,490.40755 366.38019,490.40755 C 366.96525,491.87028 367.0488,494.25301 367.0488,494.25301 C 364.91744,493.70932 357.22813,488.94448 354.92966,487.27257 C 352.63118,485.60065 352.31567,487.05022 352.38058,488.52641 C 352.58941,493.29156 355.84915,501.23282 355.84915,501.23282 C 352.12995,502.82116 351.16868,506.75016 351.16868,506.75016 C 352.12995,506.49948 353.96867,506.54095 353.96867,506.54095 C 350.24919,508.42207 348.36869,512.01658 348.36869,512.01658 C 351.04305,511.2225 353.20439,511.55673 353.20439,511.55673 C 351.27746,513.37847 349.94853,515.65453 349.24144,519.47655 C 348.85727,518.61076 348.55611,517.8467 348.41209,517.31288 C 346.56708,522.58897 343.79129,525.42267 342.87752,526.26921 C 344.09245,526.3143 344.50385,526.36046 345.56676,525.84266 C 345.26201,526.83097 344.69921,527.37078 343.40846,529.02541 C 341.88987,527.37078 339.83987,523.74995 339.00474,521.01628 C 341.0548,521.97658 343.56013,521.63962 343.56013,521.63962 C 342.04189,520.35445 335.97034,511.43412 335.05657,508.18791 C 334.7521,511.01085 329.75097,518.51788 326.55308,521.34057 C 328.83726,520.91733 330.04225,521.12401 331.26043,520.27692 C 330.80371,523.10017 328.0716,525.81902 326.36179,527.47692 C 328.0716,527.51867 329.05872,527.59235 331.18464,526.48413 C 330.80509,528.03597 326.10265,532.34996 324.27549,533.90232 C 326.62915,534.0211 327.23647,534.0953 328.98284,533.45873 C 328.67808,534.72908 325.5022,539.6511 321.23862,542.47353 C 323.82697,542.75613 324.78385,542.79948 327.06832,541.52891 C 326.7811,541.92812 326.34006,542.81242 325.60745,544.02656 C 324.53656,544.14367 322.99653,544.50055 321.36253,545.59535 L 314.18571,542.74826 L 319.34164,554.73451 L 322.72394,553.11676 L 325.03255,572.41387 L 325.56846,574.98855 L 326.78473,578.71941 L 328.03311,574.9272 L 328.5366,572.50393 L 329.43524,567.02191 L 331.72599,573.26778 L 334.15222,566.84235 L 336.35698,573.71078 L 339.56613,565.46551 L 340.56122,566.94255 L 341.55632,565.46551 L 344.48925,573.95845 L 346.5547,569.68722 L 347.43244,569.86791 C 347.957,569.97657 352.48085,570.82088 355.14427,568.37623 L 355.18798,569.67315 L 370.15977,569.67315 L 370.36009,565.89216 L 377.71026,573.15521 L 380.03462,567.69286 L 383.08893,573.08822 L 384.88595,566.85698 C 385.21125,567.38723 385.47861,568.05313 385.88436,568.45898 C 386.93117,569.50596 388.18058,570.05985 389.49809,570.05985 C 390.864,570.05985 392.10333,569.47895 393.12028,568.46515 L 393.16755,569.67315 L 403.21747,569.67315 L 404.74997,573.06061 L 406.108,569.62755 L 408.98282,561.44082 L 409.26137,569.68835 L 415.9947,569.68835 L 413.85775,576.19817 L 419.76772,572.92667 C 421.56924,574.15997 424.32642,573.92577 424.32642,573.92577 C 428.13995,573.0032 430.45359,570.25515 431.20268,565.75875 C 431.9653,561.18471 428.98355,557.80281 428.56709,557.35647 L 427.37564,555.99486"
       id="path2918"
       style="fill:#181a21;fill-opacity:1;fill-rule:nonzero;stroke:none" />
    <path
       d="M 350.23156,520.21097 C 350.23156,520.21097 350.15302,520.73646 350.06532,521.23616 C 350.34396,521.80671 350.63612,522.38558 350.92715,522.94626 L 350.93947,522.95833 C 351.93071,513.32868 359.44712,509.65478 359.8882,509.29196 C 360.55596,508.74288 355.65432,508.35777 355.65432,508.35777 C 355.51278,507.22486 360.51094,504.61866 360.51094,504.61866 C 359.37818,503.48606 356.33334,504.08135 356.33334,504.08135 C 356.75819,503.37338 360.60981,501.23442 360.60981,501.23442 C 355.08793,502.08423 353.35938,505.15738 353.35938,505.15738 C 355.34156,504.94498 357.73593,505.3413 357.73593,505.3413 C 354.12532,506.97002 351.93071,509.87306 351.93071,509.87306 C 356.45287,509.73142 356.16375,510.55903 356.16375,510.55903 C 351.42066,514.24117 350.23156,520.21097 350.23156,520.21097"
       id="path2920"
       style="fill:#134a7f;fill-opacity:1;fill-rule:nonzero;stroke:none" />
    <path
       d="M 350.23156,520.21097 C 350.23156,520.21097 350.15302,520.73646 350.06532,521.23616 C 350.34396,521.80671 350.63612,522.38558 350.92715,522.94626 L 350.93947,522.95833 C 351.93071,513.32868 359.44712,509.65478 359.8882,509.29196 C 360.55596,508.74288 355.65432,508.35777 355.65432,508.35777 C 355.51278,507.22486 360.51094,504.61866 360.51094,504.61866 C 359.37818,503.48606 356.33334,504.08135 356.33334,504.08135 C 356.75819,503.37338 360.60981,501.23442 360.60981,501.23442 C 355.08793,502.08423 353.35938,505.15738 353.35938,505.15738 C 355.34156,504.94498 357.73593,505.3413 357.73593,505.3413 C 354.12532,506.97002 351.93071,509.87306 351.93071,509.87306 C 356.45287,509.73142 356.16375,510.55903 356.16375,510.55903 C 351.42066,514.24117 350.23156,520.21097 350.23156,520.21097 z"
       id="path2922"
       style="fill:none;stroke:#2076c6;stroke-width:0.2814233;stroke-linecap:butt;stroke-linejoin:miter;stroke-miterlimit:4;stroke-dasharray:none;stroke-opacity:1" />
    <path
       d="M 356.81566,500.71528 L 355.4655,491.60481 C 355.4655,491.60481 353.90986,488.74766 353.86556,488.84332 C 353.19426,490.30035 356.41441,500.314 356.81566,500.71528"
       id="path2924"
       style="fill:#134a7f;fill-opacity:1;fill-rule:nonzero;stroke:none" />
    <path
       d="M 356.81566,500.71528 L 355.4655,491.60481 C 355.4655,491.60481 353.90986,488.74766 353.86556,488.84332 C 353.19426,490.30035 356.41441,500.314 356.81566,500.71528 z"
       id="path2926"
       style="fill:none;stroke:#2076c6;stroke-width:0.2814233;stroke-linecap:butt;stroke-linejoin:miter;stroke-miterlimit:4;stroke-dasharray:none;stroke-opacity:1" />
    <path
       d="M 381.98697,525.97897 C 381.81419,526.61992 381.45625,527.49891 380.66552,528.90117 C 378.57584,532.60617 378.93322,535.1491 378.7762,537.2528 C 378.64059,539.0745 377.82507,540.43498 375.49114,540.43498 C 374.06556,540.43498 371.14351,540.18102 371.27971,537.48363 C 371.39339,535.23645 371.309,532.80183 369.3962,528.94298 C 368.89165,527.92492 368.44341,526.59625 368.53465,525.70518 C 368.65803,524.50137 369.04552,523.67132 369.41909,524.7251 C 369.58399,525.19017 370.30494,525.63376 370.84466,525.9229 C 369.34036,524.08361 368.86276,522.31413 369.02738,521.16086 C 369.19059,520.018 369.91379,519.07252 371.20317,519.08737 C 372.42672,519.10163 372.9681,519.96965 372.9681,520.30935 C 372.9681,520.64906 372.83247,520.37752 372.425,520.24175 C 372.19257,520.16425 371.81437,520.03782 371.40637,520.03782 C 370.79573,520.03782 369.83838,520.57432 369.90651,522.20417 C 369.97457,523.83403 371.18406,526.27581 372.45089,526.593 C 372.99456,526.72875 372.65463,526.3209 372.31582,525.9812 C 371.97589,525.64198 371.43279,525.03075 371.43279,524.14845 C 371.43279,523.26561 372.24772,522.31466 373.26586,522.31466 C 374.28393,522.31466 374.0802,522.51861 374.55576,522.65437 C 375.03077,522.79015 375.03077,522.85776 375.03077,522.85776 C 375.03077,522.85776 375.03189,522.85335 375.0409,522.84343 C 375.0409,522.83358 375.0409,522.82311 375.0409,522.8132 C 375.03752,522.82586 375.03414,522.84018 375.03077,522.85172 C 374.85011,522.21787 374.76512,518.84217 373.0846,518.42228 C 373.0846,518.42228 373.26586,518.10506 373.99015,518.15016 C 373.99015,518.15016 373.26586,517.38106 371.99896,517.38106 C 371.0484,517.38106 370.45971,517.78843 370.27905,517.92418 C 370.27905,517.92418 370.76024,516.55595 372.07269,516.55595 C 372.93715,516.55595 373.98452,516.6214 374.90417,518.13971 L 374.72685,514.97121 C 374.58503,513.69645 372.74467,512.422 372.74467,512.422 C 375.57671,512.32767 372.77338,510.21301 372.77338,510.21301 C 372.77338,510.21301 366.30959,506.59538 366.62807,506.55996 C 367.61926,506.27686 370.93302,507.21135 370.93302,507.21135 L 370.08319,505.65348 C 373.19832,504.37902 374.91427,508.67218 374.87881,508.63676 C 374.87881,508.63676 376.62912,503.17075 375.62114,499.89673 C 375.62114,499.89673 376.04606,497.37141 375.87834,498.12366 C 375.87834,498.12366 374.36216,494.50366 373.10884,493.7511 C 373.10884,493.7511 373.00018,495.41448 372.60735,496.59365 C 372.52352,496.8443 372.52352,496.8443 372.52352,496.8443 C 372.52352,496.8443 371.01916,494.00206 368.428,492.99885 C 368.428,492.99885 368.59509,494.83782 368.428,496.17557 C 368.428,496.17557 362.54033,495.03052 355.97443,489.82235 C 353.55067,487.89953 353.8851,488.73562 353.8851,488.73562 C 353.8851,488.73562 353.87738,488.77102 353.8689,488.84311 C 353.94666,488.8153 355.4655,491.60481 355.4655,491.60481 L 356.79556,500.58037 C 356.81588,500.63832 356.83017,500.67785 356.83542,500.69192 C 356.84915,500.72816 357.55208,500.56242 357.54796,500.52455 C 357.50812,500.1441 357.07943,492.51808 357.27978,492.86586 C 357.50018,493.24871 360.59692,494.92226 360.82802,495.32461 C 360.95393,495.54341 359.28726,496.24841 359.41526,496.47156 C 359.63482,496.85446 363.90475,497.90468 364.1298,498.2985 C 364.317,498.6261 359.26687,499.84207 359.45675,500.1754 C 359.8085,500.79277 360.69476,500.53333 361.0501,501.16158 C 361.0501,501.16158 360.80028,501.23007 360.39416,501.35597 C 359.57935,501.81636 356.69747,503.47423 356.33334,504.08135 C 356.33334,504.08135 359.37818,503.48606 360.51094,504.61866 C 360.51094,504.61866 355.51278,507.22486 355.65432,508.35777 C 355.65432,508.35777 360.55596,508.74288 359.8882,509.29196 C 359.44712,509.65478 351.93071,513.32868 350.93947,522.95833 L 350.92793,522.94735 C 351.8881,524.79711 352.82822,526.44511 353.1857,526.90962 C 351.66307,526.62705 351.17747,526.97501 350.72076,526.26921 C 351.17747,527.96286 352.59516,530.66681 353.65813,532.32137 C 354.92909,530.92681 355.42705,530.2287 355.87166,529.46516 C 355.81284,529.37503 354.64522,529.80925 353.73399,529.76421 C 354.64769,528.49438 356.42817,525.6387 357.99754,522.523 C 358.45459,524.92245 361.78049,529.79717 362.3895,530.50301 C 361.47821,530.62231 360.6431,530.62231 359.65598,530.05998 C 360.26522,531.61232 362.23367,534.25748 363.60415,535.52781 C 362.3895,535.94231 361.31778,535.65536 360.25177,535.23203 C 361.31778,536.50246 362.41145,539.43782 364.23367,540.47236 C 362.8586,540.7868 362.23339,540.7291 361.94624,540.60705 L 362.70908,541.48487 L 369.98864,541.48487 C 368.59071,538.92221 368.86992,537.32093 367.21564,534.25907 C 367.15048,534.13817 369.10461,534.76208 368.73444,534.26898 C 366.18593,530.87017 366.8147,526.37362 366.8147,526.37362 C 366.8147,526.37362 368.89222,531.41221 369.78885,533.48901 C 370.57002,535.29748 369.91717,538.64298 371.34558,540.5955 C 372.41318,542.0559 374.27774,542.07841 374.27774,542.07841 C 378.55502,542.71842 379.14486,539.06018 379.90517,533.99251 C 380.91765,531.46002 381.30598,528.37017 382.11191,526.06366 C 382.11079,525.95315 382.06632,525.93 381.98697,525.97897"
       id="path2928"
       style="fill:#c9cfd2;fill-opacity:1;fill-rule:nonzero;stroke:none" />
    <path
       d="M 373.60519,525.64198 C 372.99456,525.16706 373.19832,525.57437 373.33392,525.91352 C 373.46956,526.25272 373.53484,526.38903 374.48823,526.38903 C 375.03077,526.38903 375.03077,526.38903 375.03077,526.38903 C 375.03077,526.38903 375.03077,526.38903 375.57387,526.38903 C 376.52725,526.38903 376.59253,526.25272 376.72817,525.91352 C 376.8638,525.57437 377.06757,525.16706 376.45693,525.64198 C 375.8457,526.11695 375.57387,526.04933 375.03077,526.04933 C 374.48823,526.04933 374.21639,526.11695 373.60519,525.64198"
       id="path2930"
       style="fill:#c9cfd2;fill-opacity:1;fill-rule:nonzero;stroke:none" />
    <path
       d="M 378.92481,511.35525 C 379.75888,509.74906 381.90199,508.53177 384.61187,507.47247 C 384.61187,507.47247 383.65173,506.98682 383.25496,507.22486 C 382.96849,507.39663 383.62078,506.25708 383.62078,506.25708 C 383.62078,506.25708 381.7883,507.16378 381.49677,507.6495 C 381.39097,507.82647 381.20186,507.24847 381.10731,506.68195 C 381.01333,506.11556 378.83023,510.60003 378.92481,511.35525"
       id="path2932"
       style="fill:#c9cfd2;fill-opacity:1;fill-rule:nonzero;stroke:none" />
    <path
       d="M 367.49535,510.77228 C 367.49535,510.77228 365.14194,509.23311 364.73469,508.59966 C 364.32713,507.96582 364.41783,507.83006 364.41783,507.83006 C 364.41783,507.83006 364.01055,508.23738 364.2821,508.91648 C 364.2821,508.91648 362.96959,507.96582 362.87892,507.73928 C 362.87892,507.73928 362.92973,509.01133 363.82949,509.73121 C 364.2821,510.09315 364.55359,510.59118 364.64395,510.95343 C 364.73469,511.31541 364.91547,513.12615 366.54484,513.98612 C 368.17415,514.84637 369.16974,514.12193 369.48663,514.30302 C 369.48663,514.30302 370.02973,514.61993 370.25654,515.07238 C 370.48222,515.52472 370.57342,515.52472 370.57342,514.8915 C 370.57342,514.25768 369.48663,512.3112 368.76249,511.58697 L 367.49535,510.77228"
       id="path2934"
       style="fill:#181a21;fill-opacity:1;fill-rule:nonzero;stroke:none" />
    <path
       d="M 366.27329,511.31541 C 366.27329,511.31541 366.04714,511.9946 366.72587,512.3112 C 367.40467,512.62811 367.90263,512.17545 367.90263,512.17545 L 368.491,512.58276 C 368.491,512.58276 367.62754,514.0568 366.27329,513.03542 C 364.97951,512.05971 365.54919,510.81741 365.54919,510.81741 L 366.27329,511.31541"
       id="path2936"
       style="fill:#ffe801;fill-opacity:1;fill-rule:nonzero;stroke:none" />
    <path
       d="M 366.27329,511.31541 C 366.27329,511.31541 366.04714,511.9946 366.72587,512.3112 C 367.40467,512.62811 367.90263,512.17545 367.90263,512.17545 L 368.491,512.58276 C 368.491,512.58276 367.62754,514.0568 366.27329,513.03542 C 364.97951,512.05971 365.54919,510.81741 365.54919,510.81741 L 366.27329,511.31541 z"
       id="path2938"
       style="fill:none;stroke:#ffe801;stroke-width:0.2814233;stroke-linecap:butt;stroke-linejoin:miter;stroke-miterlimit:4;stroke-dasharray:none;stroke-opacity:1" />
    <path
       d="M 383.65286,511.31541 C 383.65286,511.31541 383.87913,511.9946 383.20037,512.3112 C 382.52107,512.62811 382.02355,512.17545 382.02355,512.17545 L 381.43486,512.58276 C 381.43486,512.58276 382.29876,514.0568 383.65286,513.03542 C 384.94673,512.05971 384.37662,510.81741 384.37662,510.81741 L 383.65286,511.31541"
       id="path2940"
       style="fill:#ffe801;fill-opacity:1;fill-rule:nonzero;stroke:none" />
    <path
       d="M 383.65286,511.31541 C 383.65286,511.31541 383.87913,511.9946 383.20037,512.3112 C 382.52107,512.62811 382.02355,512.17545 382.02355,512.17545 L 381.43486,512.58276 C 381.43486,512.58276 382.29876,514.0568 383.65286,513.03542 C 384.94673,512.05971 384.37662,510.81741 384.37662,510.81741 L 383.65286,511.31541 z"
       id="path2942"
       style="fill:none;stroke:#ffe801;stroke-width:0.2814233;stroke-linecap:butt;stroke-linejoin:miter;stroke-miterlimit:4;stroke-dasharray:none;stroke-opacity:1" />
    <path
       d="M 376.56946,530.7064 C 375.7095,530.66075 375.3026,531.74751 375.25701,532.19991 C 375.21199,532.65288 375.03077,533.05965 375.03077,533.05965 L 375.03077,533.04263 C 375.03077,533.04263 374.85011,532.63581 374.80508,532.18283 C 374.7595,531.72996 374.35206,530.64373 373.49207,530.68876 C 372.63211,530.73442 372.31582,531.32315 372.40587,532.86175 C 372.49648,534.40092 373.2208,536.2111 375.03077,536.30235 L 375.03077,536.31938 C 376.84129,536.22813 377.56562,534.4174 377.65566,532.87882 C 377.74627,531.33962 377.42998,530.7509 376.56946,530.7064"
       id="path2944"
       style="fill:#e32739;fill-opacity:1;fill-rule:nonzero;stroke:none" />
    <path
       d="M 376.56946,530.7064 C 375.7095,530.66075 375.3026,531.74751 375.25701,532.19991 C 375.21199,532.65288 375.03077,533.05965 375.03077,533.05965 L 375.03077,533.04263 C 375.03077,533.04263 374.85011,532.63581 374.80508,532.18283 C 374.7595,531.72996 374.35206,530.64373 373.49207,530.68876 C 372.63211,530.73442 372.31582,531.32315 372.40587,532.86175 C 372.49648,534.40092 373.2208,536.2111 375.03077,536.30235 L 375.03077,536.31938 C 376.84129,536.22813 377.56562,534.4174 377.65566,532.87882 C 377.74627,531.33962 377.42998,530.7509 376.56946,530.7064 z"
       id="path2946"
       style="fill:none;stroke:#ef293d;stroke-width:0.2814233;stroke-linecap:butt;stroke-linejoin:miter;stroke-miterlimit:4;stroke-dasharray:none;stroke-opacity:1" />
    <path
       d="M 21.28125,27.3125 C 21.281249,27.3125 18.89824,32.24606 16.9375,33.3125 C 16.937499,33.312499 19.30076,33.04122 20.28125,32.375 C 20.28125,32.375 18.01177,38.73144 17.03125,39.53125 L 19.59375,39.0625 C 19.593749,39.0625 16.92945,45.40237 14.96875,46.46875 L 18.46875,45.4375 C 18.46875,45.437498 14.57308,53.13769 13.3125,53.9375 C 13.3125,53.9375 16.78682,53.26856 18.1875,52.46875 C 18.1875,52.468751 16.18692,56.08314 14.75,58.625 C 15.78677,58.785958 17.15705,59.19316 18.59375,60.15625 L 25.75,57.3125 L 23.1875,63.25 L 25.5,62.34375 L 26.9375,65.625 L 28.375,62.34375 L 30.03125,63 L 27.65625,56.03125 L 29.4375,56.03125 L 25.8125,51.28125 L 28.46875,51.96875 C 28.46875,51.968748 24.70084,46.932 24.1875,45.6875 C 24.187499,45.687501 26.12619,46.17281 26.40625,45.90625 C 26.40625,45.906252 22.25245,40.12836 22.8125,39.0625 L 24.6875,39.59375 C 24.687499,39.593749 21.28244,33.55843 21.5625,32.625 C 21.5625,32.625001 23.32659,33.17354 24.28125,33.25 L 21.28125,27.3125 z M 101.5,28.5 L 98,34.875 L 100.71875,34.46875 C 100.71875,34.46875 98.18304,42.20687 97.0625,42.5625 L 99.4375,41.96875 C 99.437502,41.968751 95.6509,48.89956 94.4375,49.34375 L 98.03125,48.78125 C 98.031247,48.78125 96.34245,52.62481 94.78125,56.03125 L 96.6875,56.03125 L 100.6875,56.03125 L 97.90625,63.28125 L 102.6875,63.28125 C 103.27563,61.95789 104.47265,60.2233 106.78125,59.4375 L 106.5625,58.96875 L 106.5625,58.6875 L 106.40625,58.6875 L 104.71875,55.25 L 107.65625,55.8125 C 107.65625,55.812499 104.04931,48.59937 104.15625,48.34375 L 107.0625,48.96875 C 107.0625,48.96875 102.03255,41.4295 102.40625,40.71875 L 105.1875,41.0625 C 105.1875,41.062499 101.8444,34.77184 102.03125,34.59375 L 104.40625,35.0625 C 104.40625,35.062499 101.5,28.58904 101.5,28.5 z M 88.8125,35.28125 L 85.9375,40.21875 L 87.875,39.5625 C 87.875001,39.562499 85.15341,46.19019 84.5,46.8125 L 86.59375,46.0625 C 86.593747,46.062501 84.71395,51.77263 83.5,52.75 L 85.65625,52.375 C 85.72885,52.78837 85.2593,54.34589 84.6875,56.03125 L 91.25,56.03125 C 90.776691,54.340411 90.35134,52.80185 90.3125,52.46875 L 92.1875,53.1875 C 92.1875,53.187499 90.0319,47.6195 90.21875,46.375 L 92.09375,46.71875 C 92.093749,46.71875 89.3444,39.98734 89.53125,39.1875 L 90.875,39.4375 C 90.875004,39.4375 89.09222,35.99206 88.8125,35.28125 z M 34.28125,36.03125 C 34.281249,36.031252 33.02813,38.71731 32.1875,39.25 C 31.347181,39.783748 33.59375,39.25 33.59375,39.25 C 33.593749,39.249998 31.35524,45.4361 30.375,45.96875 C 30.375,45.968749 31.99263,45.65814 32.75,45.5625 L 31.1875,48.96875 C 31.1875,48.968751 33.58106,52.83838 34.28125,54.4375 L 32.21875,54.28125 C 32.21875,54.281252 32.58224,55.03084 33.125,56.03125 L 37.40625,56.03125 L 35.875,52.71875 C 35.859591,52.723159 38.57853,53.04742 38.53125,52.9375 L 34.90625,45.84375 C 34.906251,45.843749 36.99085,46.36441 36.8125,46 C 36.196668,44.740089 34.64014,39.59375 34.5,39.59375 L 36.09375,39.6875 L 34.28125,36.03125 z M 78.78125,39.15625 L 75.9375,44.625 L 78.0625,44.15625 L 74.8125,49.90625 L 77.21875,49.28125 L 74.1875,54.75 L 76.75,54.3125 L 75.90625,56.03125 L 80.21875,56.03125 L 79.625,53.625 L 81.5,53.75 L 79.90625,48.78125 L 81.375,49.0625 L 79.34375,43.9375 L 81.34375,44.28125 L 78.78125,39.15625 z M 43.875,40.0625 C 44.014919,39.663401 42.4827,42.78731 42.0625,43.1875 C 42.027332,43.220489 43.5,42.9375 43.5,42.9375 C 43.5,42.937499 41.3774,47.57953 40.96875,47.75 C 40.834678,47.806031 42.6875,47.625 42.6875,47.625 L 40.78125,51.5 C 40.781252,51.5 41.7407,53.70474 42.9375,54.84375 C 43.777879,55.643589 40.5,54.9375 40.5,54.9375 C 40.499999,54.9375 40.75562,55.36835 41.125,56.03125 L 45.84375,56.03125 C 45.1606,54.576761 44.63334,53.3095 44.6875,53 L 46.46875,53.21875 C 46.468751,53.218749 44.08322,48.09359 43.90625,47.53125 C 43.879048,47.444941 45.71875,47.875 45.71875,47.875 L 44.09375,43.09375 L 45.21875,43.34375 L 43.875,40.0625 z"
       transform="translate(313.62286,485.44211)"
       id="path2948"
       style="fill:#007b50;fill-opacity:1;fill-rule:nonzero;stroke:none" />
    <path
       d="M 390.37832,539.74291 L 389.52173,541.48487 L 393.84065,541.48487 L 393.23564,539.07168 L 395.11258,539.20033 L 393.51592,534.21513 L 395.00959,534.49048 L 392.95597,529.37722 L 394.95669,529.70817 L 392.39539,524.58768 L 389.5752,530.06655 L 391.69527,529.60863 L 388.42205,535.34862 L 390.8263,534.71758 L 387.81026,540.18653 L 390.37832,539.74291 z"
       id="path2950"
       style="fill:none;stroke:#00a870;stroke-width:0.2814233;stroke-linecap:butt;stroke-linejoin:miter;stroke-miterlimit:4;stroke-dasharray:none;stroke-opacity:1" />
    <path
       d="M 398.31942,541.48487 L 404.86028,541.48487 C 404.38697,539.79403 403.97049,538.24936 403.93165,537.91626 L 405.79903,538.627 C 405.79903,538.627 403.65138,533.05142 403.83823,531.80692 L 405.7056,532.16255 C 405.7056,532.16255 402.95633,525.42765 403.14318,524.62781 L 404.50177,524.8944 C 404.50177,524.8944 402.72727,521.43792 402.44755,520.72711 L 399.55252,525.66343 L 401.5043,524.99278 C 401.5043,524.99278 398.78654,531.6293 398.13313,532.25161 L 400.22899,531.50067 C 400.22899,531.50067 398.35205,537.20551 397.1381,538.18288 L 399.28574,537.8272 C 399.35834,538.24057 398.89122,539.79951 398.31942,541.48487 z"
       id="path2954"
       style="fill:none;stroke:#00a870;stroke-width:0.2814233;stroke-linecap:butt;stroke-linejoin:miter;stroke-miterlimit:4;stroke-dasharray:none;stroke-opacity:1" />
    <path
       d="M 408.40254,541.48487 L 410.30424,541.48487 L 414.29562,541.48487 L 411.5362,548.72056 L 416.3245,548.72056 C 416.91263,547.3972 418.09958,545.66798 420.40818,544.88218 L 420.1808,544.4178 L 420.17743,544.14367 L 420.04292,544.13636 L 418.35399,540.68231 L 421.27545,541.24746 C 421.27545,541.24746 417.6679,534.03045 417.77484,533.77483 L 420.66988,534.39707 C 420.66988,534.39707 415.66434,526.87166 416.03804,526.16091 L 418.79744,526.50718 C 418.79744,526.50718 415.46849,520.22526 415.65534,520.04717 L 418.04048,520.49186 C 418.04048,520.49186 415.1252,514.03972 415.1252,513.95068 L 411.60993,520.32308 L 414.33613,519.91305 C 414.33613,519.91305 411.79228,527.65498 410.67174,528.01061 L 413.04788,527.41867 C 413.04788,527.41867 409.27994,534.35526 408.06654,534.79945 L 411.64483,534.20801 C 411.64483,534.20801 409.96374,538.07843 408.40254,541.48487 z"
       id="path2958"
       style="fill:none;stroke:#00a870;stroke-width:0.2814233;stroke-linecap:butt;stroke-linejoin:miter;stroke-miterlimit:4;stroke-dasharray:none;stroke-opacity:1" />
    <path
       d="M 354.13573,540.36466 C 354.13573,540.36466 354.37011,540.82197 354.73949,541.48487 L 359.47023,541.48487 C 358.78708,540.03038 358.24573,538.74852 358.29989,538.43902 L 360.08553,538.64573 C 360.08553,538.64573 357.7016,533.5423 357.52463,532.97996 C 357.49743,532.89365 359.33722,533.32682 359.33722,533.32682 L 357.71839,528.53726 L 358.8459,528.77527 L 357.5004,525.51612 C 357.64032,525.11702 356.11379,528.22338 355.69359,528.62357 C 355.65842,528.65656 357.111,528.39322 357.111,528.39322 C 357.111,528.39322 354.98487,533.03653 354.57622,533.207 C 354.44215,533.26303 356.32043,533.0734 356.32043,533.0734 L 354.40888,536.95265 C 354.40888,536.95265 355.37617,539.13217 356.57297,540.27118 C 357.41335,541.07102 354.13573,540.36466 354.13573,540.36466 z"
       id="path2962"
       style="fill:none;stroke:#00a870;stroke-width:0.2814233;stroke-linecap:butt;stroke-linejoin:miter;stroke-miterlimit:4;stroke-dasharray:none;stroke-opacity:1" />
    <path
       d="M 328.37064,544.08062 C 329.40741,544.24158 330.7702,544.63226 332.2069,545.59535 L 339.38366,542.74826 L 336.82142,548.70536 L 339.1218,547.78503 L 340.56122,551.06613 L 342.00061,547.78503 L 343.6544,548.447 L 341.27682,541.48487 L 343.04986,541.48487 L 339.43284,536.73715 L 342.0765,537.41058 C 342.0765,537.41058 338.32072,532.37307 337.80738,531.12857 C 337.80738,531.12857 339.75382,531.60841 340.03388,531.34185 C 340.03388,531.34185 335.86757,525.55623 336.42762,524.49037 L 338.318,525.02356 C 338.318,525.02356 334.89117,519.00053 335.17123,518.0671 C 335.17123,518.0671 336.94314,518.61732 337.8978,518.69378 L 334.89117,512.76111 C 334.89117,512.76111 332.50997,517.69277 330.54923,518.75921 C 330.54923,518.75921 332.93016,518.49205 333.91065,517.82583 C 333.91065,517.82583 331.6279,524.18362 330.64738,524.98343 L 333.2105,524.49037 C 333.2105,524.49037 330.54923,530.84768 328.58853,531.91406 L 332.08984,530.88781 C 332.08984,530.88781 328.19173,538.56765 326.93115,539.36746 C 326.93115,539.36746 330.42092,538.72601 331.8216,537.9262 C 331.8216,537.9262 329.80756,541.53876 328.37064,544.08062 z"
       id="path2966"
       style="fill:none;stroke:#00a870;stroke-width:0.2814233;stroke-linecap:butt;stroke-linejoin:miter;stroke-miterlimit:4;stroke-dasharray:none;stroke-opacity:1" />
    <path
       d="M 344.80967,534.39817 C 344.80967,534.39817 347.21642,538.27188 347.91661,539.871 L 345.82756,539.73793 C 345.82756,539.73793 346.2057,540.48446 346.74846,541.48487 L 351.03811,541.48487 L 349.50364,538.16142 C 349.48823,538.16583 352.20633,538.47477 352.15905,538.36485 L 348.51896,531.30116 C 348.51896,531.30116 350.60173,531.79863 350.42338,531.43422 C 349.80755,530.17431 348.26892,525.02356 348.12878,525.02356 L 349.71385,525.11483 L 347.90507,521.47805 C 347.90507,521.47805 346.65637,524.14403 345.81574,524.67672 C 344.97542,525.21047 347.2046,524.67672 347.2046,524.67672 C 347.2046,524.67672 344.97542,530.87515 343.99518,531.4078 C 343.99518,531.4078 345.6187,531.10437 346.37607,531.00873 L 344.80967,534.39817 z"
       id="path2970"
       style="fill:none;stroke:#00a870;stroke-width:0.2814233;stroke-linecap:butt;stroke-linejoin:miter;stroke-miterlimit:4;stroke-dasharray:none;stroke-opacity:1" />
    <path
       d="M 372.71653,527.98043 C 372.71653,527.98043 372.62592,527.528 372.39971,527.34658 C 372.1729,527.1658 372.03723,527.02998 371.76596,527.12071 C 371.76596,527.12071 371.08723,527.43458 371.08723,529.02153 C 371.08723,530.24408 371.76596,530.6509 371.76596,530.6509 C 371.76596,530.6509 371.49413,529.29307 371.85661,528.70437 C 372.21846,528.11616 372.71653,527.98043 372.71653,527.98043"
       id="path2972"
       style="fill:#ffffff;fill-opacity:1;fill-rule:nonzero;stroke:none" />
    <path
       d="M 373.07225,537.53802 C 373.07225,537.53802 373.2349,537.50347 373.2349,538.09276 C 373.2349,538.68145 372.8764,538.92718 372.72892,538.92718 C 372.58202,538.92718 371.89485,538.5847 371.89485,537.30721 C 371.89485,536.52218 372.18919,536.08025 372.38561,535.83508 C 372.38561,535.83508 372.0423,537.43967 373.07225,537.53802"
       id="path2974"
       style="fill:#ffffff;fill-opacity:1;fill-rule:nonzero;stroke:none" />
    <path
       d="M 377.34556,527.98043 C 377.34556,527.98043 377.43617,527.528 377.66242,527.34658 C 377.88866,527.1658 378.02486,527.02998 378.29613,527.12071 C 378.29613,527.12071 378.97487,527.43458 378.97487,529.02153 C 378.97487,530.24408 378.29613,530.6509 378.29613,530.6509 C 378.29613,530.6509 378.56796,529.29307 378.20552,528.70437 C 377.84364,528.11616 377.34556,527.98043 377.34556,527.98043"
       id="path2976"
       style="fill:#ffffff;fill-opacity:1;fill-rule:nonzero;stroke:none" />
    <path
       d="M 376.11756,528.33556 C 375.75509,527.97325 375.25701,528.15412 375.03077,528.38062 C 374.80508,528.15412 374.30701,527.97325 373.94456,528.33556 C 373.76334,527.97325 372.99456,527.7919 372.85836,528.10902 C 372.85836,528.10902 372.85836,528.83303 373.31141,529.28597 C 373.31141,529.28597 373.58268,528.69725 373.80893,528.65216 C 373.80893,528.65216 374.26142,529.24087 374.44267,529.46735 L 375.03077,528.74281 L 375.61945,529.46735 C 375.80068,529.24087 376.25317,528.65216 376.25317,528.65216 C 376.47941,528.69725 376.75068,529.28597 376.75068,529.28597 C 377.20317,528.83303 377.20317,528.10902 377.20317,528.10902 C 377.06757,527.7919 376.29819,527.97325 376.11756,528.33556"
       id="path2978"
       style="fill:#ffffff;fill-opacity:1;fill-rule:nonzero;stroke:none" />
    <path
       d="M 376.50699,538.09276 C 376.50699,538.09276 376.40906,539.02497 375.82037,539.0745 L 375.4281,538.38736 L 375.08426,539.12338 L 374.74092,538.38736 L 374.34868,539.0745 C 373.7594,539.02497 373.66147,538.09276 373.66147,538.09276 C 373.66147,538.09276 373.34124,538.9552 373.80836,539.51591 C 374.05375,539.81052 374.39705,539.51591 374.39705,539.51591 C 374.39705,539.51591 374.69196,539.76157 375.08426,539.56537 C 375.4771,539.76157 375.77141,539.51591 375.77141,539.51591 C 375.77141,539.51591 376.11472,539.81052 376.3601,539.51591 C 376.82722,538.9552 376.50699,538.09276 376.50699,538.09276"
       id="path2980"
       style="fill:#ffffff;fill-opacity:1;fill-rule:nonzero;stroke:none" />
    <path
       d="M 377.09627,537.53802 C 377.09627,537.53802 376.93415,537.50347 376.93415,538.09276 C 376.93415,538.68145 377.29213,538.92718 377.43955,538.92718 C 377.58647,538.92718 378.27362,538.5847 378.27362,537.30721 C 378.27362,536.52218 377.97927,536.08025 377.78342,535.83508 C 377.78342,535.83508 378.12673,537.43967 377.09627,537.53802"
       id="path2982"
       style="fill:#ffffff;fill-opacity:1;fill-rule:nonzero;stroke:none" />
    <path
       d="M 368.96391,557.35362 L 369.06418,553.64025 C 369.47931,553.60532 369.82093,553.69091 370.07419,553.90818 C 370.44789,554.2296 370.56439,554.75587 370.55147,555.03116 C 370.51317,555.82933 370.24641,557.1234 368.96391,557.35362 z M 386.71786,553.46293 L 387.20415,553.231 L 386.80341,552.87133 L 382.76026,549.23842 L 381.72527,557.24948 L 380.03462,552.55781 L 378.3434,557.24948 L 377.30785,549.23842 L 373.36994,552.77733 C 373.06775,552.02643 372.63718,551.51532 372.29275,551.2018 C 371.77159,550.72727 371.18068,550.4554 370.80189,550.50268 L 354.58285,550.50268 L 356.4378,553.4286 L 356.92528,567.87582 L 363.29273,567.87582 L 365.10564,561.64741 L 362.01662,564.48665 L 360.03222,564.86491 L 360.0814,559.65871 L 361.66046,560.83065 L 364.33454,557.21237 L 360.08331,557.21237 L 360.03412,553.52486 L 361.94952,553.93521 L 363.12374,556.04887 L 364.78962,552.18122 L 365.30133,553.17023 L 365.66737,567.87582 L 368.45526,567.87582 L 368.78804,561.60462 L 375.10055,568.30193 L 376.24585,569.35908 L 375.68755,567.90337 L 371.7806,559.55961 C 373.18535,558.08767 373.5416,556.54872 373.55736,556.47836 C 373.80558,555.31148 373.78138,554.35966 373.61701,553.59015 L 374.44717,553.98473 L 377.51721,569.01847 L 380.03462,563.10248 L 382.55146,569.01847 L 385.62153,553.98473 L 386.71786,553.46293"
       id="path2984"
       style="fill:#ffffff;fill-opacity:1;fill-rule:nonzero;stroke:none" />
    <path
       d="M 390.1605,564.37012 C 390.0153,564.51478 389.87292,564.5885 389.73784,564.5885 C 389.60224,564.5885 389.46039,564.51478 389.31522,564.37012 C 388.8188,563.87365 388.31847,562.52383 388.31847,560.62688 C 388.31847,558.38037 389.03209,557.20502 389.73784,557.20502 C 389.93877,557.20502 390.1318,557.29625 390.31247,557.47637 C 390.84149,558.00548 391.15723,559.18306 391.15723,560.62688 C 391.15723,562.52383 390.6569,563.87365 390.1605,564.37012 z M 389.67765,553.53105 C 388.59424,553.53105 387.61328,553.93858 386.84224,554.70975 C 385.69132,555.86086 385.08293,557.72063 385.08293,560.08763 C 385.08293,562.85707 385.9457,565.44018 387.33469,566.82885 C 388.03707,567.5319 388.8475,567.90281 389.67765,567.90281 C 392.25415,567.90281 394.27235,564.47032 394.27235,560.08763 C 394.27235,557.72063 393.66453,555.86086 392.5136,554.70975 C 391.74254,553.93858 390.76214,553.53105 389.67765,553.53105"
       id="path2986"
       style="fill:#ffffff;fill-opacity:1;fill-rule:nonzero;stroke:none" />
    <path
       d="M 422.1371,552.73623 C 422.1371,552.73623 421.63227,551.86657 421.84613,551.06895 C 422.01328,550.44413 422.49898,549.70393 423.85927,549.72363 C 424.53409,549.73377 425.08617,549.95555 425.50095,550.38278 C 426.44087,551.35096 426.42567,553.07003 426.42507,553.08692 L 426.40428,554.25548 L 431.25333,546.62547 L 428.2823,548.07826 C 427.71729,547.46527 425.85777,545.8605 422.181,546.31137 C 418.78563,546.72905 417.82549,549.56546 417.59699,550.51787 L 408.65579,550.51787 L 409.75607,552.25215 L 406.41417,549.50636 L 404.74997,558.74851 L 403.08577,549.50636 L 398.46855,553.29913 L 398.62783,550.05743 L 392.73025,551.99997 L 394.35449,554.04835 L 394.89534,567.87582 L 400.9792,567.87582 L 401.91743,563.69633 L 397.88099,565.29887 L 398.46237,553.43476 L 400.12319,554.04385 L 404.74997,569.09956 L 409.37618,554.04385 L 410.517,553.62502 L 410.99877,567.89046 L 417.36568,567.89046 L 419.17903,561.66261 L 416.08982,564.50185 L 414.10539,564.87955 L 414.15492,559.6745 L 415.73357,560.84585 L 418.40799,557.22757 L 414.15604,557.22757 L 414.10764,553.53948 L 416.02284,553.95037 L 417.19913,556.06797 L 417.81593,554.61575 C 417.87558,554.77673 417.91779,554.87242 417.92173,554.88142 L 417.89978,554.81726 C 418.01853,555.31486 421.19498,559.11101 421.19498,559.11101 C 421.59569,559.52583 423.23287,561.39636 424.5431,563.25225 C 426.45772,567.02476 424.34553,568.61435 424.16997,568.73705 C 423.59028,569.07085 423.11243,569.12095 422.7089,568.89012 C 421.28558,568.07337 420.95297,564.0853 420.94453,562.61671 L 420.9327,560.40682 L 416.99312,572.40821 L 420.02773,570.72801 C 421.32329,572.42851 423.88125,572.18475 423.88125,572.18475 L 423.90429,572.17915 C 426.99463,571.43162 428.8018,569.23465 429.43042,565.46382 C 430.08158,561.55566 427.33962,558.67082 427.23494,558.56331 L 422.1371,552.73623"
       id="path2988"
       style="fill:#ffffff;fill-opacity:1;fill-rule:nonzero;stroke:none" />
    <path
       d="M 336.02231,546.0153 L 331.94085,547.63361 C 329.937,545.96741 328.0455,545.7665 326.78473,545.7665 C 325.52393,545.7665 323.63243,545.96741 321.62858,547.63361 L 317.54684,546.0153 L 320.25316,552.30618 L 324.26089,550.38897 L 326.42688,572.40431 L 326.78473,574.42227 L 327.1422,572.40431 L 329.30854,550.38897 L 333.3163,552.30618 L 336.02231,546.0153"
       id="path2990"
       style="fill:#ffffff;fill-opacity:1;fill-rule:nonzero;stroke:none" />
    <path
       d="M 330.74684,552.38331 L 330.21481,552.17953 L 330.25989,552.7475 L 331.45775,567.8443 L 331.77214,569.23408 L 332.17004,567.87807 L 334.56609,554.15867 L 334.61693,553.86766 L 334.34075,553.76183 L 330.74684,552.38331"
       id="path2992"
       style="fill:#ffffff;fill-opacity:1;fill-rule:nonzero;stroke:none" />
    <path
       d="M 350.92352,557.64748 L 350.92352,553.76236 C 351.5971,553.81362 352.29478,553.9915 352.42232,555.56362 C 352.53116,556.90785 351.51846,557.44766 350.92352,557.64748 z M 352.42119,562.82945 C 352.38361,563.77515 352.13023,564.46412 351.66851,564.87898 C 351.38908,565.12891 351.08702,565.23078 350.86365,565.27241 L 350.86365,560.8132 C 351.13488,560.78958 351.56136,560.80645 351.88891,561.06876 C 352.2764,561.38003 352.45559,561.9722 352.42119,562.82945 z M 356.01486,554.8758 C 356.01486,551.93637 353.48664,550.45765 351.77763,550.38335 C 350.40306,550.32312 346.41043,550.43795 346.24115,550.44301 L 345.57502,550.46215 L 346.24419,551.41903 L 342.94756,550.09965 L 340.56122,555.53888 L 338.17511,550.09965 L 333.79359,551.8525 L 335.41689,553.75846 L 336.18905,568.43418 L 336.48862,569.8088 L 336.8953,568.50742 L 338.84809,561.18415 L 340.56122,563.72617 L 342.27432,561.18415 L 344.22711,568.50742 L 344.70909,569.85327 L 344.93339,568.43418 L 345.70552,553.75846 L 346.90013,552.35628 L 347.15267,552.71595 L 347.50964,567.76493 L 347.51624,568.04976 L 347.79601,568.1083 C 347.97273,568.1443 352.14724,568.97856 354.12141,566.86321 C 355.24129,565.66252 355.83345,563.50158 355.52926,561.72343 C 355.33087,560.5644 354.79058,559.65248 353.96123,559.05078 C 354.68753,558.46481 356.01486,557.0936 356.01486,554.8758"
       id="path2994"
       style="fill:#ffffff;fill-opacity:1;fill-rule:nonzero;stroke:none" />
    <path
       d="M 389.16885,500.10182 L 386.71955,497.68695 C 388.70117,497.46018 390.62538,497.08227 392.14213,496.70297 L 391.18087,495.19488 C 393.66394,492.84408 395.55719,491.22658 395.74745,491.08696 C 397.60917,489.3884 397.19494,490.12331 397.21242,490.12497 C 397.18932,490.12275 396.06374,496.70297 392.82312,501.567 C 394.74904,502.47347 395.96579,503.77573 395.96579,503.77573 C 395.84254,503.76663 392.68129,503.60586 390.98219,504.17235 L 391.32213,504.34222 C 391.36324,504.36558 395.59884,507.22013 397.38179,509.15758 C 396.35299,509.12845 394.32354,509.01573 393.3043,509.18561 C 392.68185,509.28921 390.95293,509.52528 390.95293,509.52528 C 391.32719,509.87221 393.72697,511.7722 394.18172,512.1595 C 396.5449,514.17385 398.97789,516.90341 400.42317,521.55716 C 400.6055,521.18831 400.78729,520.81673 400.96402,520.44788 C 399.8159,516.5774 397.8596,513.90235 395.78175,512.13148 C 395.53187,511.91848 394.11249,510.40427 393.88455,510.20501 C 393.88455,510.20501 396.81562,510.00712 399.64763,510.46031 C 398.68468,508.76097 395.2561,505.60485 393.81364,504.73885 C 395.20939,504.45515 398.03295,504.51231 398.03295,504.51231 C 396.67379,502.30307 394.01232,501.34056 394.01232,501.34056 C 397.04355,496.64146 398.47757,489.10528 398.47757,489.10528 C 398.47757,488.93732 398.38808,488.69935 398.13767,488.58086 C 397.778,488.41098 397.15498,488.90105 395.26117,490.46083 C 395.21783,490.49191 389.03773,494.99647 384.96024,496.35582 L 385.68682,496.1849 C 383.99279,496.8366 383.23642,496.92287 382.54305,497.2694 C 384.95011,497.55257 386.90359,499.11037 389.16885,500.10182"
       id="path2996"
       style="fill:#134a7f;fill-opacity:1;fill-rule:nonzero;stroke:none" />
    <path
       d="M 389.16885,500.10182 L 386.71955,497.68695 C 388.70117,497.46018 390.62538,497.08227 392.14213,496.70297 L 391.18087,495.19488 C 393.66394,492.84408 395.55719,491.22658 395.74745,491.08696 C 397.60917,489.3884 397.19494,490.12331 397.21242,490.12497 C 397.18932,490.12275 396.06374,496.70297 392.82312,501.567 C 394.74904,502.47347 395.96579,503.77573 395.96579,503.77573 C 395.84254,503.76663 392.68129,503.60586 390.98219,504.17235 L 391.32213,504.34222 C 391.36324,504.36558 395.59884,507.22013 397.38179,509.15758 C 396.35299,509.12845 394.32354,509.01573 393.3043,509.18561 C 392.68185,509.28921 390.95293,509.52528 390.95293,509.52528 C 391.32719,509.87221 393.72697,511.7722 394.18172,512.1595 C 396.5449,514.17385 398.97789,516.90341 400.42317,521.55716 C 400.6055,521.18831 400.78729,520.81673 400.96402,520.44788 C 399.8159,516.5774 397.8596,513.90235 395.78175,512.13148 C 395.53187,511.91848 394.11249,510.40427 393.88455,510.20501 C 393.88455,510.20501 396.81562,510.00712 399.64763,510.46031 C 398.68468,508.76097 395.2561,505.60485 393.81364,504.73885 C 395.20939,504.45515 398.03295,504.51231 398.03295,504.51231 C 396.67379,502.30307 394.01232,501.34056 394.01232,501.34056 C 397.04355,496.64146 398.47757,489.10528 398.47757,489.10528 C 398.47757,488.93732 398.38808,488.69935 398.13767,488.58086 C 397.778,488.41098 397.15498,488.90105 395.26117,490.46083 C 395.21783,490.49191 389.03773,494.99647 384.96024,496.35582 L 385.68682,496.1849 C 383.99279,496.8366 383.23642,496.92287 382.54305,497.2694 C 384.95011,497.55257 386.90359,499.11037 389.16885,500.10182 z"
       id="path2998"
       style="fill:none;stroke:#2076c6;stroke-width:0.2814233;stroke-linecap:butt;stroke-linejoin:miter;stroke-miterlimit:4;stroke-dasharray:none;stroke-opacity:1" />
    <path
       d="M 13.15625,60.78125 C 11.93113,60.78125 10.07917,60.95407 8.125,62.65625 L 8.09375,62.71875 L 8.03125,62.6875 L 4.75,61.375 L 6.84375,66.25 L 10.90625,64.3125 L 11.03125,64.28125 L 11.03125,64.40625 L 13.15625,86.03125 L 15.28125,64.40625 L 15.3125,64.28125 L 15.40625,64.3125 L 19.46875,66.25 L 21.5625,61.375 L 18.28125,62.6875 L 18.25,62.71875 L 18.1875,62.65625 C 16.233389,60.954069 14.38106,60.78125 13.15625,60.78125 z M 109.84375,61.25 C 109.45476,61.246543 109.06342,61.258673 108.625,61.3125 C 104.89814,61.770701 104.34882,65.40035 104.34375,65.4375 L 104.34375,65.53125 L 104.28125,65.53125 L 95.84375,65.53125 L 97.3125,67.84375 L 97.34375,67.875 L 97.8125,82 L 103.40625,82 L 104.6875,77.625 L 102.6875,79.46875 L 102.65625,79.46875 L 100.125,79.96875 L 100.03125,79.96875 L 100.03125,79.875 L 100.09375,73.53125 L 100.09375,73.34375 L 100.21875,73.4375 L 102.03125,74.78125 L 103.90625,72.21875 L 100.1875,72.21875 L 100.09375,72.21875 L 100.09375,72.15625 L 100.03125,67.65625 L 100.03125,67.53125 L 100.125,67.5625 L 102.65625,68.09375 L 102.6875,68.125 L 102.71875,68.15625 L 103.53125,69.59375 L 104.1875,68.0625 L 104.28125,67.8125 L 104.34375,68.0625 C 104.5103,68.776807 104.71705,69.24496 104.71875,69.25 L 104.71875,69.28125 C 104.79754,69.612799 106.52814,71.82925 107.6875,73.25 C 108.66058,74.021129 111.20557,77.41727 111.3125,77.5625 L 111.3125,77.59375 C 112.44206,79.804831 112.24085,81.32037 111.875,82.21875 C 111.47598,83.198749 110.8139,83.66615 110.78125,83.6875 C 110.05749,84.106322 109.42316,84.15837 108.875,83.84375 C 107.26429,82.92001 106.93297,79.0846 106.875,77.6875 L 104.15625,86.03125 L 106.46875,84.75 L 106.53125,84.6875 L 106.59375,84.78125 C 107.65069,86.515001 110.0603,86.32319 110.1875,86.3125 C 113.08087,85.609979 114.77955,83.51016 115.375,79.9375 C 115.98901,76.25223 113.31108,73.43774 113.28125,73.40625 C 113.28125,73.406246 108.24437,67.65059 108.25,67.65625 C 107.8521,67.283582 107.51513,66.09484 107.90625,65.125 C 108.14825,64.525522 108.75183,63.82123 110.25,63.84375 C 111.04865,63.855009 111.68663,64.10774 112.1875,64.625 C 113.01762,65.482893 113.21454,66.79972 113.25,67.375 L 116.46875,62.1875 L 114.59375,63.15625 L 114.53125,63.1875 L 114.46875,63.125 C 114.0807,62.558071 112.5667,61.274201 109.84375,61.25 z M 63.34375,64.6875 L 60.03125,67.6875 L 61.1875,68.21875 L 61.21875,68.25 L 61.21875,68.28125 L 64.03125,82.09375 L 66.34375,76.71875 L 66.40625,76.53125 L 66.5,76.71875 L 68.78125,82.09375 L 71.59375,68.28125 L 71.59375,68.25 L 71.65625,68.21875 L 72.78125,67.6875 L 69.46875,64.6875 L 68.34375,73.34375 L 68.3125,73.6875 L 68.1875,73.34375 L 66.40625,68.4375 L 64.625,73.34375 L 64.5,73.6875 L 64.46875,73.34375 L 63.34375,64.6875 z M 89.15625,64.90625 L 85.625,67.8125 L 86.8125,68.25 L 86.875,68.25 L 86.875,68.3125 L 91.125,82.125 L 95.375,68.3125 L 95.40625,68.25 L 95.4375,68.25 L 96.625,67.8125 L 93.09375,64.90625 L 91.21875,75.34375 L 91.125,75.84375 L 91.03125,75.34375 L 89.15625,64.90625 z M 24.3125,65.21875 L 20.90625,66.59375 L 22.21875,68.125 L 22.21875,68.15625 L 22.96875,82.40625 L 25,74.875 L 25.03125,74.6875 L 25.15625,74.84375 L 26.9375,77.46875 L 28.71875,74.84375 L 28.84375,74.6875 L 28.875,74.875 L 30.90625,82.40625 L 31.65625,68.15625 L 31.65625,68.125 L 32.96875,66.59375 L 29.5625,65.21875 L 27.03125,71.03125 L 26.9375,71.21875 L 26.84375,71.03125 L 24.3125,65.21875 z M 84.53125,65.25 L 79.84375,66.78125 L 81.15625,68.40625 L 81.1875,68.4375 L 81.1875,68.46875 L 81.6875,82 L 87,82 L 87.6875,78.96875 L 83.90625,80.46875 L 83.78125,80.53125 L 83.78125,80.40625 L 84.53125,65.25 z M 35.3125,65.375 C 34.224719,65.39267 33.16913,65.42709 32.78125,65.4375 L 33.96875,67.09375 L 33.96875,67.125 L 33.96875,67.15625 L 34.34375,82.25 C 34.879881,82.346851 38.47967,82.92119 40.15625,81.125 C 41.18842,80.018388 41.75128,77.99473 41.46875,76.34375 C 41.32223,75.487601 40.88653,74.36158 39.65625,73.71875 L 39.53125,73.625 L 39.65625,73.5625 C 39.679109,73.548999 41.9375,72.1681 41.9375,69.4375 C 41.937501,66.695607 39.45343,65.43245 38.125,65.375 C 37.522635,65.348541 36.400281,65.35733 35.3125,65.375 z M 41.78125,65.5 L 43.25,67.84375 L 43.25,67.875 L 43.75,82 L 49.34375,82 L 50.59375,77.625 L 48.625,79.4375 L 48.59375,79.46875 L 48.5625,79.46875 L 46.0625,79.9375 L 45.96875,79.96875 L 45.96875,79.84375 L 46.03125,73.5 L 46.03125,73.34375 L 46.15625,73.4375 L 47.9375,74.75 L 49.8125,72.21875 L 46.09375,72.21875 L 46.03125,72.21875 L 46.03125,72.125 L 45.96875,67.625 L 45.96875,67.53125 L 46.0625,67.5625 L 48.59375,68.09375 L 48.625,68.09375 L 48.625,68.125 L 49.4375,69.59375 L 51.0625,65.875 L 51.125,65.6875 L 51.21875,65.84375 L 52.125,67.59375 L 52.125,67.625 L 52.46875,82 L 54.40625,82 L 54.75,75.3125 L 54.78125,75.09375 L 54.90625,75.25 L 61.4375,82.15625 L 57.65625,74.09375 L 57.625,74.03125 L 57.65625,73.96875 C 59.116148,72.536751 59.49662,70.95269 59.5,70.9375 C 60.09319,68.150053 59.05092,66.709 58.375,66.09375 C 57.83415,65.60123 57.34707,65.4595 57.21875,65.5 L 57.1875,65.5 L 41.78125,65.5 z M 17.09375,67.40625 L 18.21875,81.6875 L 20.5,68.71875 L 17.09375,67.40625 z M 55.5625,67.75 C 56.030866,67.739732 56.43596,67.854783 56.75,68.125 C 57.214341,68.523497 57.39582,69.18988 57.375,69.625 C 57.335569,70.452417 57.01937,72.37642 54.96875,72.40625 L 54.875,72.40625 L 54.875,72.3125 L 55,67.875 L 55,67.8125 L 55.0625,67.78125 C 55.234733,67.746495 55.406378,67.753423 55.5625,67.75 z M 36.84375,67.84375 L 36.9375,67.84375 C 36.995469,67.848813 37.05934,67.87162 37.125,67.875 C 37.850512,67.917793 39.07881,67.9829 39.25,70.09375 C 39.434099,72.366152 36.99345,72.74662 36.96875,72.75 L 36.84375,72.78125 L 36.84375,72.65625 L 36.84375,67.9375 L 36.84375,67.84375 z M 76.0625,68.53125 C 75.100093,68.531247 74.21674,68.90813 73.53125,69.59375 C 72.465867,70.658728 71.90625,72.41084 71.90625,74.65625 C 71.906249,77.311417 72.72327,79.7549 74.03125,81.0625 C 74.64751,81.680001 75.35335,82 76.0625,82 C 78.349733,82.000003 80.1875,78.71918 80.1875,74.65625 C 80.187504,72.410837 79.62732,70.65873 78.5625,69.59375 C 77.877013,68.908128 77.02543,68.53125 76.0625,68.53125 z M 76.125,71.3125 C 76.444107,71.312503 76.73661,71.45532 77,71.71875 C 77.620182,72.338472 77.96875,73.60408 77.96875,75.1875 C 77.968751,76.967901 77.52868,78.56496 76.84375,79.25 C 76.611917,79.481878 76.38333,79.59375 76.125,79.59375 C 75.866677,79.59375 75.60688,79.48188 75.375,79.25 C 74.69007,78.564958 74.25,76.96849 74.25,75.1875 C 74.250003,72.873441 75.00844,71.3125 76.125,71.3125 z M 37.4375,74.90625 C 37.765749,74.911532 38.181565,75.003745 38.53125,75.28125 C 39.039118,75.684878 39.29043,76.39585 39.25,77.40625 C 39.20685,78.484747 38.90602,79.28368 38.34375,79.78125 C 37.682302,80.36556 36.90715,80.31531 36.875,80.3125 L 36.78125,80.3125 L 36.78125,80.21875 L 36.78125,75.0625 L 36.78125,75 L 36.84375,74.96875 C 36.863681,74.962824 37.109251,74.900968 37.4375,74.90625 z"
       transform="translate(313.62286,485.44211)"
       id="path3000"
       style="fill:#134a7f;fill-opacity:1;fill-rule:nonzero;stroke:none" />
    <path
       d="M 34.21875,58.03125 L 33.15625,62.65625 L 34.15625,62.8125 L 34.5,60.625 L 35.4375,62.8125 L 36.46875,60.59375 L 36.8125,62.8125 L 37.78125,62.65625 L 36.75,58.03125 L 36.71875,58.03125 L 35.46875,60.8125 L 34.25,58.03125 L 34.21875,58.03125 z M 42.59375,58.03125 L 41.65625,58.125 L 41.65625,62.75 L 42.59375,62.65625 L 42.59375,58.03125 z M 46.875,58.03125 L 46.875,62.75 L 47.84375,62.65625 L 47.84375,60.1875 L 50.375,62.8125 L 50.375,58.03125 L 49.40625,58.125 L 49.40625,60.59375 L 46.875,58.03125 z M 54.625,58.03125 L 54.625,62.75 L 55.59375,62.65625 L 55.59375,60.1875 L 58.125,62.8125 L 58.125,58.03125 L 57.1875,58.125 L 57.1875,60.59375 L 54.625,58.03125 z M 70.25,58.03125 C 69.54931,58.03125 68.843747,58.532952 68.84375,59.4375 C 68.84375,61.07387 70.562503,60.632819 70.5625,61.34375 C 70.5625,61.63702 70.260609,61.75 70.0625,61.75 C 69.77438,61.75 69.524412,61.652239 69.34375,61.40625 L 68.75,62.25 C 69.11751,62.6226 69.61309,62.812502 70.09375,62.8125 C 70.90246,62.8125 71.59375,62.305711 71.59375,61.28125 C 71.59375,59.60495 69.843747,60.068779 69.84375,59.34375 C 69.84375,59.10398 70.11185,59.000002 70.28125,59 C 70.58125,59 70.748143,59.11693 70.96875,59.34375 L 71.5,58.5625 C 71.15503,58.22982 70.696862,58.031251 70.25,58.03125 z M 77.625,58.03125 C 76.49436,58.03125 75.562499,59.0756 75.5625,60.40625 C 75.5625,61.7364 76.494361,62.812502 77.625,62.8125 C 78.75622,62.8125 79.687501,61.7364 79.6875,60.40625 C 79.6875,59.0756 78.756221,58.031251 77.625,58.03125 z M 91.875,58.03125 L 89.8125,62.5625 L 90.71875,62.8125 L 91.125,61.8125 L 92.59375,61.8125 L 93,62.8125 L 93.96875,62.5625 L 91.875,58.03125 z M 62.40625,58.125 L 62.40625,62.6875 L 64.65625,62.6875 L 64.875,61.71875 L 63.375,61.71875 L 63.375,60.84375 L 64.375,60.84375 L 64.375,59.875 L 63.375,59.875 L 63.375,59.09375 L 64.75,59.09375 L 64.59375,58.125 L 62.40625,58.125 z M 83.6875,58.125 L 83.4375,59.15625 L 84.4375,59.15625 L 84.4375,62.75 L 85.375,62.65625 L 85.375,59.15625 L 86.3125,59.15625 L 86.3125,58.125 L 83.6875,58.125 z M 77.625,59.0625 C 78.2362,59.0625 78.718752,59.70774 78.71875,60.40625 C 78.71875,61.10428 78.236201,61.75 77.625,61.75 C 77.01439,61.75 76.500003,61.10428 76.5,60.40625 C 76.5,59.70774 77.014391,59.0625 77.625,59.0625 z M 91.875,59.875 L 92.375,60.96875 L 91.34375,60.96875 L 91.875,59.875 z"
       transform="translate(313.62286,485.44211)"
       id="path3020"
       style="fill:#c9cfd2;fill-opacity:1;fill-rule:nonzero;stroke:none" />
  </g>
</svg>
