<?xml version="1.0" encoding="UTF-8" standalone="no"?>
<svg
   xmlns:svg="http://www.w3.org/2000/svg"
   xmlns="http://www.w3.org/2000/svg"
   version="1.1"
   width="349.67178"
   height="474.42218"
   viewBox="0 0 350 475"
   id="svg3170">
  <defs
     id="defs3172" />
  <g
     transform="translate(-175.16417,-295.15087)"
     id="layer1">
    <path
       d="m 418.62875,737.75975 c 0,13.16721 8.50253,19.82103 19.4232,19.82103 13.25303,0 20.63229,-6.56022 20.63229,-16.069 l 0,-23.66667 c 0,-11.82553 -0.30423,-17.09086 -0.51484,-19.52461 -0.39782,-5.06251 -0.91265,-6.26379 -7.97989,-7.27785 -1.11547,-0.19501 -1.6225,-1.10767 -1.6225,-2.02812 0,-0.80345 0.39782,-1.6147 1.31828,-1.6147 l 24.47792,0 c 0.89705,0 1.31048,0.81125 1.31048,1.6147 0,0.92045 -0.50703,1.83311 -1.6225,2.02812 -6.66941,1.01406 -6.66941,2.12173 -7.37926,7.27785 -0.29642,2.43375 -0.29642,7.69908 -0.50703,19.314 l -0.30422,22.47319 c -0.19502,15.87399 -11.82553,23.24545 -29.72764,23.24545 -15.07834,0 -27.82433,-6.87224 -27.82433,-25.07856 l 0,-20.42947 c 0,-11.82553 -0.30422,-17.09086 -0.49923,-19.52461 -0.39783,-5.06251 -0.91265,-6.26379 -7.9955,-7.27785 -1.11547,-0.19501 -1.6225,-1.10767 -1.6225,-2.02812 0,-0.80345 0.41342,-1.6147 1.33388,-1.6147 l 27.19249,0 c 0.91266,0 1.31049,0.81125 1.31049,1.6147 0,0.92045 -0.49144,1.83311 -1.6147,2.02812 -6.66943,1.01406 -6.66943,2.12173 -7.38706,7.27785 -0.30423,2.43375 -0.39783,7.69908 -0.39783,19.314 l 0,20.12525 z M 362.50036,720.5752 c 2.42595,0.30421 4.56329,0.50703 7.27785,0.50703 10.01583,0 13.55725,-0.29642 15.06274,-8.30752 0.21841,-1.09986 1.13108,-1.5991 2.02813,-1.5991 0.81125,0 1.6303,0.39783 1.6303,1.31049 0,2.93298 -0.61624,6.17018 -0.61624,11.41991 0,5.76455 0.61624,7.79268 0.61624,9.93002 0,0.90485 -0.81905,1.31047 -1.6303,1.31047 -0.89705,0 -1.80972,-0.51482 -2.02813,-1.6303 -1.00626,-7.37145 -5.14051,-7.58206 -14.75851,-7.58206 -2.83938,0 -4.95331,0 -7.58208,0.40562 l 0,6.36519 c 0,11.73973 0.20282,16.19381 0.49924,18.60416 0.70984,5.17172 4.24346,6.4822 12.65239,7.40265 1.09986,0.0936 1.6069,1.09988 1.6069,2.01253 0,0.81125 -0.38223,1.6225 -1.30269,1.6225 l -32.97265,0 c -0.92045,0 -1.31827,-0.81125 -1.31827,-1.6225 0,-0.91265 0.52262,-1.81751 1.6225,-2.01253 7.06723,-1.00626 8.0891,-2.33233 8.48692,-7.40265 0.21061,-2.41035 0.51484,-6.76302 0.51484,-18.69776 l 0,-14.76632 c 0,-11.82553 -0.30423,-17.09085 -0.51484,-19.52462 -0.39782,-5.06251 -0.90486,-6.26378 -7.9877,-7.27785 -1.10766,-0.19501 -1.5991,-1.10766 -1.5991,-2.02812 0,-0.80345 0.38223,-1.6147 1.29489,-1.6147 l 48.25379,0 c 2.21533,0 3.73643,0.81125 3.73643,2.94079 l 0,14.75851 c 0,1.11547 -0.91266,1.70831 -1.82531,1.70831 -0.89706,0 -1.91112,-0.59284 -2.02812,-1.90332 -0.79565,-7.9955 -4.53209,-12.34817 -11.02209,-12.34817 l -12.941,0 c -1.5211,0 -4.24346,0.20282 -5.15613,0.60844 l 0,27.4109 z m -62.70567,9.61331 c -1.00626,-1.52108 -1.7239,-2.74576 -1.7239,-3.43221 0,-0.82685 0.62404,-1.22467 1.93451,-1.22467 8.79115,0 18.09713,-4.9533 18.09713,-17.19227 0,-10.41365 -7.37925,-16.0846 -19.4076,-16.0846 -1.5289,0 -4.25907,0.19502 -5.17173,0.62404 l 0,38.31598 c 0,16.38102 0.30423,18.51055 0.71765,21.63855 0.49923,3.65062 1.5991,4.8675 8.29971,5.87376 1.09987,0.20281 1.5991,1.10766 1.5991,2.02032 0,0.81125 -0.39782,1.6147 -1.31048,1.6147 l -28.82279,0 c -0.90485,0 -1.31048,-0.80345 -1.31048,-1.6147 0,-0.91266 0.49923,-1.81751 1.6147,-2.02032 7.08284,-1.00626 8.0891,-2.33235 8.49473,-7.39486 0.20281,-2.41035 0.50704,-7.06724 0.50704,-19.00198 l 0,-14.4699 c 0,-11.82554 -0.30423,-17.09086 -0.50704,-19.51681 -0.40563,-5.06251 -0.91266,-6.27159 -7.9799,-7.27785 -1.12327,-0.19501 -1.6303,-1.11548 -1.6303,-2.02813 0,-0.81125 0.41342,-1.6147 1.31048,-1.6147 l 27.20809,0 c 13.86147,0 27.4265,5.67095 27.4265,20.23445 0,12.12977 -10.13282,18.81478 -19.11898,20.32027 l 16.48242,22.86322 c 4.54769,6.25599 7.16865,8.48693 12.52758,11.21709 0.51483,0.21061 0.81125,0.60844 0.81125,1.11547 0,1.11547 -2.21534,1.41969 -5.86597,1.41969 -7.69127,0 -12.23896,-1.31049 -14.66491,-4.96111 l -19.51681,-29.42343 z m -46.92779,2.21527 c 0,11.74752 0.20281,16.49802 0.50704,18.90837 0.70203,5.17173 1.93451,6.3886 8.60392,7.40266 1.11548,0.19502 1.6147,1.09987 1.6147,2.01253 0,0.81125 -0.40562,1.6147 -1.31047,1.6147 l -28.9164,0 c -0.93605,0 -1.33388,-0.80345 -1.33388,-1.6147 0,-0.91266 0.50703,-1.81751 1.6225,-2.01253 7.08284,-1.01406 8.0891,-2.34015 8.49473,-7.40266 0.20281,-2.41035 0.50702,-7.06724 0.50702,-19.00197 l 0,-14.05648 c 0,-11.82554 -0.30421,-17.50429 -0.50702,-19.93024 -0.40563,-5.06251 -0.91267,-6.27158 -7.9877,-7.27785 -1.11547,-0.19501 -1.6225,-1.11547 -1.6225,-2.02812 0,-0.81125 0.39782,-1.6147 1.32608,-1.6147 l 27.20029,0 c 0.91265,0 1.31048,0.80345 1.31048,1.6147 0,0.91265 -0.50703,1.83311 -1.6069,2.02812 -6.69282,1.00627 -6.69282,2.12173 -7.39485,7.27785 -0.30423,2.42595 -0.50704,8.1047 -0.50704,19.71963 l 0,14.36069 z m 262.38725,-267.5066 c -5.14837,-7.39487 -12.122,-9.83642 -13.86925,-12.34037 -1.7395,-2.49616 -1.57575,-9.88322 -6.7085,-17.29367 -9.73495,-13.99408 -18.5417,-9.08756 -25.95216,-3.93925 -7.86289,5.46034 -14.94573,17.07526 -18.83036,27.63711 -1.85653,4.8363 -2.03594,7.26225 -2.95639,7.16865 -0.62404,-0.0624 -0.85805,-0.78005 -1.04526,-3.01099 -0.039,-1.27927 -0.117,-2.58196 -0.22622,-3.90803 0,-0.0546 -0.0156,-0.10925 -0.0156,-0.17162 -0.85805,-9.89101 -3.50241,-20.32806 -8.01889,-26.84147 -5.16392,-7.39485 -11.69292,-15.06273 -25.6948,-5.35893 -7.40266,5.16393 -9.81301,12.12195 -12.34036,13.86147 -0.0624,0.0546 -0.14041,0.0936 -0.21841,0.1326 -1.13888,-0.82685 -2.26995,-1.6225 -3.38542,-2.36354 -14.95352,-10.00803 -27.66051,-13.83026 -28.19875,-14.00188 -7.76148,-2.33233 -14.96132,-3.85343 -21.56053,-4.8285 -1.03747,-5.26532 -1.94233,-11.46671 -1.94233,-16.91925 -0.0234,-3.04999 0.29643,-5.79576 0.94386,-8.0033 0.66304,-1.89551 1.15448,-2.05932 2.14514,-0.94385 0.71764,0.95165 1.58349,2.19974 2.17633,3.284 5.77236,10.64767 24.78213,25.7182 40.02428,27.2939 8.94715,0.92825 19.02539,0.98285 20.77269,-15.9676 0.95946,-8.96275 -2.75356,-15.36695 -2.43375,-18.40134 0.30423,-3.02658 5.24973,-8.51812 6.18579,-17.48088 l 0,-0.008 0.0312,-0.0312 c 1.76291,-16.92705 -8.1203,-18.96298 -17.08306,-19.89124 -3.85344,-0.39783 -8.28412,0.0546 -12.8474,1.07647 -0.0546,0 -0.078,0.0156 -0.117,0.0156 -0.85025,0.19502 -1.70052,0.42123 -2.54297,0.64744 -0.18721,0.039 -0.37442,0.0936 -0.56163,0.14821 -0.60844,0.1716 -1.21688,0.34322 -1.83312,0.53823 -0.28861,0.0936 -0.56943,0.17941 -0.84245,0.26522 -0.65523,0.20282 -1.30267,0.41343 -1.94232,0.65524 -0.49923,0.15601 -0.96725,0.34321 -1.45869,0.51483 -0.17941,0.0702 -0.35102,0.13261 -0.53042,0.20281 -1.68492,0.64745 -3.32302,1.32609 -4.91432,2.06714 l 0,-0.0156 c -5.05471,2.32453 -6.64601,3.16698 -7.14523,2.42595 -0.25743,-0.37443 0.117,-0.85807 0.89705,-1.68492 1.38068,-1.29487 2.78477,-2.75356 4.16546,-4.33706 0.039,-0.0468 0.078,-0.0936 0.117,-0.13261 5.28874,-6.06878 10.28885,-13.86926 13.08921,-21.33433 l 0.078,-0.22621 c 0.30421,-0.78005 0.56944,-1.5601 0.79565,-2.34795 0.0156,-0.007 0.0312,-0.039 0.0312,-0.039 0.117,-0.38222 0.21061,-0.74105 0.31201,-1.09986 0.039,-0.15601 0.0859,-0.31203 0.13262,-0.49144 0.13261,-0.55384 0.26521,-1.09986 0.37442,-1.6381 0.0546,-0.21061 0.0936,-0.39782 0.13261,-0.60844 0.0546,-0.31201 0.10925,-0.60063 0.156,-0.90485 0.0312,-0.24182 0.0702,-0.47583 0.0936,-0.71765 0.0312,-0.22621 0.0702,-0.45242 0.0936,-0.66303 0.944,-8.96277 0.9674,-19.02539 -15.97525,-20.78829 -8.96275,-0.92826 -15.35915,2.76916 -18.40914,2.44935 -3.01879,-0.30423 -8.49474,-5.24973 -17.47309,-6.19359 -16.95825,-1.74731 -18.98637,8.1281 -19.91464,17.08306 -0.0312,0.21062 -0.0312,0.42123 -0.039,0.63184 -0.0312,0.46803 -0.0703,0.95946 -0.0859,1.43529 -0.008,0.34322 -0.008,0.71765 0,1.06086 0,0.38223 0.0156,0.76445 0.0156,1.15448 0.0156,0.38222 0.039,0.77225 0.0703,1.16227 0.0234,0.35883 0.0624,0.74884 0.0857,1.11546 0.0936,0.79565 0.18722,1.6069 0.31983,2.44155 0.039,0.26523 0.078,0.53044 0.12475,0.81125 0.0857,0.51484 0.17941,1.01407 0.28862,1.5367 0.0546,0.24962 0.10925,0.51484 0.15602,0.76445 0.12475,0.56164 0.24181,1.11547 0.37442,1.6615 0.039,0.15602 0.0936,0.31983 0.1326,0.47583 1.6303,6.45881 4.37608,13.05021 7.51968,18.60416 0.26521,0.46803 0.49922,0.90485 0.74103,1.32608 l 0.0156,0 c 1.87992,3.1982 3.03439,4.52428 2.46496,5.06252 -0.45244,0.42903 -1.13887,0.1326 -2.94859,-1.14667 -0.0468,-0.0468 -0.10137,-0.0858 -0.14041,-0.12488 -0.96726,-0.75664 -1.96572,-1.51329 -2.98759,-2.26214 -0.007,0 -0.039,-0.0312 -0.0624,-0.0546 -0.0312,-0.0156 -0.0546,-0.0312 -0.0703,-0.0546 l -0.007,0 c -0.039,-0.0312 -0.0702,-0.039 -0.10925,-0.0702 -8.0189,-5.78796 -17.62129,-10.55405 -25.49979,-11.3887 -8.96275,-0.91266 -19.02538,-0.96726 -20.81949,15.99099 -0.92825,8.95495 2.76918,15.34355 2.45715,18.37794 -0.29641,3.02659 -5.24972,8.52594 -6.17797,17.48869 -0.92827,9.01736 1.41968,13.82246 5.17171,16.47462 3.31521,2.35575 7.73029,3.03439 11.94255,3.48682 l 0.039,-0.0312 c 15.49956,1.5523 39.26764,-8.37773 45.82784,-16.31082 2.55856,-3.08899 3.55702,-4.34487 4.54769,-4.34487 1.95012,0 1.6225,2.38695 1.6225,4.01725 0,5.85036 0.75665,14.4699 1.5367,21.95836 -3.31522,-0.26521 -6.4432,-0.38221 -9.39179,-0.38221 -17.15326,0 -27.62151,3.84564 -29.84465,4.75829 -1.17008,0.41342 -5.64755,2.01252 -10.94409,4.43067 -0.53822,-0.0312 -1.00626,-0.0936 -1.40409,-0.22621 -2.88617,-0.95946 -7.18424,-6.97364 -15.72577,-9.82861 -16.1626,-5.39794 -20.28905,3.80663 -23.13623,12.36377 -2.55856,7.63668 -2.09834,18.49494 -0.0156,28.25335 l -0.0156,0 c 1.18568,5.42134 1.66151,7.18425 0.81125,7.50406 -0.38221,0.16382 -0.81125,-0.30421 -1.42749,-1.24807 -0.97506,-1.6381 -2.09832,-3.31521 -3.3308,-5.00791 -0.039,-0.0546 -0.0702,-0.0936 -0.10925,-0.14822 l 0,0.0156 c -6.70841,-9.11096 -16.84903,-18.40914 -26.03021,-21.45913 -8.56492,-2.86277 -18.37794,-5.07811 -23.76807,11.07669 -2.85498,8.54933 -0.63964,15.59316 -1.5913,18.47935 -0.97507,2.90958 -6.98144,7.19204 -9.82862,15.74138 -5.38232,16.1626 3.80664,20.28905 12.35598,23.13623 9.08756,3.04219 22.5824,1.7707 33.34706,-1.42748 5.03911,-1.4197 7.11405,-2.74578 7.58988,-1.93453 0.31981,0.53044 -0.12488,1.15448 -1.77852,2.62096 -1.03746,0.82685 -2.05152,1.6849 -3.06558,2.58977 -0.0234,0.0234 -0.039,0.0546 -0.078,0.0624 -7.41045,6.60701 -14.18908,14.96913 -16.69303,22.4888 -2.86279,8.56493 -5.07812,18.39354 11.08449,23.79148 8.54152,2.83937 15.58536,0.60843 18.48714,1.5757 2.88618,0.96725 7.18425,6.98922 15.73358,9.83641 16.1548,5.39792 20.28125,-3.79884 23.14403,-12.35598 4.36048,-13.08921 -0.20281,-35.35178 -6.5524,-45.39101 9.00176,7.38706 11.41991,8.99395 15.88959,11.77873 0.74884,0.46023 12.68359,8.0579 12.68359,8.0579 0,0 67.7316,48.62822 14.5869,133.54428 -0.078,0.13262 -0.15602,0.26523 -0.24962,0.39783 -0.10925,0.24962 -0.13261,0.49144 -0.0312,0.67865 0.0936,0.19501 0.33542,0.31201 0.62404,0.35881 l 57.15415,0 c 0,0 0.87365,-0.0702 0.60844,-1.07646 -0.24183,-0.99846 -25.33598,-94.38586 14.24367,-114.15229 17.7227,-3.14359 27.83994,-10.98307 29.86027,-12.69139 4.8285,-3.61942 8.1281,-7.23105 10.27323,-10.81146 0.039,-0.0624 0.0703,-0.13261 0.10925,-0.17941 -0.79565,11.92694 1.69272,27.80092 7.87849,36.70127 5.14053,7.39487 11.69293,15.04714 25.6636,5.34334 7.43386,-5.14832 9.84421,-12.12976 12.33256,-13.85366 2.51955,-1.75511 9.90662,-1.5835 17.30922,-6.72403 14.00187,-9.735 9.09537,-18.54175 3.94712,-25.9366 -4.5945,-6.62261 -13.57286,-12.7616 -22.62922,-16.93485 -0.0936,-0.0234 -0.17942,-0.078 -0.25742,-0.10925 -0.0624,-0.039 -0.117,-0.0624 -0.18721,-0.0936 -4.70369,-2.14514 -6.29499,-2.79258 -6.05317,-3.62723 0.10137,-0.42903 0.74103,-0.47583 1.89551,-0.39782 1.87212,0.1794 3.86904,0.30421 5.93617,0.31981 l 0.21842,0 c 11.2951,0.078 24.80555,-2.51175 32.74642,-8.0267 7.426,-5.13271 15.07838,-11.68512 5.35888,-25.67139 m -169.33319,167.6561 c -1.10767,1.81751 -1.21688,2.34015 -1.6147,2.23093 -0.31982,-0.0624 -0.0234,-0.53042 0.24962,-2.23093 -0.83466,5.24192 11.80213,-62.43508 -16.0378,-92.29533 0,0 -0.84245,-1.26367 0.80345,-1.01406 0.29641,0.039 0.67864,0.25741 1.14668,0.41342 11.91913,4.31367 23.40925,6.4822 23.99428,6.60702 0,0 4.77389,3.2216 5.14832,19.75082 0.87366,38.7372 -9.774,60.16514 -13.68985,66.53813 m 63.87816,-106.55462 c -10.01581,6.66162 -24.45451,12.13755 -47.02131,9.75062 -23.64327,-2.51957 -52.23204,-11.77874 -79.95497,-36.05384 -5.51494,-4.8441 -15.27335,-18.88498 -10.51505,-35.52341 1.5991,-5.62415 11.00648,-8.0657 18.03472,-8.27632 15.51516,-0.46802 27.87113,1.76292 39.24423,4.56329 0.10925,2.14513 0.62404,3.98605 0.60844,5.42134 0,0.1326 0,0.23401 -0.007,0.36662 l 0,0.1638 0,0.0156 0.007,0.0234 0,0.039 0,0.0156 c 0.0857,0.89705 0.75665,1.6537 1.67711,1.78631 l 0.039,0.0156 0.008,0 c 0,0 0.0156,0.0156 0.0312,0.0156 l 0.039,0 0.007,0 0.0546,0 0,0.007 0.0546,0 0.0546,0 c 0.13261,0 0.22621,-0.007 0.31982,-0.0234 l 0.0156,0 c 0,0 0.007,-0.0156 0.0234,-0.0156 l 0.0156,0 0.039,0 0.007,0 0.0156,0 0.039,-0.008 0.0156,0 0.0234,0 c 0,0 0.0156,-0.0156 0.0312,-0.0156 l 0.039,-0.0156 c 0.81125,-0.23401 1.38849,-0.95165 1.44309,-1.84091 l 0,-0.078 c 0.0546,-1.35729 0.47583,-2.80038 1.02186,-4.33708 0.0234,-0.0936 0.078,-0.20281 0.13262,-0.29641 2.21533,0.49143 4.46967,1.05306 6.76301,1.6381 -0.078,0.51484 -0.117,1.01406 -0.117,1.48209 0.0234,2.38695 0.66304,4.39947 0.63184,5.95177 0,0.10925 0,0.24182 -0.007,0.37443 l 0,0.007 c -0.039,1.09986 0.81905,2.03592 1.90331,2.07492 l 0.0857,0 c 1.06086,0 1.94231,-0.83465 1.99692,-1.91111 0,-0.0702 0,-0.13261 0.0156,-0.20281 0.0546,-1.31049 0.49142,-2.73018 1.00626,-4.22786 0.20281,-0.58504 0.50703,-1.16228 0.87365,-1.78632 1.96573,0.56944 3.93925,1.16228 5.92836,1.81752 -0.28081,0.85805 -0.38221,1.7473 -0.38221,2.54295 0.039,2.37135 0.66304,4.39947 0.63964,5.95177 l 0,0.37443 c -0.0312,0.31201 0.039,0.63183 0.16381,0.92825 l 0.0156,0 0.0156,0.0234 0.0156,0.0156 0.007,0.0234 c 0,0 0,0.0312 0.0156,0.039 l 0,0.0156 c 0.14821,0.24961 0.34323,0.47582 0.56944,0.64743 l 0.039,0.0156 0,0.0156 c 0.31982,0.21062 0.68644,0.34323 1.07646,0.34323 l 0.0624,0 c 0.31981,0 0.61623,-0.0703 0.88925,-0.20281 l 0.039,-0.0234 0.0312,-0.0234 0.007,0 0.0312,-0.0156 0.0234,0 0,-0.0156 0.0312,-0.008 0.0156,-0.0156 c 0.21061,-0.14821 0.40562,-0.31982 0.55383,-0.51484 l 0.039,-0.0468 0,-0.007 0.0156,-0.0312 0.007,-0.008 0.0156,-0.0312 0.0156,-0.0156 0.008,-0.0234 0,-0.0156 c 0.0156,-0.007 0.0312,-0.0234 0.0312,-0.0234 0.14041,-0.28081 0.22622,-0.56943 0.24962,-0.88925 l 0,-0.10925 c 0.0546,-1.34948 0.47583,-2.79257 1.00627,-4.32146 0.25741,-0.75665 0.71763,-1.5055 1.26367,-2.35575 19.50121,6.90343 38.79961,17.41848 54.892,33.45628 6.68503,7.22325 3.36981,17.15326 -6.02976,23.38585 m 12.9644,-23.57307 c -1.11548,0.0546 -3.1826,-0.87365 -7.19985,-4.8441 -15.44496,-15.11733 -33.62789,-25.23456 -51.39739,-31.98198 0.35103,-0.47583 0.63964,-1.17788 0.62404,-1.93452 0,-0.28082 -0.0234,-0.54603 -0.078,-0.76445 -0.0936,-0.56163 -0.56944,-1.24807 -1.09988,-1.5133 -0.34321,-0.18721 -0.60843,-0.25741 -0.85805,-0.29641 -0.26521,-0.078 -0.56163,-0.078 -0.86585,-0.039 0,0 -2.37135,0.56943 -2.66777,0.90485 -0.70204,0.28863 -1.41189,0.66304 -2.06713,1.13888 -1.80191,-0.59284 -3.58822,-1.17008 -5.35892,-1.70832 0.0857,-0.10925 0.1872,-0.21841 0.26521,-0.35101 0.37443,-0.47584 0.69424,-1.21689 0.67864,-1.99692 0,-0.28083 -0.0234,-0.53044 -0.078,-0.77225 -0.10925,-0.59284 -0.60844,-1.25588 -1.13888,-1.5211 -0.29641,-0.16382 -0.54603,-0.22622 -0.77225,-0.26522 -0.28081,-0.0936 -0.59283,-0.10925 -0.91265,-0.0546 0,0 -2.38695,0.55382 -2.68336,0.88925 -1.04527,0.45242 -2.07494,1.02966 -2.96419,1.93452 -2.10613,-0.54603 -4.20446,-1.06087 -6.25598,-1.5289 0.17941,-0.14041 0.39782,-0.31202 0.65523,-0.51483 0.31983,-0.26522 0.70204,-0.56943 1.06087,-1.07647 0.37442,-0.46022 0.69425,-1.20127 0.69425,-1.99692 0,-0.28081 -0.039,-0.53043 -0.0936,-0.77225 -0.10925,-0.55383 -0.56944,-1.23248 -1.11546,-1.51329 -0.31983,-0.15601 -0.58504,-0.23401 -0.80345,-0.27301 -0.28083,-0.0857 -0.58504,-0.10925 -0.90486,-0.0546 0,0 -2.40255,0.56944 -2.68337,0.90487 -1.5445,0.65523 -3.08898,1.6381 -4.14986,3.43221 -0.0468,0.0936 -0.078,0.19501 -0.12475,0.28861 -18.51835,-3.54921 -30.30489,-4.13425 -36.88069,-4.14985 -2.29335,0 -3.43221,0.18721 -6.02977,0.37441 -1.30269,0.0936 -3.75984,0.53824 -5.05471,0.53824 -2.06714,0 -3.26062,-0.64744 -4.00166,-1.27147 -0.37442,-0.28863 -0.94386,-0.68645 -0.94386,-1.6303 -0.039,-1.6303 1.38069,-3.68184 3.79104,-5.67095 3.58043,-3.00319 9.09536,-5.83477 13.68205,-7.8941 4.60229,-2.05153 8.26071,-3.3542 8.26071,-3.3542 l 0.0468,0 0.0312,-0.0234 c 0,0 0.52264,-0.22621 1.6225,-0.60064 3.29182,-1.13887 11.48232,-3.43221 23.88509,-3.43221 9.13436,0 20.57768,1.24808 33.99451,5.15611 0,0 2.76917,0.81125 7.17644,2.69118 13.28423,5.64755 41.19436,21.0067 52.09164,52.84047 0,0 0.52262,1.5523 1.05306,3.57263 0.51484,2.02812 1.01406,4.51647 1.01406,6.27159 0,1.6303 -0.69423,2.84717 -1.44308,2.86277"
       id="path70"
       style="fill:#ffffff;fill-opacity:1;fill-rule:nonzero;stroke:none" />
  </g>
</svg>
