<?xml version="1.0" encoding="utf-8"?>
<!-- Generator: Adobe Illustrator 15.1.0, SVG Export Plug-In  -->
<!DOCTYPE svg PUBLIC "-//W3C//DTD SVG 1.1//EN" "http://www.w3.org/Graphics/SVG/1.1/DTD/svg11.dtd" [
	<!ENTITY ns_flows "http://ns.adobe.com/Flows/1.0/">
]>
<svg version="1.1"
	 xmlns="http://www.w3.org/2000/svg" xmlns:xlink="http://www.w3.org/1999/xlink" xmlns:a="http://ns.adobe.com/AdobeSVGViewerExtensions/3.0/"
	 x="0px" y="0px" width="1000px" height="1000px" viewBox="-63.658 0 1000 1000"
	 overflow="visible" enable-background="new -63.658 0 1000 1000" xml:space="preserve">
<defs>
</defs>
<path d="M752.587,54.374V23.755h13.668c3.405,0,5.917,0.268,7.463,0.829c1.561,0.558,2.795,1.539,3.717,2.94
	c0.936,1.416,1.397,3.029,1.397,4.838c0,2.308-0.714,4.196-2.134,5.694c-1.404,1.501-3.516,2.438-6.31,2.824
	c1.382,0.784,2.526,1.654,3.456,2.572c0.914,0.937,2.118,2.59,3.664,4.965l3.925,5.958h-7.745l-4.683-6.637
	c-1.65-2.382-2.795-3.88-3.39-4.504c-0.624-0.617-1.285-1.037-1.977-1.263c-0.685-0.231-1.755-0.35-3.256-0.35h-1.293v12.754
	H752.587z M759.091,36.747h4.771c3.137,0,5.039-0.123,5.827-0.372c0.773-0.246,1.383-0.688,1.828-1.305
	c0.446-0.613,0.654-1.39,0.654-2.319c0-1.044-0.297-1.88-0.877-2.513c-0.58-0.639-1.397-1.059-2.438-1.233
	c-0.521-0.052-2.096-0.067-4.712-0.067h-5.055V36.747z"/>
<path d="M766.078,11.417c-15.252,0-27.635,12.398-27.635,27.642c0,15.245,12.383,27.657,27.635,27.657
	c15.267,0,27.649-12.412,27.649-27.657C793.727,23.814,781.344,11.417,766.078,11.417 M766.078,61.884
	c-12.591,0-22.817-10.261-22.817-22.826c0-12.587,10.227-22.81,22.817-22.81s22.833,10.223,22.833,22.81
	C788.911,51.624,778.668,61.884,766.078,61.884"/>
<path fill="#86743A" d="M66.277,447.933c0,0,14.118,20.696,15.411,28.601c1.279,7.923,4.508,11.044,4.508,11.044
	s11.583-16.849,15.434-21.402c3.857-4.538,12.825-15.679,15.802-18.273c2.951-2.605,10.372-5.002,10.372-5.002
	s0.792,6.578-0.624,15.802c-1.417,9.224-1.531,15.861-2.282,20.153c-0.68,3.791-2.557,14.301-3.333,17.69
	c-0.762,3.4-0.116,4.3-0.116,4.3s4.62-2.353,7.838-9.774c3.229-7.384,5.162-11.417,6.054-14.386
	c0.902-3.007,7.633-6.348,7.633-6.348s3.174,7.492,2.668,18.671c-0.524,11.164,0.505,22.216-2.319,31.447
	c-2.839,9.217-3.471,11.135-1.167,19.191c2.323,8.057,4.125,8.845,3.876,14.716c-0.26,5.843-0.26,14.465,0.13,15.044
	c1.962,2.929,0.792,0.327,10.124,5.85c0,0,0,22.462-0.61,34.799c-0.16,3.493,5.534,6.362,7.73,7.626
	c2.178,1.309,2.824,2.854,2.824,2.854s-0.138,11.832-0.138,16.901c0,5.055-0.126,10.644,1.807,16.872
	c1.925,6.243,13.769,21.719,18.904,25.851c5.144,4.177,9.652,11.03,17.512,15.713c7.864,4.668,35.004,10.896,42.076,14.672
	c7.075,3.775,16.719,11.543,23.654,20.759c6.964,9.217,11.867,16.627,13.654,17.407c1.813,0.773,38.75,30.013,38.75,30.013
	s-44.7,38.709-56.886,57.157c-8.744,13.236-20.696,31.075-50.965,12.947c-5.943-3.561-29.712-20.127-32.283-20.648
	c-2.58-0.489-16.98-8.948-23.922-9.959c-6.964-1.056-13.137-2.765-20.982-9.647c-7.856-6.897-13.137-10.123-18.931-11.172
	c-5.79-1.019-8.47-3.247-9.514-6.102c-1.019-2.869-2.832-2.46-8.484-2.988c-5.664-0.505-9.083-3.359-9.083-3.359
	s3.928-1.561,5.102-5.872c1.141-4.251-3.478-5.559-9.027-10.777c-5.526-5.188-14.285-15.311-19.818-21.033
	c-5.526-5.694-10.458-9.039-10.458-9.039s2.493-0.416,3.902-2.631c1.416-2.215,1.806-1.68-4.895-13.512
	c-6.697-11.811-20.009-32.027-30.563-51.069c-10.056-18.181-12.583-26.431-15.542-33.447c-2.962-7.017-5.251-21.153-5.251-21.153
	s8.225,3.435,12.473,6.69c4.255,3.239,9.157,4.83,9.157,4.83s0.275-9.722-2.564-22.55c-2.839-12.874-5.396-29.642-5.147-39.356
	c0.252-9.767,6.819-10.42,7.194-15.986c0.395-5.583-0.505-22.321-1.278-30.757c-0.769-8.466-2.308-12.077-2.575-14.791
	c-1.223-12.977-0.015-11.836,0.078-15.801c0,0,8.213,2.107,12.476,11.866c2.82,6.455,6.102,12.342,7.38,13.234
	c1.293,0.951,3.1-1.16,3.869-5.427c0.773-4.263,6.125-20.799,8.231-27.671c2.409-7.834,4.683-18.626,5.452-22.119
	C60.364,455.072,66.277,447.933,66.277,447.933"/>
<path fill="#9F8946" d="M66.277,447.933l-3.144,2.144c0.003,0.004,0.855,1.256,2.182,3.29c1.984,3.051,5.005,7.826,7.604,12.494
	c2.604,4.597,4.768,9.41,5.013,11.287c1.401,8.771,5.128,12.713,5.619,13.167l3.233,3.125l2.549-3.705
	c0.004-0.007,2.884-4.196,6.244-8.953c3.341-4.734,7.247-10.134,8.96-12.148c1.966-2.312,5.158-6.217,8.235-9.871
	c1.535-1.825,3.04-3.579,4.319-5.017c1.263-1.423,2.371-2.571,2.842-2.973l0.027-0.022l-0.008,0.007
	c0.751-0.717,3.185-1.996,5.232-2.817c1.037-0.431,2-0.792,2.694-1.041c0.699-0.249,1.093-0.375,1.097-0.379l-1.171-3.62
	l-3.779,0.454l0.026,0.238c0.052,0.557,0.167,2.048,0.167,4.229c0,2.598-0.167,6.173-0.798,10.306
	c-1.442,9.432-1.595,16.322-2.271,20.075l-0.003,0.022l0.008-0.041c-0.673,3.761-2.572,14.356-3.296,17.511l-0.008,0.026
	l0.003-0.007c-0.331,1.479-0.464,2.664-0.464,3.664c-0.007,1.68,0.409,2.914,0.974,3.691l1.906,2.648l2.91-1.482
	c0.543-0.26,5.965-3.244,9.6-11.65c3.207-7.347,5.14-11.309,6.209-14.802l-0.531-0.16l0.495,0.256l0.037-0.097l-0.531-0.16
	l0.495,0.256c-0.015-0.178,1.508-1.65,2.965-2.534c0.729-0.476,1.438-0.889,1.955-1.174l0.606-0.328l0.189-0.096l-1.691-3.408
	l-3.504,1.483l0.004,0.015c0.178,0.428,2.423,6.207,2.419,14.762c0,0.724-0.018,1.475-0.052,2.241
	c-0.495,11.498,0.401,22.351-2.156,30.504c-1.631,5.344-2.716,8.584-2.739,12.509c0.004,2.734,0.564,5.389,1.553,8.844
	c1.145,3.977,2.226,6.422,2.865,8.109c0.628,1.725,0.859,2.475,0.885,4.52l-0.019,0.885l-0.004,0.036l0.004-0.052
	c-0.119,2.698-0.186,5.924-0.186,8.748c0,1.731,0.022,3.308,0.078,4.556l0.119,1.658l0.119,0.795
	c0.108,0.327,0.041,0.588,0.647,1.584l-0.038-0.053l0.03,0.046c0.539,0.779,0.963,1.456,1.854,2.207l1.862,1.04
	c0.698,0.26,1.186,0.408,2.319,0.915c1.111,0.504,2.779,1.345,5.31,2.846l1.94-3.277h-3.806c0,0.015,0,5.597-0.074,12.731
	c-0.079,7.136-0.23,15.816-0.532,21.882l-0.007,0.326c0.004,1.919,0.773,3.501,1.631,4.684c1.316,1.776,2.929,2.966,4.411,3.962
	c1.472,0.973,2.88,1.724,3.598,2.14l1.899-3.3l-1.958,3.264l1.201,1.011l0.145,0.208l1.238-0.706l-1.312,0.55l0.074,0.156
	l1.238-0.706l-1.312,0.55l3.511-1.472l-3.806-0.045c0,0.007-0.137,11.825-0.137,16.946l-0.003,1.776
	c0.003,4.624,0.085,10.123,1.981,16.226c0.676,2.141,1.888,4.393,3.43,6.941c2.315,3.791,5.384,8.043,8.41,11.812
	c3.055,3.782,5.931,6.993,8.313,8.933l-0.041-0.036l0.026,0.022c4.486,3.53,9.28,10.799,17.965,16.031
	c2.453,1.442,5.73,2.713,9.603,4.059c5.779,1.992,12.773,4.028,18.964,5.916c6.143,1.852,11.673,3.688,13.665,4.787
	c6.477,3.426,15.898,11,22.405,19.688c3.453,4.564,6.399,8.696,8.759,11.855c1.186,1.583,2.215,2.921,3.148,3.999l1.386,1.464
	c0.494,0.438,0.955,0.862,1.876,1.286l0.026,0.015h0.003l1.07-2.505l-1.349,2.363l0.279,0.142l1.07-2.505l-1.349,2.363l0.004,0.007
	c0.25,0.157,1.234,0.856,2.501,1.808c4.526,3.381,13.468,10.36,21.243,16.463c7.782,6.108,14.396,11.35,14.412,11.356l2.364-2.98
	l-2.49-2.876c-0.026,0.022-11.231,9.722-23.996,21.77c-12.788,12.094-27.025,26.305-33.573,36.167
	c-3.029,4.602-6.321,9.477-10.302,13.044c-4.01,3.575-8.439,5.865-14.526,5.895c-5.333,0.008-12.189-1.88-21.008-7.157
	c-2.75-1.643-10.257-6.719-17.255-11.372c-3.515-2.333-6.931-4.578-9.67-6.295c-1.372-0.855-2.568-1.584-3.568-2.149l-1.39-0.728
	c-0.464-0.208-0.803-0.394-1.602-0.572h-0.019l-0.026-0.007l-0.175,0.913l0.268-0.892l-0.093-0.021l-0.175,0.913l0.268-0.892
	c-0.22-0.044-1.747-0.714-3.512-1.583c-2.72-1.315-6.388-3.182-10.068-4.823c-3.713-1.644-7.313-3.1-10.599-3.605l0.022,0.008
	c-6.704-1.078-11.654-2.356-19.042-8.748c-7.99-7.017-13.925-10.814-20.763-12.056l-0.044-0.008l0.026,0.008
	c-2.535-0.446-4.128-1.122-5.047-1.762c-0.921-0.646-1.263-1.167-1.549-1.903l0.008,0.022l0.003,0.016
	c-0.375-1.063-0.967-2.201-1.955-3.122c-1.539-1.405-3.303-1.762-4.723-1.947c-1.483-0.186-3.007-0.245-5.039-0.438h-0.015
	c-2.263-0.2-4.081-0.877-5.311-1.486l-1.36-0.789l-0.297-0.207l-0.044-0.03l-1.011,1.271l1.041-1.248l-0.03-0.023l-1.011,1.271
	l1.041-1.248l-2.438,2.92l1.405,3.538c0.249-0.104,1.561-0.64,3.125-1.918c1.549-1.271,3.4-3.389,4.244-6.488l0.004-0.015
	c0.193-0.722,0.305-1.464,0.305-2.222c0.019-1.651-0.598-3.256-1.412-4.401c-1.237-1.738-2.687-2.794-4.181-3.961
	c-1.505-1.16-3.122-2.371-4.809-3.954c-5.263-4.928-14.044-15.066-19.689-20.908c-5.801-5.968-10.915-9.439-11.056-9.543
	l-2.136,3.15l0.628,3.754c0.238-0.045,1.182-0.208,2.43-0.803c1.238-0.587,2.85-1.649,4.054-3.537l0.777-1.271
	c0.342-0.624,0.684-1.68,0.669-2.69c-0.063-1.97-0.71-3.204-1.631-5.114c-0.959-1.902-2.401-4.459-4.608-8.354
	c-6.82-12.026-20.083-32.161-30.544-51.04c-9.963-18.032-12.301-25.806-15.363-33.082c-1.29-3.025-2.612-8.229-3.523-12.524
	c-0.461-2.155-0.833-4.109-1.089-5.515s-0.39-2.245-0.39-2.245l-3.758,0.609l-1.467,3.509c0.003,0.008,0.468,0.2,1.271,0.558
	c2.386,1.04,7.756,3.619,10.354,5.641l0.011,0.008c4.895,3.701,10.075,5.336,10.287,5.426l4.835,1.568l0.145-5.085l0.007-0.847
	c-0.004-2.69-0.204-11.513-2.661-22.632c-2.672-12.063-5.091-27.872-5.077-37.171l0.019-1.263c0.183-4.028,1.212-5.367,2.68-7.24
	c0.747-0.921,1.691-1.888,2.616-3.241c0.925-1.345,1.761-3.202,1.892-5.351c0.074-1.077,0.104-2.386,0.104-3.909
	c-0.003-7.529-0.736-20.276-1.39-27.449c-0.795-8.733-2.483-13.118-2.579-14.816l0.003,0.056l-0.003-0.037
	c-0.398-4.237-0.528-6.887-0.524-8.6c0.003-1.747,0.108-2.449,0.234-3.248c0.134-0.792,0.353-1.917,0.386-3.508l-3.805-0.089
	l-0.944,3.687l0.197-0.769l-0.223,0.762l0.026,0.007l0.197-0.769l-0.223,0.762c0.156,0.044,1.858,0.572,3.879,2.025
	c2.026,1.464,4.378,3.806,6.08,7.685c1.457,3.334,3.021,6.508,4.43,9.035c0.707,1.264,1.371,2.363,2,3.285
	c0.688,0.944,1.081,1.62,2.259,2.512l2.178-3.121l-2.256,3.062c0.758,0.58,1.843,0.981,2.906,0.967c1.427,0,2.554-0.61,3.315-1.227
	c1.152-0.966,1.81-2.059,2.385-3.301c0.558-1.24,0.974-2.652,1.264-4.251c0.282-1.635,1.824-6.972,3.508-12.416
	c1.691-5.504,3.549-11.342,4.616-14.816c2.482-8.091,4.761-18.938,5.53-22.417c0.019-0.174,0.387-1.1,0.959-2.077
	c0.854-1.505,2.114-3.296,3.14-4.66l1.293-1.676l0.505-0.624L66.277,447.933l-3.144,2.144L66.277,447.933l-2.933-2.427
	c-0.037,0.044-1.561,1.884-3.226,4.236c-0.836,1.178-1.706,2.482-2.46,3.81c-0.755,1.345-1.416,2.631-1.78,4.214
	c-0.77,3.504-3.04,14.241-5.375,21.814c-1.041,3.4-2.909,9.265-4.615,14.817c-1.713,5.604-3.233,10.673-3.724,13.297
	c-0.253,1.449-0.673,2.49-0.929,2.898l-0.12,0.179l0.792,0.646l-0.524-0.854l-0.268,0.208l0.792,0.646l-0.524-0.854l1.308,2.125
	v-2.475l-1.308,0.35l1.308,2.125v-2.475v2.698l1.606-2.186l-1.606-0.513v2.698l1.606-2.186l-0.041-0.022l-0.038-0.029l-1.007,1.442
	l1.241-1.257l-0.234-0.186l-1.007,1.442l1.241-1.257l-0.242-0.297c-0.557-0.729-1.575-2.394-2.657-4.438
	c-1.089-2.052-2.29-4.526-3.408-7.087c-2.449-5.623-6.128-9.165-9.19-11.224c-3.073-2.07-5.522-2.724-5.827-2.805l-4.634-1.189
	l-0.116,4.787c-0.029,1.059-0.119,1.442-0.286,2.453c-0.167,1.003-0.342,2.401-0.335,4.482c0,2.081,0.149,4.935,0.562,9.313v0.014
	c0.438,3.731,1.828,6.571,2.571,14.762c0.632,6.875,1.364,19.674,1.36,26.758c0,1.42-0.03,2.608-0.089,3.39l-0.603,1.612
	c-0.605,0.966-2.137,2.363-3.683,4.667c-1.55,2.305-2.832,5.59-2.917,9.879l-0.019,1.456c0.019,10.428,2.508,26.304,5.254,38.813
	c2.3,10.376,2.483,18.693,2.483,20.989l-0.008,0.639l3.806,0.104l1.174-3.619l-0.138-0.045c-0.788-0.268-4.727-1.769-7.89-4.192
	l0.011,0.008c-2.535-1.933-5.771-3.635-8.473-4.965c-2.69-1.315-4.802-2.2-4.846-2.223L0,610.272l1.093,6.757
	c0.007,0.036,0.587,3.619,1.549,8.131c0.978,4.526,2.278,9.9,3.954,13.892c2.851,6.756,5.567,15.482,15.716,33.811
	c10.647,19.206,24.007,39.504,30.581,51.106c2.196,3.872,3.627,6.422,4.438,8.028c0.405,0.802,0.65,1.366,0.757,1.664l0.071,0.23
	l0.993-0.208h-1.007l0.015,0.208l0.993-0.208h-1.007h1.732l-1.554-0.804l-0.178,0.804h1.732l-1.554-0.804l-0.085,0.142l-0.346,0.528
	l-0.91,0.765l-0.428,0.164l0.034,0.111l-0.019-0.111h-0.015l0.034,0.111l-0.019-0.111l-9.376,1.568l7.867,5.336l0.167,0.112
	c0.889,0.624,5.095,3.687,9.696,8.428c5.418,5.59,14.156,15.706,19.945,21.153c2.72,2.557,5.203,4.237,6.648,5.44
	c0.725,0.588,1.156,1.057,1.29,1.257l0.074,0.119l0.134-0.044h-0.145l0.011,0.044l0.134-0.044h-0.145l-0.045,0.244l0.007-0.029
	l-0.003,0.015c-0.331,1.211-1.029,2.029-1.739,2.616l-0.899,0.617l-0.227,0.119l-0.022,0.007l0.81,1.896l-0.758-1.917l-0.052,0.021
	l0.81,1.896l-0.758-1.917l-5.942,2.363l4.909,4.095c0.346,0.275,4.363,3.598,11.183,4.229h-0.015
	c2.932,0.253,4.894,0.35,5.407,0.521l0.119,0.029l0.138-0.386l-0.215,0.342l0.078,0.044l0.138-0.386l-0.215,0.342l0.535-0.848
	l-0.822,0.587l0.287,0.261l0.535-0.848l-0.822,0.587h-0.003l0.093,0.223l0.011,0.038c0.758,2.118,2.278,4.14,4.404,5.574
	c2.129,1.449,4.772,2.393,8.027,2.966l-0.048-0.008l0.03,0.008c4.749,0.854,9.376,3.508,17.095,10.286
	c8.306,7.373,15.701,9.514,22.926,10.547l0.018,0.008c2.479,0.305,7.849,2.563,12.498,4.838c2.36,1.131,4.604,2.26,6.474,3.159
	c0.932,0.454,1.772,0.848,2.519,1.167c0.777,0.319,1.335,0.572,2.271,0.766l0.71-3.739l-0.755,3.731l0.383-1.902l-0.702,1.813
	l0.319,0.089l0.383-1.902l-0.702,1.813c0.037,0.007,0.776,0.372,1.672,0.899c3.248,1.888,9.454,5.99,15.381,9.944
	c5.969,3.984,11.628,7.797,14.349,9.425c9.595,5.745,17.768,8.235,24.918,8.243c8.194,0.029,14.724-3.397,19.622-7.85
	c4.932-4.451,8.5-9.893,11.554-14.508c5.638-8.585,19.845-22.951,32.451-34.821c6.314-5.962,12.26-11.357,16.623-15.259
	c4.363-3.903,7.121-6.289,7.128-6.296l3.475-3.01l-3.601-2.848c-0.003-0.008-9.243-7.32-18.712-14.73
	c-4.738-3.709-9.528-7.44-13.267-10.31c-1.87-1.428-3.471-2.646-4.69-3.546l-1.542-1.106l-0.595-0.402l-0.817-0.438l0.026,0.008
	l0.007,0.008l-0.732,1.672l1.085-1.479l-0.353-0.192l-0.732,1.672l1.085-1.479l-0.089-0.081c-0.617-0.528-2.371-2.713-4.482-5.597
	c-2.155-2.914-4.831-6.638-7.923-10.732c-7.359-9.737-17.229-17.697-24.9-21.822c-2.24-1.182-5.318-2.267-9.067-3.486
	c-5.593-1.813-12.52-3.799-18.756-5.761c-6.191-1.925-11.837-3.961-14.1-5.336c-7.031-4.133-11.253-10.569-17.054-15.394
	l-0.015-0.015c-2.003-1.575-6.303-6.451-9.989-11.438c-1.866-2.505-3.631-5.076-5.01-7.336c-1.378-2.237-2.371-4.259-2.653-5.232
	c-1.528-4.921-1.643-9.439-1.643-13.974l0.003-1.776c0-5.017,0.138-16.842,0.138-16.857l0.008-0.787l-0.301-0.729
	c-0.208-0.506-1.327-2.811-4.378-4.646l-0.029-0.015l-0.03-0.022c-1.193-0.677-2.933-1.605-4.252-2.632l-1.401-1.345l-0.186-0.312
	l-0.286,0.104h0.297l-0.011-0.104l-0.286,0.104h0.297h-0.817l0.817,0.046v-0.046h-0.817l0.817,0.046
	c0.617-12.517,0.614-34.956,0.614-34.985v-2.171l-1.866-1.106c-4.783-2.84-7.262-3.769-8.466-4.2l-0.409-0.148l-0.587,1.278
	l1.022-0.966l-0.435-0.312l-0.587,1.278l1.022-0.966l-0.004-0.008l-0.457-0.646l0.033,0.052l-0.041-0.059l-2.627,1.768l3.122-0.646
	c-0.059-0.104,0.056-0.208-0.494-1.121l-2.627,1.768l3.122-0.646l-0.554,0.119l0.562-0.089l-0.008-0.03l-0.554,0.119l0.562-0.089
	c-0.022-0.119-0.09-0.915-0.115-1.888c-0.034-0.996-0.048-2.245-0.048-3.605c0-2.705,0.063-5.856,0.178-8.406l0.004-0.074
	l-0.004,0.06l0.026-1.196c0.026-2.914-0.602-5.219-1.379-7.21c-0.765-2.021-1.635-3.939-2.668-7.521
	c-0.921-3.204-1.256-5.113-1.256-6.741c-0.019-2.268,0.707-4.816,2.405-10.272c3.092-10.316,1.929-21.569,2.482-32.391
	c0.041-0.892,0.059-1.75,0.059-2.59c-0.007-10.54-2.895-17.426-3.024-17.742l-1.576-3.724l-3.62,1.798
	c-0.093,0.044-1.884,0.933-3.913,2.3c-1.022,0.688-2.104,1.494-3.107,2.464c-0.985,0.993-1.988,2.093-2.568,3.895
	c-0.718,2.446-2.646,6.548-5.894,13.958c-1.409,3.245-3.059,5.263-4.296,6.467l-1.457,1.223l-0.338,0.223l0.104,0.175l-0.093-0.182
	l-0.011,0.007l0.104,0.175l-0.093-0.182l1.728,3.394l3.088-2.223l-2.282,1.643l2.728-0.77l-0.446-0.874l-2.282,1.643l2.728-0.77
	l-0.662,0.189l0.688-0.089l-0.026-0.101l-0.662,0.189l0.688-0.089l-0.011-0.22c0-0.309,0.044-0.955,0.279-2l-0.011,0.049l0.007-0.03
	c0.829-3.624,2.683-14.047,3.371-17.868l0.003-0.019c0.821-4.834,0.903-11.216,2.293-20.231c0.703-4.579,0.888-8.533,0.888-11.458
	c0-3.271-0.23-5.248-0.246-5.374l-0.554-4.589l-4.396,1.423c-0.063,0.018-1.996,0.643-4.371,1.631
	c-2.401,1.026-5.151,2.249-7.351,4.137l0.015-0.011l0.004-0.004c-1.015,0.896-2.148,2.111-3.523,3.649
	c-4.059,4.552-9.837,11.688-12.676,15.029c-2.145,2.546-5.958,7.849-9.369,12.676c-3.393,4.805-6.295,9.027-6.303,9.034l3.136,2.155
	l2.646-2.734l-1.583,1.634l1.635-1.583l-0.052-0.052l-1.583,1.634l1.635-1.583l-0.074-0.085c-0.417-0.506-2.43-3.077-3.375-8.882
	c-0.479-2.761-1.724-5.652-3.296-8.882c-4.72-9.54-12.684-21.179-12.728-21.257l-2.851-4.177l-3.226,3.895L66.277,447.933z"/>
<path fill="#86743A" d="M806.392,447.933c0,0-14.114,20.696-15.4,28.601c-1.293,7.923-4.504,11.044-4.504,11.044
	s-11.58-16.849-15.445-21.402c-3.85-4.538-12.828-15.679-15.786-18.273c-2.958-2.605-10.376-5.002-10.376-5.002
	s-0.788,6.578,0.624,15.802c1.412,9.224,1.517,15.861,2.274,20.153c0.685,3.791,2.558,14.301,3.329,17.69
	c0.759,3.4,0.119,4.3,0.119,4.3s-4.623-2.353-7.849-9.774c-3.211-7.384-5.144-11.417-6.035-14.386
	c-0.907-3.007-7.641-6.348-7.641-6.348s-3.182,7.492-2.66,18.671c0.505,11.164-0.521,22.216,2.318,31.447
	c2.839,9.217,3.464,11.135,1.159,19.191c-2.319,8.057-4.117,8.845-3.865,14.716c0.254,5.843,0.254,14.465-0.134,15.044
	c-1.962,2.929-0.787,0.327-10.122,5.85c0,0,0,22.462,0.595,34.799c0.163,3.493-5.53,6.362-7.716,7.626
	c-2.186,1.309-2.825,2.854-2.825,2.854s0.135,11.832,0.135,16.901c0,5.055,0.134,10.644-1.813,16.872
	c-1.933,6.243-13.765,21.719-18.894,25.851c-5.159,4.177-9.67,11.03-17.512,15.713c-7.863,4.668-35.007,10.896-42.083,14.672
	c-7.076,3.775-16.724,11.543-23.666,20.759c-6.963,9.217-11.847,16.627-13.646,17.407c-1.799,0.773-38.739,30.013-38.739,30.013
	s44.7,38.709,56.889,57.157c8.742,13.236,20.693,31.075,50.943,12.947c5.961-3.561,29.73-20.127,32.303-20.648
	c2.571-0.489,16.976-8.948,23.918-9.959c6.949-1.056,13.141-2.765,20.975-9.647c7.856-6.897,13.141-10.123,18.938-11.172
	c5.783-1.019,8.475-3.247,9.515-6.102c1.026-2.869,2.824-2.46,8.473-2.988c5.679-0.505,9.098-3.359,9.098-3.359
	s-3.938-1.561-5.099-5.872c-1.145-4.251,3.479-5.559,9.008-10.777c5.546-5.188,14.301-15.311,19.831-21.033
	c5.529-5.694,10.465-9.039,10.465-9.039s-2.498-0.416-3.91-2.631s-1.813-1.68,4.892-13.512
	c6.688-11.811,20.008-32.027,30.562-51.069c10.063-18.181,12.591-26.431,15.549-33.447c2.951-7.017,5.247-21.153,5.247-21.153
	s-8.22,3.435-12.472,6.69c-4.251,3.239-9.156,4.83-9.156,4.83s-0.268-9.722,2.571-22.55c2.824-12.874,5.396-29.642,5.144-39.356
	c-0.253-9.767-6.823-10.42-7.21-15.986c-0.387-5.583,0.521-22.321,1.278-30.757c0.788-8.466,2.319-12.077,2.571-14.791
	c1.234-12.977,0.03-11.836-0.073-15.801c0,0-8.207,2.107-12.473,11.866c-2.824,6.455-6.109,12.342-7.373,13.234
	c-1.293,0.951-3.092-1.16-3.864-5.427c-0.773-4.263-6.124-20.799-8.236-27.671c-2.407-7.834-4.683-18.626-5.455-22.119
	C812.308,455.072,806.392,447.933,806.392,447.933"/>
<path fill="#9F8946" d="M806.392,447.933l-3.144-2.145c-0.023,0.037-3.583,5.255-7.336,11.524c-1.881,3.14-3.812,6.537-5.389,9.733
	c-1.568,3.229-2.817,6.125-3.285,8.878c-0.58,3.542-1.561,5.879-2.327,7.284c-0.379,0.702-0.713,1.17-0.914,1.435l-0.2,0.249
	l-0.015,0.012l1.635,1.575l-1.584-1.627l-0.051,0.052l1.635,1.575l-1.584-1.627l2.654,2.728l3.136-2.155
	c-0.007-0.007-2.906-4.229-6.302-9.034c-3.419-4.832-7.225-10.134-9.381-12.676c-1.88-2.219-5.098-6.15-8.213-9.852
	c-1.561-1.854-3.1-3.654-4.46-5.177c-1.366-1.535-2.496-2.75-3.5-3.642c-2.2-1.881-4.95-3.103-7.351-4.129
	c-2.371-0.988-4.304-1.613-4.371-1.631l-4.392-1.423l-0.55,4.589c-0.016,0.126-0.253,2.103-0.253,5.366
	c0,2.921,0.186,6.879,0.892,11.465c1.383,9.012,1.457,15.393,2.289,20.239l0.007,0.063l-0.007-0.049
	c0.691,3.813,2.542,14.241,3.366,17.861l-0.014-0.049l0.007,0.03c0.238,1.048,0.282,1.699,0.282,2.011l-0.008,0.223l1.108,0.137
	l-1.041-0.379l-0.067,0.242l1.108,0.137l-1.041-0.379l2.914,1.067l-2.527-1.788l-0.387,0.721l2.914,1.067l-2.527-1.788l3.106,2.201
	l1.725-3.394l-0.089,0.179l0.104-0.175l-0.016-0.004l-0.089,0.179l0.104-0.175c-0.417-0.256-3.635-2.26-6.096-7.901
	c-3.232-7.414-5.165-11.521-5.886-13.966c-0.58-1.806-1.584-2.906-2.572-3.895c-2.973-2.828-6.86-4.656-7.016-4.764l-3.62-1.795
	l-1.576,3.716c-0.134,0.32-3.018,7.18-3.024,17.686c0,0.859,0.022,1.743,0.066,2.65c0.527,10.822-0.632,22.083,2.482,32.383
	c1.695,5.456,2.416,8.006,2.394,10.266c0,1.635-0.334,3.545-1.256,6.764c-1.033,3.574-1.896,5.492-2.661,7.506
	c-0.78,1.992-1.404,4.296-1.375,7.203l0.029,1.226c0.104,2.534,0.171,5.664,0.171,8.362c0,1.672-0.029,3.181-0.074,4.251
	l-0.074,1.174l-0.015,0.112l1.048,0.155l-1.025-0.26l-0.022,0.104l1.048,0.155l-1.025-0.26l3.225,0.811l-2.764-1.836
	c-0.432,0.699-0.409,0.892-0.461,1.025l3.225,0.811l-2.764-1.836l0.021-0.029l-0.007,0.015l-0.438,0.624l-0.03,0.037l1.026,0.952
	l-0.796-1.145l-0.23,0.192l1.026,0.952l-0.796-1.145l0.788,1.121l-0.579-1.248l-0.209,0.127l0.788,1.121l-0.579-1.248l-0.617,0.23
	c-1.316,0.468-3.739,1.442-8.258,4.118l-1.866,1.106v2.171c0,0.029,0,22.469,0.603,34.985l-0.008-0.022l0.335-0.016h-0.335v0.016
	l0.335-0.016h-0.335h0.306l-0.29-0.111l-0.016,0.111h0.306l-0.29-0.111c0.015,0.135-0.833,1.189-2.097,2.037
	c-1.248,0.884-2.683,1.657-3.73,2.26l-0.016,0.007l-0.037,0.022c-3.062,1.829-4.177,4.147-4.385,4.66l-0.298,0.721l0.008,0.78
	c0,0.016,0.134,11.833,0.134,16.857v1.858c0,4.504-0.111,8.994-1.643,13.877c-0.289,0.988-1.278,3.01-2.661,5.247
	c-2.065,3.39-5.002,7.47-7.841,11.008c-2.817,3.53-5.679,6.607-7.144,7.767c-5.826,4.839-10.056,11.275-17.079,15.408
	c-1.472,0.892-4.535,2.156-8.184,3.403c-5.508,1.903-12.45,3.926-18.7,5.828c-6.303,1.933-11.722,3.62-15.036,5.352
	c-7.671,4.125-17.549,12.085-24.915,21.829c-3.515,4.653-6.495,8.83-8.77,11.878c-1.13,1.523-2.096,2.757-2.803,3.574l-0.803,0.855
	l-0.104,0.089l1.085,1.486l-0.729-1.68l-0.356,0.193l1.085,1.486l-0.729-1.68l-0.06,0.03l0.074-0.03l-0.811,0.438
	c-0.697,0.445-1.628,1.13-2.979,2.141c-9.291,6.95-35.788,27.932-35.811,27.946l-3.604,2.848l3.479,3.01
	c0.007,0.007,2.765,2.393,7.127,6.296c6.541,5.849,16.649,15.065,26.223,24.505c9.559,9.402,18.642,19.168,22.855,25.575
	c3.055,4.615,6.622,10.057,11.551,14.508c4.897,4.452,11.423,7.879,19.614,7.85c7.15-0.008,15.318-2.498,24.906-8.243
	c3.203-1.917,10.554-6.904,17.571-11.558c3.492-2.319,6.875-4.534,9.506-6.184c1.308-0.825,2.438-1.501,3.249-1.962l0.936-0.491
	l0.156-0.074l-0.698-1.813l0.378,1.902l0.32-0.089l-0.698-1.813l0.378,1.902l-0.75-3.731l0.714,3.739
	c0.929-0.193,1.493-0.446,2.267-0.766c2.557-1.106,6.562-3.211,10.77-5.173c4.133-1.963,8.57-3.724,10.718-3.991l0.022-0.008
	c7.203-1.033,14.619-3.174,22.914-10.547c7.716-6.771,12.354-9.432,17.103-10.286h-0.015c3.248-0.573,5.887-1.517,8.02-2.966
	c2.126-1.435,3.649-3.449,4.408-5.582l0.008-0.015v-0.008l0.11-0.253l-0.765-0.46l0.438,0.758l0.327-0.298l-0.765-0.46l0.438,0.758
	l-0.208-0.35l0.149,0.379l0.059-0.029l-0.208-0.35l0.149,0.379c0.059-0.118,2.155-0.282,5.522-0.55h-0.06h0.037
	c6.831-0.632,10.852-3.954,11.201-4.229l4.912-4.103l-5.945-2.355l-0.758,1.902l0.81-1.881l-0.052-0.021l-0.758,1.902l0.81-1.881
	l-1.285-0.854c-0.662-0.587-1.294-1.36-1.6-2.49l-0.044-0.244h-0.148l0.142,0.044l0.007-0.044h-0.148l0.142,0.044l0.35-0.453
	c0.913-1.086,4.087-3.048,7.647-6.37l0.022-0.015l-0.03,0.029c5.812-5.455,14.546-15.571,19.964-21.168
	c2.624-2.705,5.129-4.868,6.958-6.332c0.913-0.736,1.656-1.301,2.162-1.673l0.58-0.409l0.164-0.119l7.878-5.343l-9.388-1.562
	l-0.015,0.104l0.03-0.11l-0.016,0.007l-0.015,0.104l0.03-0.11l-1.338-0.915l-0.35-0.535l-0.09-0.148l-1.1,0.616l1.197-0.363
	l-0.098-0.253l-1.1,0.616l1.197-0.363l-1.813,0.558h1.895l-0.081-0.558l-1.813,0.558h1.895h-0.996l0.981,0.208l0.021-0.208h-1.003
	l0.981,0.208c-0.015-0.022,0.305-0.943,1.159-2.542c0.848-1.628,2.186-3.991,4.103-7.388c6.571-11.596,19.935-31.894,30.585-51.1
	c10.161-18.328,12.874-27.055,15.729-33.811c1.664-3.991,2.966-9.365,3.946-13.892c0.959-4.504,1.538-8.095,1.546-8.131l1.101-6.765
	l-6.318,2.646c-0.053,0.015-2.163,0.899-4.854,2.215c-2.697,1.33-5.931,3.032-8.466,4.957c-1.799,1.376-3.857,2.476-5.44,3.196
	c-0.796,0.357-1.464,0.633-1.925,0.803l-0.521,0.193l-0.133,0.045l1.174,3.619l3.806-0.11L850,627.233
	c0-2.259,0.178-10.599,2.49-21.02c2.734-12.517,5.232-28.377,5.247-38.805l-0.015-1.472c-0.075-5.738-2.453-9.611-4.43-11.9
	c-0.975-1.159-1.763-2.015-2.179-2.653l-0.609-1.598c-0.06-0.773-0.089-1.933-0.082-3.314c-0.007-7.062,0.729-19.935,1.353-26.84
	c0.759-8.19,2.148-11.03,2.572-14.78c0.416-4.399,0.565-7.261,0.565-9.346c0.008-2.066-0.172-3.456-0.335-4.456
	c-0.171-1.011-0.26-1.393-0.29-2.453l-0.126-4.775l-4.623,1.189c-0.305,0.082-2.757,0.735-5.82,2.805
	c-3.062,2.059-6.741,5.601-9.193,11.224c-1.367,3.118-2.854,6.12-4.11,8.373c-0.624,1.13-1.197,2.066-1.636,2.705l-0.498,0.676
	l-0.066,0.082l1.241,1.249l-1.011-1.435l-0.23,0.186l1.241,1.249l-1.011-1.435l-0.03,0.015l-0.029,0.022l1.605,2.186v-2.698
	l-1.605,0.513l1.605,2.186v-2.698v2.304l1.486-1.828c-0.148-0.118-0.654-0.468-1.486-0.476v2.304l1.486-1.828l-0.506,0.617
	l0.595-0.527l-0.089-0.09l-0.506,0.617l0.595-0.527c-0.036,0-0.743-1.183-1.048-3.085c-0.49-2.624-2.007-7.693-3.724-13.301
	c-1.709-5.548-3.575-11.413-4.623-14.813c-2.326-7.578-4.601-18.31-5.373-21.822c-0.365-1.579-1.033-2.862-1.785-4.207
	c-2.251-3.928-5.626-7.957-5.692-8.046l-3.226-3.895l-2.847,4.177L806.392,447.933l-2.928,2.427c0,0.003,0.326,0.401,0.869,1.089
	c0.803,1.029,2.044,2.675,3.107,4.3c1.062,1.568,1.901,3.341,1.924,3.649c0.774,3.479,3.048,14.327,5.538,22.421
	c1.062,3.471,2.928,9.309,4.615,14.813c1.68,5.444,3.226,10.781,3.508,12.416c0.395,2.134,0.989,3.924,1.881,5.441
	c0.454,0.757,0.989,1.464,1.762,2.103c0.766,0.624,1.888,1.234,3.322,1.234c1.055,0.015,2.147-0.394,2.899-0.96l-2.253-3.068
	l2.193,3.106c1.166-0.892,1.553-1.561,2.244-2.505c1.836-2.713,4.214-7.291,6.422-12.312c1.813-4.136,4.37-6.529,6.481-7.964
	c1.048-0.709,1.983-1.167,2.623-1.434l0.714-0.268l0.142-0.044l-0.224-0.77l0.193,0.777l0.03-0.007l-0.224-0.77l0.193,0.777
	l-0.943-3.687l-3.806,0.1c0.037,1.583,0.26,2.706,0.386,3.49c0.127,0.795,0.231,1.49,0.238,3.218c0,1.713-0.126,4.37-0.535,8.633
	c-0.082,1.684-1.754,6.068-2.571,14.802c-0.647,7.203-1.384,20.016-1.384,27.531c0,1.486,0.022,2.771,0.098,3.835
	c0.134,2.147,0.974,4.006,1.902,5.343c1.413,2.03,2.766,3.22,3.635,4.594c0.877,1.376,1.562,2.855,1.665,5.888l0.015,1.278
	c0.016,9.298-2.408,25.1-5.069,37.162c-2.467,11.164-2.668,20.009-2.668,22.662l0.008,0.817l0.147,5.077l4.832-1.568
	c0.215-0.09,5.396-1.725,10.287-5.426c1.724-1.331,4.727-2.973,7.202-4.17c1.233-0.609,2.355-1.122,3.166-1.479
	c0.803-0.357,1.264-0.55,1.264-0.558l-1.465-3.509l-3.753-0.609c0,0-0.142,0.84-0.394,2.245c-0.743,4.177-2.654,13.461-4.608,18.039
	c-3.062,7.276-5.404,15.05-15.371,33.082c-10.465,18.879-23.731,39.014-30.548,51.04c-2.2,3.895-3.642,6.451-4.608,8.347
	c-0.914,1.91-1.561,3.151-1.628,5.121c-0.014,1.011,0.328,2.066,0.669,2.69l0.781,1.271c1.211,1.888,2.824,2.95,4.059,3.537
	c1.256,0.595,2.191,0.758,2.438,0.803l0.624-3.754l-2.133-3.15c-0.142,0.104-5.263,3.567-11.061,9.535
	c-5.648,5.857-14.427,15.988-19.703,20.909l-0.038,0.036l0.03-0.021c-2.244,2.117-4.355,3.537-6.266,5.105
	c-0.951,0.796-1.888,1.635-2.705,2.795c-0.811,1.145-1.428,2.749-1.412,4.408c0,0.758,0.118,1.508,0.312,2.222
	c0.833,3.114,2.684,5.232,4.236,6.503c1.568,1.278,2.885,1.813,3.13,1.918l1.404-3.538l-2.438-2.92l1.049,1.248l-1.018-1.271
	l-0.031,0.023l1.049,1.248l-1.018-1.271c-0.045,0.045-2.78,2.148-7.024,2.513h-0.022c-2.713,0.275-4.482,0.237-6.54,0.713
	c-1.019,0.253-2.223,0.751-3.204,1.681c-0.988,0.913-1.583,2.044-1.955,3.106l0.008-0.022c-0.282,0.722-0.625,1.249-1.546,1.896
	c-0.921,0.64-2.52,1.315-5.055,1.762l-0.052,0.007l0.037-0.007c-6.846,1.241-12.776,5.031-20.773,12.056
	c-7.374,6.392-12.339,7.67-19.035,8.748l0.022-0.008c-4.467,0.706-9.767,3.182-14.695,5.515c-2.43,1.167-4.704,2.312-6.48,3.166
	c-0.885,0.425-1.65,0.781-2.208,1.02l-0.653,0.268l-0.134,0.044l0.268,0.899l-0.179-0.921l-0.089,0.021l0.268,0.899l-0.179-0.921
	l-0.022,0.007h-0.021c-0.796,0.179-1.138,0.364-1.599,0.572c-1.575,0.759-3.754,2.104-6.57,3.895
	c-4.17,2.669-9.491,6.229-14.293,9.432c-4.786,3.196-9.12,6.072-11.037,7.21c-8.815,5.285-15.668,7.173-20.997,7.165
	c-6.088-0.029-10.51-2.319-14.523-5.895c-3.977-3.567-7.27-8.442-10.295-13.044c-6.547-9.862-20.788-24.073-33.579-36.167
	c-12.763-12.048-23.963-21.747-23.993-21.77l-2.49,2.876l2.363,2.98c0.016-0.015,9.225-7.298,18.679-14.701
	c4.721-3.701,9.507-7.418,13.2-10.257c1.851-1.42,3.427-2.616,4.579-3.464l1.36-0.981l0.334-0.224l0.007-0.007l-1.353-2.363
	l1.07,2.498l0.282-0.135l-1.353-2.363l1.07,2.498h0.015c0.923-0.424,1.391-0.855,1.888-1.294c1.599-1.509,3.22-3.701,5.441-6.689
	c2.192-2.973,4.824-6.637,7.834-10.621c6.525-8.696,15.943-16.271,22.424-19.696c1.294-0.706,4.267-1.821,7.834-2.966
	c5.396-1.754,12.339-3.738,18.692-5.737c6.4-2.029,12.071-3.933,15.706-6.059c8.673-5.232,13.468-12.501,17.964-16.024
	c3.122-2.557,7.307-7.478,11.306-12.82c1.977-2.662,3.857-5.39,5.396-7.917c1.546-2.542,2.758-4.801,3.434-6.948
	c1.896-6.058,1.985-11.528,1.985-16.137v-1.858c0-5.121-0.134-16.939-0.134-16.946l-3.807,0.045l3.517,1.457l-1.338-0.558
	l1.263,0.721l0.075-0.163l-1.338-0.558l1.263,0.721c0.031-0.053,0.35-0.616,1.338-1.211l-1.954-3.264l1.902,3.292
	c0.967-0.563,3.093-1.656,5.092-3.202c1.012-0.788,2.029-1.703,2.898-2.892c0.855-1.175,1.628-2.757,1.628-4.676v-0.312
	l-0.007-0.037v0.015c-0.29-6.065-0.438-14.746-0.514-21.882c-0.074-7.135-0.074-12.717-0.074-12.731h-3.805l1.939,3.277
	c4.549-2.684,6.154-3.219,7.188-3.598c0.498-0.192,1.367-0.453,2.304-1.211c0.893-0.751,1.315-1.42,1.851-2.199l-0.015,0.021
	l0.022-0.037c0.602-0.996,0.535-1.249,0.64-1.576c0.17-0.951,0.2-1.739,0.252-2.942c0.038-1.168,0.06-2.572,0.06-4.096
	c0-2.811-0.067-6.014-0.186-8.696l-0.016-0.892c0.022-2.037,0.253-2.795,0.885-4.512c0.633-1.688,1.718-4.126,2.854-8.095
	c0.988-3.463,1.554-6.124,1.554-8.866c-0.022-3.918-1.101-7.15-2.736-12.502c-2.563-8.153-1.679-18.998-2.155-30.496
	c-0.036-0.792-0.052-1.553-0.052-2.301c0-4.545,0.633-8.302,1.256-10.884c0.312-1.29,0.617-2.286,0.841-2.944l0.252-0.717
	l0.067-0.152v-0.016l-3.501-1.486l-1.695,3.408l0.224,0.115c0.551,0.286,2.073,1.119,3.404,2.081l1.665,1.394l0.394,0.472
	l0.045,0.074l0.558-0.278l-0.595,0.182l0.037,0.096l0.558-0.278l-0.595,0.182c1.062,3.49,2.995,7.447,6.184,14.802
	c3.649,8.407,9.075,11.387,9.617,11.651l2.93,1.486l1.902-2.68c0.55-0.776,0.958-1.995,0.951-3.66c0-0.997-0.134-2.185-0.461-3.668
	l-0.008-0.019c-0.721-3.158-2.616-13.754-3.292-17.518l0.008,0.063l-0.008-0.048c-0.685-3.739-0.817-10.632-2.259-20.068
	c-0.633-4.137-0.803-7.715-0.803-10.313c0-1.453,0.052-2.597,0.104-3.367l0.066-0.858l0.022-0.234l-3.775-0.454l-1.167,3.62
	c0,0,0.394,0.13,1.093,0.379c1.04,0.372,2.69,1,4.273,1.731c1.568,0.71,3.106,1.609,3.664,2.126
	c0.476,0.413,1.583,1.561,2.848,2.988c3.849,4.33,9.617,11.432,12.553,14.892c1.71,2.014,5.627,7.41,8.964,12.145
	c3.359,4.757,6.236,8.945,6.243,8.953l2.557,3.716l3.233-3.144c0.49-0.453,4.191-4.389,5.604-13.159
	c0.171-1.201,1.175-3.861,2.608-6.734c2.148-4.366,5.218-9.499,7.723-13.49c1.256-1.996,2.379-3.717,3.182-4.932
	c0.803-1.215,1.278-1.914,1.278-1.914L806.392,447.933l-2.928,2.427L806.392,447.933z"/>
<path fill="#9F8946" d="M118.416,498.545c-4.144,5.467-8.276,10.956-11.58,15.883c-3.3,4.98-5.812,9.135-6.726,13.053l0.011-0.046
	l-0.007,0.03c-1.297,5.864-4.095,14.494-6.56,21.555c-1.23,3.537-2.378,6.689-3.218,8.964c-0.84,2.267-1.364,3.635-1.364,3.642
	l3.552,1.359l-2.396-2.957c-0.03,0.029-5.727,4.652-11.618,9.945c-2.947,2.652-5.935,5.47-8.339,8.02
	c-1.204,1.285-2.26,2.497-3.122,3.663c-0.855,1.205-1.576,2.2-1.992,3.873c-0.535,2.438-1.561,8.214-2.486,14.486
	c-0.914,6.28-1.724,12.836-1.735,17.058c0.003,0.869,0.033,1.658,0.141,2.445c0.736,5.366,3.88,33.565,4.649,39.192
	c0.204,1.36,0.65,2.497,1.234,3.85c4.08,9.038,16.705,26.98,23.223,33.899c1.208,1.25,3.003,2.698,5.552,4.653
	c17.679,13.453,69.413,47.465,87.716,56.941c20.325,10.524,43.135,22.826,52.467,27.56l0.015,0.008
	c4.619,2.312,17.73,8.92,29.682,14.954c11.948,6.028,22.717,11.462,22.74,11.477l3.434-6.793c-0.004,0-43.169-21.801-52.448-26.446
	l0.018,0.008c-9.13-4.631-32.03-16.977-52.41-27.53c-9.856-5.077-31.255-18.507-50.832-31.455
	c-9.803-6.481-19.187-12.858-26.523-18.046c-3.664-2.586-6.823-4.883-9.242-6.734c-2.401-1.82-4.147-3.292-4.664-3.851
	c-3.118-3.247-8.804-10.762-13.605-17.934c-2.408-3.598-4.627-7.135-6.247-10.041c-0.807-1.45-1.468-2.743-1.914-3.754
	c-0.454-0.989-0.665-1.784-0.65-1.8c-0.74-5.381-3.883-33.579-4.656-39.206l-0.067-1.397c-0.007-3.3,0.755-9.87,1.658-15.95
	c0.892-6.095,1.933-11.914,2.386-13.959l-0.788-0.178l0.75,0.312l0.037-0.134l-0.788-0.178l0.75,0.312
	c0.022-0.088,0.446-0.816,1.138-1.672c2.456-3.1,7.9-8.183,12.598-12.285c2.356-2.067,4.548-3.926,6.143-5.255
	c1.599-1.338,2.59-2.142,2.59-2.142l0.792-0.646l0.364-0.952c0.026-0.096,8.589-22.334,11.468-35.229l0.004-0.015
	c0.309-1.718,2.468-5.828,5.604-10.429c3.133-4.667,7.198-10.086,11.327-15.534L118.416,498.545z"/>
<path fill="#9F8946" d="M82.554,486.482c-0.974,3.226-1.201,3.854-1.509,5.173c-0.282,1.234-0.561,2.746-1.746,8.112
	c-0.958,4.408-3.627,11.205-6.34,17.834c-2.716,6.682-5.463,13.179-6.715,17.994c-0.257,0.967-0.732,1.673-1.713,2.632
	c-1.438,1.42-4.002,2.921-6.493,5.44c-2.508,2.497-4.652,6.459-4.589,11.625c0.003,2.49,0.427,5.247,1.323,8.406
	c2.553,8.971,4.129,21.524,5.01,31.715c0.446,5.099,0.725,9.625,0.892,12.873c0.167,3.24,0.224,5.173,0.224,5.181l7.61-0.224
	c-0.003-0.044-0.234-8.063-1.141-18.491c-0.918-10.443-2.476-23.234-5.273-33.135c-0.751-2.639-1.033-4.713-1.033-6.325
	c0.015-2.237,0.487-3.554,1.167-4.698c1.003-1.701,2.88-3.1,5.203-4.875c1.145-0.893,2.382-1.888,3.523-3.211
	c1.133-1.315,2.155-3.003,2.664-5.024c0.963-3.806,3.665-10.346,6.392-17.014c2.728-6.719,5.497-13.586,6.723-19.062
	c1.189-5.381,1.513-7.097,1.732-8.041c0.193-0.858,0.372-1.36,1.375-4.687L82.554,486.482z"/>
<path fill="#9F8946" d="M62.542,447.208c-0.004,0.008-2.925,15.051-5.958,31.882c-3.036,16.895-6.165,35.316-6.633,42.912
	c-0.082,1.286-0.116,2.631-0.116,4.006c0.019,14.694,4.003,33.559,4.018,33.692l7.448-1.562c0,0-0.234-1.122-0.599-3.076
	c-1.092-5.842-3.267-19.006-3.255-29.055c0-1.24,0.03-2.43,0.101-3.545c0.375-6.585,3.508-25.308,6.525-42.024
	c1.513-8.384,2.996-16.333,4.103-22.183c1.108-5.849,1.836-9.588,1.836-9.599L62.542,447.208z"/>
<path fill="#9F8946" d="M15.962,567.698c0.015,0.015,6.607,7.292,13.765,15.252c7.135,7.945,14.906,16.664,16.954,19.184
	l0.033,0.037l-0.041-0.053c2.539,3.123,6.377,6.557,9.682,9.366c3.292,2.787,5.998,4.868,6.031,4.891l4.631-6.036
	c0,0-0.632-0.49-1.68-1.322c-3.111-2.461-9.93-8.154-12.748-11.685l-0.007-0.015c-2.353-2.877-10.004-11.445-17.196-19.451
	c-7.169-7.975-13.784-15.281-13.784-15.281L15.962,567.698z"/>
<path fill="#9F8946" d="M153.773,572.396c-1.182,1.085-1.884,2.207-2.813,3.709c-3.077,5.128-7.228,14.389-10.933,23.04
	c-3.683,8.63-6.831,16.516-7.592,18.448c-0.435,1.138-0.628,2.215-0.922,3.783c-0.94,5.329-2.043,15.147-3.059,24.229
	c-0.505,4.526-0.981,8.853-1.389,12.257c-0.204,1.702-0.395,3.174-0.554,4.312c-0.156,1.114-0.312,1.977-0.357,2.125
	c-0.06,0.253-0.416,1.375-0.921,2.817c-1.799,5.157-5.642,15.386-9.016,24.268c-3.375,8.89-6.289,16.455-6.295,16.47l7.105,2.736
	c0-0.008,3.817-9.923,7.778-20.389c1.981-5.231,3.995-10.605,5.59-14.954c0.795-2.17,1.489-4.088,2.021-5.619
	c0.539-1.553,0.899-2.623,1.115-3.456c0.223-0.899,0.379-1.954,0.591-3.471c0.714-5.203,1.735-15.028,2.779-24.067
	c0.517-4.511,1.041-8.822,1.521-12.188c0.241-1.688,0.468-3.137,0.676-4.229l0.279-1.33l0.1-0.388l0.03-0.104
	c0.851-2.155,4.824-12.1,9.105-21.933c2.14-4.921,4.362-9.812,6.288-13.647c0.958-1.917,1.847-3.567,2.579-4.786l0.944-1.449
	l0.305-0.387l0.075-0.082l-0.052-0.051l0.048,0.059l0.004-0.008l-0.052-0.051l0.048,0.059L153.773,572.396z"/>
<path fill="#9F8946" d="M140.09,536.927c-0.06,0.045-6.366,4.438-13.899,10.777c-7.544,6.362-16.296,14.538-21.432,22.722
	c-5.147,8.302-8.031,19.703-9.897,29.878c-1.836,10.146-2.535,19.058-2.769,21.853c-0.041,0.557-0.052,1.138-0.052,1.902
	c0.004,5.463,0.732,19.771,1.46,33.521c0.365,6.868,0.729,13.557,1.004,18.834c0.271,5.255,0.453,9.231,0.449,10.25l-0.003,0.126
	l0.003-0.03v0.016c-0.066,1.896-0.278,4.646-0.476,6.883c-0.193,2.244-0.372,3.983-0.372,3.983l3.787,0.387l-3.241-1.999
	c-0.048,0.082-1.735,2.824-3.512,6.585c-1.757,3.805-3.671,8.503-3.965,13.178l0.004-0.015c-0.149,2.535-0.197,4.675-0.197,6.414
	c0,3.479,0.197,5.352,0.212,5.485l7.566-0.832l-0.022-0.224c-0.044-0.543-0.145-2.036-0.145-4.43c0-1.598,0.045-3.59,0.182-5.968
	v-0.016c0.112-2.728,1.654-7.017,3.256-10.354c0.792-1.68,1.579-3.158,2.163-4.207l0.698-1.219l0.242-0.401l0.457-0.743l0.089-0.87
	c0-0.044,0.721-7.075,0.877-11.371v-0.016l0.008-0.363c-0.004-1.509-0.186-5.307-0.461-10.644
	c-0.821-15.839-2.46-44.439-2.453-51.962l0.03-1.278c0.227-2.765,0.907-11.386,2.668-21.123c1.731-9.707,4.667-20.544,8.863-27.203
	c4.23-6.831,12.618-14.851,19.875-20.931c3.631-3.048,6.987-5.648,9.425-7.484c1.219-0.914,2.208-1.636,2.891-2.125l1.041-0.743
	L140.09,536.927z"/>
<path fill="#9F8946" d="M63.065,616.79c1.019,0.476,2.602,1.042,5.047,1.844c7.229,2.341,20.64,6.058,32.247,6.771h0.044h-0.026
	c1.862,0.104,3.794,0.148,5.756,0.148c14.152-0.008,30.106-2.267,30.199-2.274l-1.062-7.536c0,0-0.952,0.134-2.631,0.342
	c-5.032,0.617-16.471,1.857-26.505,1.857c-1.851,0-3.649-0.044-5.34-0.134h0.019c-6.894-0.408-15.084-2.125-21.763-3.895
	c-3.341-0.884-6.318-1.776-8.581-2.512c-2.23-0.721-3.917-1.367-4.132-1.479L63.065,616.79z"/>
<path fill="#9F8946" d="M39.453,700.042c0.007,0.008,1.94,0.625,5.024,1.703c4.624,1.612,11.785,4.244,18.515,7.201
	c6.7,2.906,13.1,6.378,15.59,8.823c3.809,3.597,9.893,12.338,15.683,21.107c5.861,8.823,11.509,17.698,15.579,22.589
	c4.441,5.27,10.885,8.926,16.92,11.684c6.028,2.728,11.725,4.475,14.497,5.344h0.011c2.193,0.661,5.686,2.431,8.496,4.542
	c2.873,2.059,4.928,4.697,5.099,5.834c0.635,2.58,2.326,10.688,3.824,18.023c1.505,7.352,2.839,14.011,2.843,14.026l7.462-1.502
	c-0.011-0.044-5.333-26.615-6.741-32.369c-1.189-4.37-4.445-7.425-7.934-10.115c-3.553-2.632-7.466-4.66-10.804-5.708h0.011
	c-2.754-0.854-8.105-2.513-13.627-5.01c-5.515-2.476-11.123-5.872-14.215-9.626c-3.46-4.116-9.224-13.08-15.077-21.918
	c-5.924-8.896-11.851-17.652-16.768-22.401c-2.731-2.58-6.563-4.84-10.945-7.076c-13.069-6.607-31.019-12.354-31.109-12.39
	L39.453,700.042z"/>
<path fill="#9F8946" d="M165.085,655.737c0,0-0.085,0.469-0.271,1.397c-0.561,2.787-2.014,9.483-4.489,17.69
	c-1.472,4.941-5.946,12.598-10.287,19.592c-2.174,3.516-4.311,6.912-6.061,9.914c-1.747,3.048-3.107,5.523-3.791,7.939
	c-0.483,1.932-0.524,4.058-0.55,7.046c0.011,13.713,2.739,42.173,3.4,48.356c0.839,7.752,2.482,11.55,2.646,11.907l6.935-3.137
	l-1.431,0.646l1.442-0.617l-0.011-0.029l-1.431,0.646l1.442-0.617c-0.022-0.06-1.315-3.092-2.025-9.618
	c-0.646-5.931-3.363-34.636-3.356-47.538c-0.022-2.669,0.183-4.817,0.287-5.062c0.211-0.893,1.379-3.309,3.021-6.095
	c2.472-4.244,6.002-9.692,9.261-15.186c3.263-5.522,6.276-11.022,7.793-15.942c3.427-11.357,4.95-19.853,4.969-19.957
	L165.085,655.737z"/>
<path fill="#9F8946" d="M24.164,630.957c0.018,0,0.798,0.714,1.731,1.665c3.39,3.427,10.12,10.718,16.504,17.511
	c3.2,3.397,6.318,6.683,8.938,9.336c2.661,2.684,4.634,4.623,6.199,5.775l0.044,0.029l-0.03-0.021
	c2.702,1.932,7.02,4.54,10.759,6.749c3.724,2.192,6.816,3.931,6.827,3.938l3.738-6.63c-0.007-0.007-3.044-1.717-6.704-3.872
	c-3.642-2.141-7.945-4.765-10.19-6.369l-0.044-0.038l0.055,0.045c-0.309-0.216-1.219-1.004-2.323-2.066
	c-3.943-3.769-10.918-11.216-17.18-17.913c-3.136-3.359-6.11-6.541-8.481-9.03c-1.188-1.248-2.226-2.318-3.077-3.174
	c-0.873-0.862-1.453-1.441-2.129-1.969L24.164,630.957z"/>
<path fill="#9F8946" d="M209.655,698.49c-0.011,0.037-1.892,6.035-3.78,13.297c-1.884,7.328-3.816,15.66-3.854,21.347l0.079,1.724
	c0.401,4.162,0.921,12.22,1.338,19.169c0.413,6.957,0.725,12.828,0.725,12.844l7.604-0.401c-0.004-0.037-1.249-23.562-2.092-32.347
	l-0.041-0.988c-0.033-3.999,1.762-12.421,3.608-19.43c0.918-3.529,1.84-6.778,2.531-9.134c0.691-2.356,1.145-3.807,1.145-3.807
	L209.655,698.49z"/>
<path fill="#9F8946" d="M235.052,708.211c0.003,0.008,0.672,4.14,1.349,9.395c0.676,5.24,1.338,11.64,1.334,15.772
	c0.018,1.687-0.157,3.069-0.25,3.284l-0.007,0.022l0.015-0.036c-0.327,1.122-0.417,2.11-0.509,3.389
	c-0.082,1.256-0.116,2.721-0.116,4.362c0.008,13.707,2.331,40.806,2.334,40.865l7.581-0.654c0-0.015-0.576-6.756-1.152-15.191
	c-0.58-8.414-1.152-18.53-1.152-25.02c0-1.538,0.033-2.86,0.097-3.864l0.115-1.227l0.059-0.35l0.019-0.096l-0.003,0.021l0.011-0.037
	c0.487-1.717,0.55-3.411,0.569-5.47c-0.019-9.589-2.776-26.282-2.78-26.386L235.052,708.211z"/>
<path fill="#9F8946" d="M204.422,765.272c-0.044,0.222-6.826,17.087-6.886,31.893c0,1.174,0.044,2.349,0.145,3.501l0.019,0.224
	l0.044,0.222c0.852,4.096,1.673,7.054,2.234,9.321c0.572,2.273,0.851,3.753,0.847,5.15c0,1.888-0.494,4.155-2.304,8.57
	c-2.263,5.499-3.415,8.525-4.024,10.249c-0.305,0.862-0.476,1.404-0.587,1.807c-0.104,0.438-0.193,0.616-0.215,1.36h7.611h-3.397
	l3.34,0.639l0.057-0.639h-3.397l3.34,0.639l-1.617-0.312l1.603,0.379l0.014-0.066l-1.617-0.312l1.603,0.379
	c-0.015-0.007,0.665-2.363,4.329-11.23c1.937-4.734,2.869-8.087,2.873-11.461c-0.004-2.431-0.476-4.593-1.074-6.994
	c-0.602-2.416-1.36-5.158-2.163-9.023l-3.728,0.773l3.791-0.327c-0.079-0.914-0.115-1.865-0.115-2.847
	c-0.011-6.243,1.561-13.632,3.169-19.354c0.803-2.861,1.606-5.322,2.208-7.054c0.301-0.861,0.55-1.546,0.721-2.014l0.261-0.677
	L204.422,765.272z"/>
<path fill="#9F8946" d="M183.058,679.499c-0.004,0.016-1.457,8.221-3.044,17.133c-1.583,8.904-3.311,18.544-3.835,21.265
	l0.004-0.015c-0.242,1.293-0.283,2.631-0.29,4.318c0.011,10.004,2.471,31.262,2.475,31.343l7.559-0.862
	c0-0.014-0.605-5.314-1.215-11.802c-0.609-6.482-1.211-14.204-1.208-18.679c-0.007-1.435,0.085-2.587,0.149-2.848l0.007-0.044
	l-0.003,0.03c1.085-5.664,6.89-38.494,6.894-38.516L183.058,679.499z"/>
<path fill="#9F8946" d="M129.866,766.58c-0.007,0-2.312,0.052-5.794,0.052c-3.835,0-9.082-0.06-14.096-0.312
	c-4.995-0.237-9.852-0.706-12.49-1.36l0.115,0.031l-0.123-0.031c-3.794-0.892-8.451-3.485-11.977-5.9
	c-1.772-1.196-3.285-2.342-4.341-3.174l-1.223-0.988l-0.398-0.342l-5.001,5.737c0.077,0.066,2.764,2.408,6.692,5.069
	c3.947,2.653,9.064,5.679,14.464,7.001l-0.111-0.029l0.104,0.029c3.672,0.877,8.682,1.293,13.914,1.561
	c5.21,0.253,10.554,0.32,14.471,0.32c3.553,0,5.932-0.053,5.95-0.053L129.866,766.58z"/>
<path fill="#9F8946" d="M132.115,620.455c0,0.008,3.649,14.301,7.6,28.913c1.977,7.306,4.028,14.693,5.749,20.446
	c0.862,2.877,1.639,5.345,2.301,7.232c0.334,0.944,0.635,1.747,0.933,2.438l0.483,0.997l0.903,1.24l0.056-0.044l-0.056,0.044
	l0.007,0.008l0.048-0.052l-0.056,0.044c0.179,0.186,0.892,1.36,1.539,2.758c1.011,2.134,2.114,4.912,2.943,7.121
	c0.832,2.207,1.39,3.835,1.39,3.842l0.011,0.038l0.015,0.028c0.007,0.022,4.679,12.881,9.536,26.408
	c2.427,6.765,4.898,13.691,6.849,19.244c1.94,5.507,3.408,9.825,3.665,10.799l7.343-1.991c-0.45-1.636-1.854-5.709-3.828-11.335
	c-5.875-16.73-16.412-45.719-16.415-45.726l-3.575,1.301l3.601-1.234c-0.015-0.036-1.122-3.27-2.557-6.867
	c-0.717-1.807-1.516-3.694-2.33-5.366c-0.866-1.702-1.527-3.062-2.813-4.408l-1.527,1.538l1.921-1.055l-0.39-0.476l-1.531,1.53
	l1.921-1.055c-0.107-0.156-0.699-1.605-1.315-3.493c-2.26-6.778-6.05-20.552-9.239-32.525c-3.192-11.98-5.801-22.208-5.809-22.23
	L132.115,620.455z"/>
<path fill="#9F8946" d="M82.599,488.823c0.003,0.008,0.922,2.665,2.308,6.801c2.077,6.198,5.199,15.697,7.785,24.342
	c1.293,4.317,2.453,8.429,3.274,11.772c0.833,3.286,1.29,6.028,1.26,6.749c0.015,1.167,0.245,2.073,0.546,3.106
	c1.145,3.739,3.761,9.068,7.157,15.735c5.077,9.923,11.844,22.477,17.348,34.16c2.753,5.835,5.188,11.453,6.923,16.352
	c1.746,4.884,2.75,9.112,2.798,11.767l7.611-0.193c-0.189-5.843-2.59-12.963-5.927-21.05c-5.028-12.062-12.35-25.954-18.4-37.579
	c-3.021-5.812-5.727-11.053-7.637-15.125c-0.955-2.036-1.713-3.783-2.196-5.1l-0.509-1.59l-0.093-0.432l-0.011-0.088l-0.383,0.036
	h0.383v-0.036l-0.383,0.036h0.383c-0.011-1.546-0.293-3.188-0.717-5.263c-1.498-7.112-5.058-18.707-8.269-28.683
	c-3.207-9.956-6.054-18.187-6.058-18.205l-7.195,2.489V488.823z"/>
<path fill="#9F8946" d="M206.738,763.064c0,0-9.904,3.367-20.399,6.979c-5.251,1.806-10.647,3.664-15.032,5.202
	c-4.411,1.546-7.711,2.721-9.086,3.271l0.048-0.015l-0.03,0.015c-0.78,0.319-4.318,1.42-8.755,2.72
	c-6.73,1.985-15.924,4.624-23.681,6.95c-3.879,1.159-7.395,2.245-10.101,3.145c-1.353,0.445-2.501,0.847-3.434,1.211l-1.271,0.535
	l-1.341,0.803l4.764,5.932l-1.129-1.405l0.84,1.605l0.29-0.2l-1.129-1.405l0.84,1.605c0.148-0.089,1.226-0.528,2.627-1.003
	c5.017-1.74,15.077-4.698,24.297-7.381c4.616-1.346,9.034-2.631,12.568-3.679c3.568-1.07,6.087-1.836,7.44-2.371l0.019-0.008
	c0.981-0.394,4.397-1.62,8.737-3.137c6.548-2.296,15.393-5.337,22.599-7.804c7.206-2.468,12.758-4.356,12.772-4.356L206.738,763.064
	z"/>
<path fill="#9F8946" d="M584.432,812.052c0.022-0.015,10.785-5.448,22.729-11.477c11.944-6.034,25.056-12.643,29.671-14.954
	l0.045-0.021l-0.03,0.014c9.35-4.733,32.153-17.035,52.475-27.56c10.51-5.434,31.797-18.827,51.544-31.871
	c9.856-6.51,19.288-12.925,26.721-18.18c3.709-2.624,6.928-4.958,9.462-6.891c2.549-1.955,4.341-3.403,5.545-4.646
	c3.761-3.961,9.417-11.497,14.427-18.96c2.496-3.724,4.801-7.396,6.57-10.568c0.885-1.592,1.643-3.056,2.229-4.386
	c0.579-1.346,1.026-2.482,1.227-3.851c0.766-5.619,3.917-33.811,4.646-39.199c0.104-0.772,0.134-1.546,0.134-2.416
	c-0.008-4.214-0.811-10.77-1.725-17.058c-0.922-6.273-1.947-12.063-2.49-14.508v0.015c-0.416-1.681-1.137-2.676-1.991-3.881
	c-2.974-3.983-8.593-9.148-13.661-13.63c-5.033-4.431-9.403-7.976-9.425-7.998l-2.401,2.957l3.554-1.359c0,0-0.521-1.367-1.36-3.642
	c-2.505-6.779-7.812-21.688-9.752-30.519c-0.914-3.902-3.434-8.057-6.727-13.037c-3.308-4.92-7.439-10.412-11.587-15.883
	l-6.064,4.601c4.132,5.448,8.197,10.859,11.326,15.526c3.145,4.601,5.3,8.711,5.619,10.436
	c2.877,12.896,11.409,35.142,11.438,35.237l0.365,0.952l0.787,0.646c0.008,0,1.39,1.122,3.509,2.906
	c3.182,2.677,7.989,6.808,12.033,10.674c2.014,1.924,3.843,3.79,5.136,5.299c0.646,0.751,1.16,1.42,1.472,1.896l0.305,0.52
	l0.029,0.06l0.988-0.363l-1.024,0.223l0.036,0.141l0.988-0.363l-1.024,0.223l0.007,0.06l-0.007-0.045
	c0.461,2.037,1.493,7.864,2.385,13.966c0.907,6.08,1.665,12.658,1.65,15.95l-0.06,1.39c-0.758,5.612-3.909,33.812-4.645,39.199
	c0.014,0.016-0.201,0.811-0.655,1.8c-3.166,7.35-16.247,26.044-21.763,31.729c-0.52,0.559-2.259,2.03-4.659,3.851
	c-16.999,12.984-69.28,47.323-86.604,56.235c-20.381,10.554-43.273,22.899-52.415,27.53l-0.022,0.015l0.037-0.022
	c-9.283,4.646-52.422,26.446-52.43,26.446L584.432,812.052z"/>
<path fill="#9F8946" d="M811.789,613.468c0-0.008,0.051-1.94,0.223-5.181c0.483-9.699,2.044-31.098,5.901-44.588
	c0.892-3.151,1.316-5.909,1.316-8.392c0.014-3.435-0.863-6.37-2.268-8.659c-2.118-3.441-5.017-5.329-7.039-6.935
	c-1.033-0.795-1.857-1.509-2.415-2.163c-0.565-0.661-0.877-1.219-1.07-1.955c-1.249-4.815-4.007-11.312-6.72-17.994
	c-2.712-6.63-5.381-13.427-6.332-17.827c-1.189-5.374-1.472-6.894-1.754-8.124c-0.312-1.312-0.535-1.932-1.501-5.158l-7.285,2.185
	c0.996,3.326,1.175,3.832,1.368,4.693c0.223,0.948,0.55,2.657,1.739,8.042c1.219,5.471,3.984,12.338,6.719,19.057
	c2.728,6.668,5.426,13.208,6.392,17.014c0.685,2.713,2.268,4.764,3.836,6.25c2.386,2.23,4.771,3.635,6.28,5.233
	c1.479,1.627,2.371,3.003,2.438,6.34c0,1.612-0.275,3.687-1.025,6.317c-2.803,9.894-4.363,22.685-5.278,33.128
	c-0.906,10.428-1.137,18.447-1.137,18.491L811.789,613.468z"/>
<path fill="#9F8946" d="M818.828,559.701c0.014-0.126,4.006-19.05,4.021-33.744c0-1.36-0.037-2.684-0.111-3.962
	c-0.469-7.596-3.605-26.01-6.646-42.9c-3.04-16.832-5.968-31.875-5.968-31.886l-7.478,1.457c0.008,0.007,0.736,3.746,1.844,9.596
	c1.665,8.774,4.177,22.271,6.354,34.881c2.178,12.569,4.014,24.423,4.296,29.314c0.066,1.101,0.097,2.275,0.097,3.501
	c0.008,6.689-0.951,14.812-1.925,21.191c-0.483,3.188-0.974,5.952-1.338,7.915c-0.356,1.954-0.595,3.084-0.595,3.092
	L818.828,559.701z"/>
<path fill="#9F8946" d="M810.301,616.375c0.03-0.022,2.736-2.104,6.028-4.891c3.308-2.81,7.144-6.243,9.685-9.366l-0.007,0.016
	c2.051-2.52,9.817-11.238,16.953-19.184c7.158-7.96,13.751-15.237,13.758-15.252l-5.634-5.113
	c-0.008,0.007-6.623,7.307-13.788,15.281c-7.187,8.006-14.842,16.574-17.19,19.451l-0.008,0.015
	c-1.858,2.319-5.561,5.701-8.688,8.347c-1.576,1.331-3.018,2.505-4.066,3.338c-1.04,0.832-1.68,1.322-1.68,1.322L810.301,616.375z"
	/>
<path fill="#9F8946" d="M762.763,707.854c-0.008-0.021-3.812-9.899-7.767-20.343c-1.978-5.225-3.984-10.576-5.567-14.88
	c-0.788-2.155-1.473-4.043-1.984-5.515c-0.506-1.449-0.87-2.564-0.93-2.825l0.007,0.016c-0.059-0.179-0.244-1.256-0.423-2.639
	c-0.677-4.95-1.71-14.828-2.758-23.903c-0.521-4.548-1.048-8.896-1.546-12.397c-0.253-1.747-0.49-3.285-0.729-4.556
	c-0.26-1.302-0.438-2.215-0.832-3.233l0.015,0.021c-0.877-2.222-4.853-12.204-9.201-22.179c-2.171-4.994-4.43-9.975-6.459-14.018
	c-1.019-2.029-1.97-3.82-2.861-5.299c-0.937-1.502-1.636-2.624-2.817-3.709l-5.024,5.723l0.044-0.059l-0.052,0.051l0.008,0.008
	l0.044-0.059l-0.052,0.051c0.149,0.127,0.841,1.056,1.569,2.334c2.683,4.563,6.829,13.743,10.383,22.09
	c3.561,8.369,6.607,16.01,7.328,17.846l0.016,0.022v0.015c0.088,0.238,0.342,1.338,0.579,2.758
	c0.869,5.062,1.978,14.827,2.958,23.695c0.491,4.444,0.959,8.681,1.368,12.062c0.201,1.688,0.387,3.167,0.557,4.363
	c0.179,1.219,0.312,2.081,0.498,2.868l0.008,0.016c0.216,0.825,0.579,1.896,1.114,3.448c3.725,10.637,15.394,40.939,15.401,40.962
	L762.763,707.854z"/>
<path fill="#9F8946" d="M785.485,727.663c0.015-0.127,0.208-1.992,0.208-5.471c0-1.731-0.053-3.872-0.193-6.399
	c-0.298-4.667-2.208-9.373-3.97-13.171c-1.769-3.768-3.448-6.503-3.5-6.584l-3.24,1.991l3.782-0.379
	c0-0.008-0.171-1.739-0.364-3.983c-0.2-2.245-0.408-5.003-0.476-6.898l-0.007-0.119c0-1.04,0.178-5.017,0.453-10.264
	c0.817-15.869,2.453-44.105,2.46-52.288c0-0.78-0.015-1.376-0.06-1.94c-0.223-2.795-0.922-11.706-2.765-21.853
	c-1.866-10.175-4.758-21.576-9.907-29.878c-5.121-8.177-13.877-16.352-21.414-22.722c-7.536-6.333-13.84-10.732-13.898-10.777
	l-4.355,6.244l1.04,0.743c2.387,1.716,8.555,6.279,15.081,11.98c6.519,5.686,13.4,12.591,17.088,18.56
	c4.206,6.659,7.143,17.496,8.882,27.203c1.762,9.737,2.438,18.358,2.668,21.123l0.03,1.316c0,5.009-0.722,19.442-1.45,33.097
	c-0.363,6.838-0.729,13.513-1.003,18.805c-0.268,5.321-0.453,9.127-0.461,10.65l0.008,0.402c0.163,4.288,0.877,11.319,0.885,11.356
	l0.082,0.87l0.46,0.742l0.237,0.409c0.58,0.974,2.081,3.628,3.449,6.727c1.375,3.069,2.557,6.674,2.668,9.068
	c0.134,2.378,0.179,4.378,0.179,5.968c0,1.598-0.045,2.795-0.089,3.583l-0.053,0.854l-0.022,0.231L785.485,727.663z"/>
<path fill="#9F8946" d="M736.354,623.279c0.09,0.008,16.032,2.267,30.192,2.274c1.962,0,3.895-0.045,5.76-0.148h0.022
	c7.745-0.469,16.263-2.289,23.242-4.132c3.492-0.922,6.585-1.852,8.992-2.64c2.446-0.795,4.037-1.368,5.047-1.836l-3.255-6.882
	c-0.23,0.119-1.918,0.766-4.147,1.486c-6.786,2.222-19.979,5.805-30.34,6.406h0.045h-0.022c-1.694,0.09-3.493,0.134-5.344,0.134
	c-6.689,0-14.011-0.549-19.63-1.099c-2.81-0.275-5.195-0.551-6.875-0.759c-1.673-0.208-2.623-0.342-2.631-0.342L736.354,623.279z"/>
<path fill="#9F8946" d="M711.151,820.919c0-0.016,1.338-6.675,2.839-14.026c1.502-7.336,3.196-15.443,3.829-18.031
	c0.17-1.129,2.222-3.768,5.098-5.826c2.802-2.119,6.295-3.881,8.488-4.542l-0.066,0.022l0.074-0.022
	c2.779-0.869,8.473-2.616,14.508-5.344c6.036-2.758,12.479-6.414,16.925-11.684c4.065-4.891,9.714-13.766,15.571-22.589
	c5.789-8.77,11.869-17.511,15.683-21.107c1.642-1.598,5.069-3.754,9.119-5.782c6.087-3.092,13.64-6.104,19.615-8.318
	c2.995-1.099,5.597-2.014,7.447-2.646s2.928-0.974,2.936-0.981l-2.333-7.238c-0.046,0.014-8.065,2.594-17.252,6.25
	c-4.601,1.829-9.483,3.925-13.854,6.14c-4.379,2.236-8.214,4.496-10.941,7.076c-4.913,4.749-10.844,13.505-16.768,22.401
	c-5.85,8.838-11.61,17.802-15.066,21.918c-3.092,3.754-8.703,7.15-14.219,9.626c-5.522,2.497-10.881,4.155-13.631,5.01h0.007
	c-3.337,1.041-7.246,3.076-10.799,5.708c-3.486,2.69-6.749,5.745-7.932,10.115c-1.411,5.754-6.733,32.325-6.741,32.369
	L711.151,820.919z"/>
<path fill="#9F8946" d="M726.983,779.586c0.163-0.356,1.82-4.162,2.652-11.922c0.669-6.169,3.391-34.554,3.405-48.29
	c-0.03-3.024-0.067-5.165-0.558-7.104c-0.685-2.416-2.045-4.898-3.791-7.939c-2.624-4.496-6.132-9.906-9.291-15.235
	c-3.159-5.3-5.946-10.592-7.046-14.278c-1.65-5.463-2.847-10.265-3.627-13.684c-0.395-1.71-0.684-3.076-0.87-4.007
	c-0.193-0.937-0.274-1.404-0.274-1.404l-7.492,1.353c0.022,0.098,1.561,8.6,4.979,19.949c2.015,6.533,6.697,14.234,11.082,21.384
	c2.193,3.553,4.311,6.928,5.961,9.752c1.643,2.786,2.81,5.202,3.025,6.102c0.104,0.245,0.312,2.424,0.29,5.113
	c0.007,12.926-2.705,41.563-3.36,47.473c-0.371,3.493-0.921,5.976-1.352,7.544c-0.208,0.78-0.402,1.338-0.521,1.672l-0.134,0.35
	l-0.021,0.044l1.464,0.64l-1.449-0.661l-0.015,0.021l1.464,0.64l-1.449-0.661L726.983,779.586z"/>
<path fill="#9F8946" d="M797.548,675.939c0.007-0.008,3.092-1.746,6.814-3.938c3.739-2.209,8.058-4.817,10.763-6.742l0.045-0.037
	l-0.022,0.022c0.929-0.677,1.896-1.561,3.129-2.735c4.252-4.073,11.194-11.498,17.481-18.225c3.137-3.352,6.103-6.525,8.429-8.972
	c1.167-1.219,2.17-2.267,2.95-3.04c0.751-0.757,1.368-1.315,1.376-1.308l-4.624-6.05c-0.765,0.602-1.449,1.293-2.512,2.356
	c-3.59,3.627-10.265,10.873-16.634,17.645c-3.182,3.382-6.273,6.63-8.815,9.209c-2.497,2.549-4.631,4.534-5.24,4.95l0.022-0.015
	c-2.259,1.612-6.562,4.236-10.205,6.377c-3.656,2.155-6.697,3.865-6.704,3.872L797.548,675.939z"/>
<path fill="#9F8946" d="M668.51,766.87c0-0.016,0.312-5.887,0.729-12.844c0.416-6.949,0.937-15.007,1.345-19.184l0.074-1.717
	c-0.036-5.687-1.97-14.019-3.857-21.339c-1.888-7.262-3.769-13.26-3.775-13.297l-7.27,2.273c0.008,0.008,0.461,1.45,1.152,3.807
	c1.033,3.53,2.595,9.074,3.88,14.567c1.293,5.463,2.282,11.022,2.26,13.988l-0.044,0.988c-0.849,8.801-2.089,32.317-2.089,32.354
	L668.51,766.87z"/>
<path fill="#9F8946" d="M633.48,785.257c0-0.059,2.319-27.182,2.327-40.871c0-1.644-0.038-3.1-0.112-4.356
	c-0.096-1.271-0.186-2.259-0.505-3.374c-0.089-0.215-0.268-1.599-0.246-3.3c-0.007-4.133,0.655-10.524,1.331-15.758
	c0.677-5.254,1.346-9.372,1.346-9.387l-7.507-1.219c-0.008,0.104-2.766,16.775-2.78,26.363c0.015,2.074,0.082,3.775,0.572,5.492
	l0.022,0.104c0.141,0.633,0.274,2.78,0.268,5.435c0,6.48-0.572,16.604-1.145,25.025c-0.58,8.437-1.152,15.191-1.152,15.206
	L633.48,785.257z"/>
<path fill="#9F8946" d="M678.982,837.569c-0.021-0.744-0.11-0.922-0.214-1.36c-0.328-1.175-1.22-3.791-4.624-12.063
	c-1.799-4.407-2.289-6.667-2.289-8.562c-0.008-1.397,0.274-2.877,0.84-5.158c0.564-2.26,1.375-5.225,2.223-9.313l0.044-0.222
	l0.022-0.224c0.097-1.159,0.149-2.327,0.149-3.508c-0.061-14.799-6.831-31.664-6.883-31.879l-7.076,2.78l0.252,0.684
	c1.22,3.195,6.133,17.444,6.096,28.415c0,0.988-0.045,1.939-0.12,2.854l3.791,0.327l-3.724-0.773
	c-0.803,3.865-1.561,6.615-2.163,9.023c-0.587,2.401-1.062,4.563-1.062,6.994c0,3.382,0.929,6.733,2.862,11.453
	c2.244,5.441,3.359,8.385,3.901,9.9c0.268,0.759,0.387,1.16,0.424,1.294l0.015,0.044l2.943-0.705h-3.018l0.074,0.705l2.943-0.705
	h-3.018H678.982z"/>
<path fill="#9F8946" d="M694.316,753.542c0-0.081,2.46-21.346,2.468-31.351c-0.008-1.688-0.044-3.018-0.29-4.304l0.008,0.008
	c-0.527-2.721-2.252-12.36-3.836-21.265c-1.582-8.912-3.032-17.117-3.039-17.133l-7.492,1.324c0,0.021,5.805,32.852,6.89,38.516
	l-0.008-0.067l0.016,0.074c0.06,0.268,0.148,1.413,0.142,2.847c0.007,4.475-0.595,12.197-1.205,18.679
	c-0.608,6.495-1.219,11.796-1.219,11.81L694.316,753.542z"/>
<path fill="#9F8946" d="M793.147,754.554l-0.4,0.342c-0.975,0.81-3.635,2.95-6.942,5.075c-3.293,2.134-7.292,4.208-10.6,4.987
	l-0.007,0.008c-2.631,0.646-7.471,1.115-12.442,1.353c-4.995,0.253-10.228,0.312-14.07,0.312c-3.522,0-5.856-0.052-5.864-0.052
	l-0.163,7.61c0.021,0,2.431,0.053,6.027,0.053c3.925,0,9.254-0.06,14.442-0.32c5.217-0.268,10.204-0.684,13.869-1.568l-0.008,0.008
	c5.396-1.322,10.51-4.34,14.464-7.001c3.925-2.661,6.615-5.003,6.689-5.069L793.147,754.554z"/>
<path fill="#9F8946" d="M733.196,618.567c-0.008,0.03-3.643,14.263-7.573,28.816c-1.97,7.269-4.014,14.612-5.694,20.246
	c-0.847,2.817-1.598,5.203-2.191,6.897c-0.298,0.847-0.551,1.517-0.729,1.933l-0.172,0.364l1.918,1.047l-1.538-1.522l-0.38,0.476
	l1.918,1.047l-1.538-1.522l0.021-0.023c-1.293,1.354-1.954,2.714-2.824,4.416c-2.415,4.973-4.854,12.167-4.891,12.233l3.604,1.234
	l-3.575-1.301c0,0-4.682,12.896-9.551,26.438c-2.431,6.771-4.905,13.713-6.86,19.288c-1.977,5.626-3.382,9.699-3.827,11.335
	l7.344,1.991c0.26-0.974,1.724-5.3,3.664-10.799c2.921-8.325,7.023-19.749,10.383-29.077c3.367-9.335,5.99-16.56,5.998-16.575
	l0.016-0.036l0.008-0.03c0.007-0.007,0.26-0.765,0.698-1.97c0.662-1.813,1.701-4.601,2.771-7.075
	c0.535-1.241,1.078-2.401,1.554-3.285l0.617-1.056l0.193-0.283l0.045-0.052l-0.224-0.2l0.208,0.216l0.016-0.016l-0.224-0.2
	l0.208,0.216l0.03-0.03l-0.008,0.008l0.899-1.241c0.646-1.219,1.145-2.653,1.858-4.75c4.741-14.285,15.185-55.217,15.2-55.269
	L733.196,618.567z"/>
<path fill="#9F8946" d="M782.89,486.337c-0.008,0.019-3.724,10.77-7.447,22.554c-1.865,5.901-3.731,12.049-5.144,17.281
	c-0.713,2.623-1.308,5.01-1.731,7.053c-0.424,2.074-0.706,3.717-0.721,5.263h0.155l-0.155-0.015v0.015h0.155l-0.155-0.015
	c0,0.305-0.528,2.074-1.486,4.259c-3.367,7.879-11.544,22.64-18.895,37.386c-3.679,7.396-7.164,14.821-9.796,21.547
	c-2.616,6.757-4.437,12.702-4.594,17.75l7.611,0.193c0.045-3.813,2.111-10.651,5.345-18.314c4.815-11.573,12.062-25.36,18.12-36.999
	c3.033-5.82,5.761-11.112,7.774-15.4c1.011-2.155,1.836-4.051,2.445-5.709c0.595-1.694,1.048-2.987,1.086-4.697
	c-0.016-0.445,0.17-1.896,0.557-3.701c1.345-6.444,4.884-18.062,8.058-27.909c3.181-9.871,6.005-18.035,6.012-18.054l-7.194-2.482
	V486.337z"/>
<path fill="#9F8946" d="M663.485,770.273c0.022,0.008,9.9,3.367,20.381,6.965c5.24,1.807,10.629,3.664,14.991,5.195
	c4.341,1.517,7.76,2.743,8.741,3.137l0.015,0.008c1.568,0.624,4.861,1.605,9.425,2.958c6.779,1.999,15.957,4.63,23.65,6.941
	c3.843,1.146,7.321,2.223,9.893,3.077c1.278,0.424,2.341,0.795,3.077,1.078l0.788,0.334l0.097,0.045l1.062-1.888l-1.353,1.688
	l0.29,0.2l1.062-1.888l-1.353,1.688l4.772-5.932c-0.789-0.595-1.175-0.714-1.739-0.981c-1.97-0.847-5.382-1.947-9.782-3.308
	c-6.556-2.021-15.08-4.488-22.38-6.614c-3.642-1.063-6.986-2.044-9.603-2.832c-2.586-0.781-4.57-1.42-5.084-1.628l-0.044-0.022
	l0.06,0.022c-1.376-0.55-4.676-1.725-9.083-3.271c-13.156-4.601-35.424-12.175-35.432-12.182L663.485,770.273z"/>
<path fill="#0053A1" d="M438.446,861.895c0,0,27.132,0,57.74,1.13c30.532,1.13,70.69,4.979,70.69,4.979s1.108,35.134,3.807,48.097
	c2.683,13.007,30.956,23.323,52.748,22.922c21.793-0.371,43.964,2.312,78.325,8.429c34.397,6.109,68.781,34.814,68.781,34.814
	l-25.984-73.404l87.08-9.187c0,0-19.414-14.137-47.346-27.062c-27.887-13.007-64.552-19.146-87.481-20.291
	c-22.952-1.145-64.218,2.676-64.218,2.676s-0.356-25.583-1.13-35.914c-0.787-10.331-2.289-44.358-2.289-44.358
	s-30.221-9.543-78.741-15.638c-48.505-6.132-113.871-6.511-113.871-6.511h-0.387c0,0-65.347,0.379-113.875,6.511
	c-48.545,6.095-78.722,15.638-78.722,15.638s-1.531,34.027-2.289,44.358c-0.77,10.331-1.152,35.914-1.152,35.914
	s-41.28-3.82-64.195-2.676c-22.918,1.145-59.625,7.284-87.512,20.291c-27.902,12.926-47.386,27.062-47.386,27.062l87.121,9.187
	l-25.984,73.404c0,0,34.394-28.705,68.789-34.814c34.394-6.117,56.573-8.8,78.339-8.429c21.77,0.401,50.059-9.915,52.738-22.922
	c2.672-12.963,3.828-48.097,3.828-48.097s40.095-3.85,70.676-4.979c30.597-1.13,57.722-1.13,57.722-1.13H438.446z"/>
<path fill="#9F8946" d="M438.446,861.895v5.708c0.019,0,6.737,0,17.313,0.142s24.974,0.424,40.218,0.98
	c15.117,0.565,32.741,1.807,46.551,2.906c13.811,1.101,23.777,2.052,23.807,2.052l0.542-5.679l-5.708,0.179
	c0.008,0.03,0.283,8.853,0.899,19.347c0.64,10.539,1.546,22.521,3.025,29.73c1.062,4.995,4.191,8.927,8.034,12.175
	c5.82,4.868,13.684,8.525,22.306,11.172c8.621,2.615,17.987,4.132,26.757,4.132l1.338-0.008c1.294-0.021,2.58-0.037,3.872-0.037
	c20.024,0,41.185,2.646,73.353,8.377c16.024,2.817,32.764,11.2,45.302,18.938c6.273,3.865,11.521,7.552,15.178,10.265
	c1.828,1.354,3.256,2.46,4.222,3.226l1.085,0.87l0.342,0.282l15.988,13.35l-30.519-86.219l94.639-9.989l-11.996-8.733
	c-0.2-0.142-19.859-14.456-48.304-27.627l0.015,0.007c-29.003-13.475-66.001-19.606-89.615-20.818
	c-3.113-0.155-6.504-0.223-10.056-0.223c-23.651,0.008-54.883,2.913-54.973,2.913l0.528,5.687l5.708-0.082
	c-0.007-0.067-0.349-25.531-1.145-36.256c-0.387-5.017-0.958-16.137-1.434-25.903c-0.469-9.788-0.849-18.262-0.849-18.283
	l-0.17-3.992l-3.813-1.196c-0.253-0.082-30.785-9.707-79.744-15.861c-49.048-6.191-114.436-6.547-114.551-6.555h-0.42h-0.052h0.019
	c-0.115,0.008-65.489,0.363-114.559,6.555c-48.98,6.154-79.473,15.779-79.726,15.861l-3.802,1.196l-0.178,3.984
	c-0.004,0.022-0.383,8.503-0.862,18.284c-0.476,9.773-1.048,20.894-1.42,25.918c-0.791,10.71-1.163,36.174-1.167,36.24l5.708,0.09
	l0.528-5.687c-0.089,0-31.332-2.905-54.964-2.913c-3.549,0-6.931,0.067-10.045,0.223c-23.599,1.212-60.643,7.344-89.637,20.818
	l0.011-0.007c-28.415,13.171-48.145,27.485-48.338,27.619l-12.04,8.741l94.717,9.989l-30.519,86.211l15.988-13.342l0.338-0.282
	c1.806-1.464,10.655-8.51,22.896-15.816c12.223-7.313,27.88-14.836,42.897-17.481c32.202-5.73,53.37-8.377,73.375-8.377
	c1.293,0,2.58,0.016,3.865,0.037l1.337,0.008c11.684-0.015,24.438-2.676,35.071-7.12c5.318-2.245,10.104-4.929,13.984-8.184
	c3.839-3.248,6.972-7.18,8.035-12.182c1.468-7.195,2.382-19.177,3.025-29.724c0.628-10.486,0.918-19.302,0.918-19.34l-5.705-0.186
	l0.546,5.679c0.008,0,2.482-0.238,6.705-0.609c12.657-1.138,40.905-3.508,63.638-4.349c15.237-0.557,29.626-0.839,40.199-0.98
	c10.573-0.142,17.292-0.142,17.311-0.142h4.178V861.895v-5.709h-4.178c-0.041,0-27.214,0-57.933,1.131
	c-30.846,1.145-70.955,5.002-71.011,5.009l-4.995,0.476l-0.164,5.018c0,0.008-0.07,2.163-0.219,5.634
	c-0.227,5.211-0.625,13.334-1.211,21.316c-0.58,7.953-1.386,15.884-2.282,20.18c-0.253,1.383-1.516,3.509-4.207,5.753
	c-3.973,3.374-10.703,6.697-18.274,8.979c-7.574,2.305-16.002,3.649-23.431,3.643l-1.133-0.008c-1.36-0.022-2.712-0.037-4.069-0.037
	c-21.064,0.008-42.957,2.787-75.374,8.555c-18.373,3.293-36.029,12.316-49.285,20.455c-13.238,8.153-22.016,15.475-22.161,15.593
	l3.657,4.386l5.381,1.902l28.4-80.228l-94.319-9.944l-0.598,5.679l3.352,4.623l0.817-0.58c3.921-2.757,21.651-14.828,45.618-25.925
	l0.011-0.007c26.78-12.539,63.147-18.687,85.386-19.765c2.858-0.141,6.068-0.208,9.473-0.208c11.375,0,24.903,0.715,35.539,1.436
	c5.318,0.356,9.918,0.713,13.189,0.988c3.267,0.268,5.177,0.446,5.181,0.446l6.143,0.564l0.093-6.169
	c0-0.008,0.093-6.37,0.286-14.025c0.189-7.634,0.479-16.619,0.851-21.548c0.773-10.546,2.296-44.483,2.296-44.528l-5.701-0.253
	l1.721,5.44c0.003,0,0.409-0.126,1.293-0.386c6.203-1.844,34.327-9.744,76.418-15.029c23.978-3.032,52.337-4.66,74.646-5.515
	c11.156-0.431,20.804-0.669,27.661-0.795c6.853-0.134,10.881-0.156,10.892-0.156h0.354h-0.052h0.019
	c0.011,0,4.039,0.022,10.896,0.156c20.551,0.387,66.336,1.762,102.295,6.31c24.044,3.018,43.539,6.891,56.993,10.005
	c6.727,1.554,11.943,2.913,15.467,3.887c1.755,0.484,3.092,0.87,3.977,1.138c0.893,0.26,1.301,0.386,1.301,0.386l1.717-5.44
	l-5.7,0.253c0,0.045,1.493,33.968,2.297,44.536c0.371,4.913,0.661,13.899,0.839,21.54c0.186,7.655,0.275,14.011,0.275,14.025
	l0.089,6.169l6.146-0.564c0,0,1.918-0.179,5.181-0.446c9.789-0.811,31.641-2.424,48.736-2.424c3.411,0,6.622,0.067,9.491,0.208
	c22.245,1.078,58.568,7.226,85.348,19.765l0.016,0.007c13.706,6.34,25.36,13,33.551,18.054c4.095,2.527,7.328,4.66,9.527,6.146
	c1.093,0.743,1.934,1.323,2.498,1.718l0.811,0.579l3.359-4.615l-0.603-5.679l-94.274,9.944l28.4,80.228l5.381-1.902l3.656-4.386
	c-0.141-0.111-8.919-7.439-22.156-15.593c-13.253-8.139-30.905-17.162-49.286-20.455c-32.384-5.768-54.272-8.547-75.352-8.555
	c-1.359,0-2.712,0.015-4.064,0.037l-1.146,0.008c-9.915,0.022-21.6-2.4-30.659-6.229c-4.534-1.902-8.406-4.154-11.053-6.392
	c-2.69-2.244-3.954-4.37-4.206-5.753c-1.219-5.761-2.216-17.83-2.803-28.095c-0.305-5.158-0.527-9.923-0.677-13.394
	c-0.141-3.472-0.208-5.627-0.208-5.634l-0.163-5.025l-5.002-0.476c-0.052-0.007-40.226-3.864-71.025-5.009
	c-30.727-1.131-57.907-1.131-57.948-1.131V861.895z"/>
<path fill="#9F8946" d="M305.491,862.311c-0.014,0-7.979,0.521-17.317,1.271c-9.376,0.75-19.979,1.688-25.814,2.624l0.026-0.008
	h0.007c-5.139,0.817-11.494,1.925-17.203,4.615c-2.847,1.368-5.607,3.166-7.804,5.842c-2.2,2.646-3.631,6.288-3.598,10.176
	c-0.019,3.738,0.94,7.307,2.992,10.115c1.52,2.104,3.538,3.665,5.656,4.743c6.399,3.128,13.624,3.092,21.305,3.166
	c2.349,0,4.731-0.022,7.105-0.022c8.172,0,16.456,0.11,22.684,0.223c6.232,0.111,10.391,0.223,10.402,0.223l0.305-11.416
	c-0.03,0-16.846-0.446-33.391-0.446c-2.453,0-4.838,0.022-7.105,0.022c-6.552,0.045-12.215-0.327-15.137-1.494
	c-1.486-0.564-2.167-1.138-2.583-1.701c-0.398-0.573-0.799-1.412-0.818-3.412c0.034-1.375,0.331-2.044,1.029-2.959
	c1.03-1.337,3.568-2.876,6.942-3.976c3.345-1.115,7.344-1.858,10.963-2.416l0.034-0.008c4.991-0.803,15.687-1.783,24.907-2.511
	c9.253-0.744,17.143-1.257,17.162-1.265L305.491,862.311z"/>
<path fill="#9F8946" d="M234.428,854.775c0,0.045-0.721,18.678-0.725,28.481c0,1.345,0.015,2.527,0.049,3.53l11.409-0.386
	c-0.026-0.795-0.041-1.881-0.041-3.145c0-4.66,0.178-11.707,0.357-17.549c0.181-5.841,0.36-10.479,0.36-10.486L234.428,854.775z"/>
<path fill="#9F8946" d="M566.499,873.698c0.021,0.008,7.907,0.514,17.161,1.241c9.224,0.721,19.927,1.68,24.937,2.482h0.015
	c4.816,0.729,10.339,1.858,14.018,3.65c1.852,0.877,3.159,1.865,3.865,2.749c0.698,0.914,0.996,1.591,1.026,2.966
	c-0.016,1.992-0.416,2.832-0.811,3.404c-0.32,0.431-0.751,0.832-1.591,1.264c-2.452,1.412-8.637,1.992-15.973,1.917
	c-2.312,0-4.749-0.029-7.255-0.029c-16.536,0-33.409,0.513-33.438,0.513l0.342,11.417c0.015,0,4.185-0.135,10.421-0.261
	c6.235-0.126,14.522-0.253,22.676-0.253c2.424,0,4.861,0.03,7.255,0.03c6.801-0.045,13.223-0.097,19.05-2.229
	c2.892-1.078,5.745-2.877,7.774-5.694c2.037-2.802,2.98-6.354,2.966-10.078c0.03-3.887-1.39-7.521-3.59-10.168
	c-3.314-4.006-7.767-6.095-12.16-7.596c-4.422-1.471-8.972-2.281-12.821-2.884h0.015c-5.841-0.914-16.448-1.843-25.82-2.579
	c-9.343-0.736-17.304-1.249-17.317-1.249L566.499,873.698z"/>
<path fill="#9F8946" d="M626.887,855.229c0,0.007,0.186,4.614,0.371,10.428c0.18,5.805,0.365,12.827,0.365,17.495
	c0,1.286-0.016,2.394-0.044,3.203l11.416,0.401c0.029-1.018,0.044-2.229,0.044-3.604c0-9.833-0.75-28.34-0.75-28.385
	L626.887,855.229z"/>
<polygon fill="#9F8946" points="264.444,786.157 283.784,784.567 289.311,850.985 269.978,852.575 "/>
<polygon fill="#9F8946" points="299.667,782.47 358.393,778.204 359.582,794.585 339.9,796.012 343.561,846.093 324.191,847.505 
	320.545,797.41 300.864,798.868 "/>
<path fill="#9F8946" d="M409.875,831.927l-22.093,0.579l-2.725,11.075l-19.863,0.527l21.818-67.272l21.257-0.565l25.345,66.002
	l-20.291,0.551L409.875,831.927z M405.385,817.626l-7.503-23.77l-6.236,24.127L405.385,817.626z"/>
<polygon fill="#9F8946" points="448.379,775.35 467.763,775.855 466.455,826.099 496.721,826.902 496.29,843.284 446.621,841.991 
	"/>
<polygon fill="#9F8946" points="515.02,778.1 534.389,779.185 530.725,845.737 511.363,844.652 "/>
<path fill="#9F8946" d="M590.208,839.464l-22.001-2.216l-4.118,10.645l-19.74-1.993l30.161-63.965l21.168,2.141l16.754,68.677
	l-20.173-2.021L590.208,839.464z M587.562,824.732l-4.43-24.558l-9.231,23.19L587.562,824.732z"/>
<path fill="#00795D" d="M169.992,182.976v268.127c0,38.308,9.558,130.591,108.861,196.785c25.39,16.916,46.989,29.226,64.79,38.383
	V182.976H169.992z"/>
<path fill="#DD052B" d="M529.022,182.976v503.295c17.81-9.157,39.394-21.467,64.798-38.383
	c99.299-66.194,108.873-158.478,108.873-196.785V182.976H529.022z"/>
<path fill="#FFFFFF" d="M343.646,182.976v503.279c25.766,13.216,43.529,19.815,52.731,23.77c16.842,7.225,39.895,15.46,39.895,15.46
	h0.123c0,0,23.06-8.235,39.887-15.46c9.217-3.954,26.98-10.554,52.741-23.77V182.976H343.646z"/>
<rect x="169.987" y="11.417" fill="#0053A1" width="532.69" height="171.552"/>
<polygon fill="#9F8946" points="230.738,47.212 310.798,47.212 310.798,69.792 263.122,69.792 263.122,88.036 303.956,88.036 
	303.956,109.241 263.122,109.241 263.122,151.908 230.738,151.908 "/>
<rect x="336.485" y="127.042" fill="#9F8946" width="26.471" height="24.866"/>
<rect x="392.523" y="47.212" fill="#9F8946" width="32.395" height="104.696"/>
<rect x="456.541" y="127.042" fill="#9F8946" width="26.46" height="24.866"/>
<path fill="#9F8946" d="M511.675,151.912v-104.7h53.871c9.989,0,17.646,0.862,22.937,2.576c5.263,1.717,9.514,4.883,12.74,9.543
	c3.24,4.649,4.861,10.298,4.861,16.972c0,5.816-1.25,10.837-3.717,15.062c-2.498,4.214-5.901,7.633-10.271,10.234
	c-2.78,1.684-6.556,3.07-11.41,4.151c3.858,1.3,6.623,2.594,8.392,3.879c1.189,0.866,2.898,2.702,5.144,5.534
	s3.731,5.017,4.504,6.537l15.802,30.21h-36.508l-17.311-31.953c-2.179-4.133-4.141-6.82-5.85-8.054
	c-2.35-1.62-4.98-2.442-7.938-2.442h-2.869v42.448H511.675z M544.051,89.637h13.706c1.472,0,4.34-0.472,8.637-1.416
	c2.11-0.427,3.909-1.516,5.262-3.273c1.354-1.766,2.066-3.78,2.066-6.058c0-3.363-1.1-5.957-3.255-7.763
	c-2.155-1.802-6.199-2.702-12.146-2.702h-14.271V89.637z"/>
<rect x="633.406" y="127.042" fill="#9F8946" width="26.46" height="24.866"/>
<polyline fill="#9F8946" points="169.984,194.385 702.677,194.385 702.677,171.552 169.984,171.552 "/>
<path fill="#9F8946" d="M436.409,725.477l3.843,10.748c0.111-0.038,23.186-8.272,40.541-15.713
	c7.321-3.151,21.733-8.556,41.771-18.27c20.098-9.729,46.074-23.865,77.581-44.862c51.59-34.339,80.391-76.051,95.903-114.023
	c15.556-37.98,18.039-72.156,18.046-92.261V0H437.208h-1.736H158.579v451.096c0.003,20.105,2.494,54.281,18.046,92.261
	c15.512,37.973,44.316,79.685,95.895,114.023c31.503,20.997,57.48,35.134,77.585,44.862c20.046,9.714,34.462,15.118,41.768,18.27
	c17.381,7.44,40.463,15.675,40.57,15.713l1.866,0.669h2.1h1.98l1.862-0.669L436.409,725.477v-11.416h-0.123v11.416l3.839-10.747
	c-0.005-0.008-1.394-0.505-3.791-1.376c-7.172-2.616-23.223-8.584-35.461-13.831c-8.239-3.531-21.521-8.488-40.816-17.823
	c-19.239-9.32-44.246-22.915-74.876-43.317c-47.71-31.849-73.337-69.376-87.43-103.678c-14.051-34.294-16.344-65.417-16.341-83.609
	V22.833h254.061h1.736h254.053v428.263c0.008,18.191-2.289,49.315-16.337,83.609c-14.092,34.302-39.72,71.829-87.438,103.678
	c-30.637,20.402-55.641,33.997-74.875,43.317c-19.296,9.335-32.569,14.3-40.812,17.823c-8.146,3.493-18.01,7.32-25.784,10.249
	c-3.891,1.465-7.266,2.705-9.658,3.582c-2.393,0.871-3.787,1.368-3.791,1.376L436.409,725.477v-11.416V725.477z"/>
</svg>
