<?xml version="1.0" encoding="utf-8"?>
<!-- Generator: Adobe Illustrator 15.1.0, SVG Export Plug-In  -->
<!DOCTYPE svg PUBLIC "-//W3C//DTD SVG 1.1//EN" "http://www.w3.org/Graphics/SVG/1.1/DTD/svg11.dtd" [
	<!ENTITY ns_flows "http://ns.adobe.com/Flows/1.0/">
]>
<svg version="1.1"
	 xmlns="http://www.w3.org/2000/svg" xmlns:xlink="http://www.w3.org/1999/xlink" xmlns:a="http://ns.adobe.com/AdobeSVGViewerExtensions/3.0/"
	 x="0px" y="0px" width="1000px" height="1000px" viewBox="0 -73.167 1000 1000"
	 overflow="visible" enable-background="new 0 -73.167 1000 1000" xml:space="preserve">
<defs>
</defs>
<path fill="#E40520" d="M995.876,100.375c-13.426,8.189-29.597,12.967-47.002,12.967c-46.524,0-84.242-34.152-84.242-76.281
	c0-13.451,3.843-26.089,10.592-37.061C899.625,47.849,923.546,75.991,995.876,100.375z M257.036,347.099
	C141.651,300.194,29.081,339.594,0,414.641C84.428,370.551,136.022,347.099,257.036,347.099z M978.424,150.1
	c-44.09-15.948-75.516,22.514-54.409,53.002C941.839,166.986,952.627,161.826,978.424,150.1z M874.296,174.491
	c-91.932,330.207-347.092,452.158-575.985,409.005C482.176,761.732,968.105,521.583,874.296,174.491z"/>
<path fill="#004A93" d="M450.281,320.832C611.632,129.462,863.04,88.811,1000,136.967
	c-171.982-13.133-387.117,150.717-437.148,393.996C538.931,447.943,504.69,392.126,450.281,320.832z M551.595,534.09
	C467.792,320.207,261.413,141.343,47.53,276.428C240.15,297.692,392.746,361.482,551.595,534.09z M399.625,276.742
	C523.452,131.339,698.874,76.93,861.163,105.072c-132.27-124.766-408.067-41.276-524.39,127.58
	C363.04,249.538,378.987,258.918,399.625,276.742z M284.553,358.355c-24.39,68.166-11.882,158.85,17.511,203.25
	c-1.251-54.409,10.319-117.885,38.774-173.857C319.575,374.928,306.441,368.36,284.553,358.355z"/>
<path fill="#004A93" d="M286.664,689.93l147.67-0.027c-11.726,25.73-40.338,38.997-80.675,48.846l-5.288,18.174l57.821-0.013
	c-20.169,23.788-39.399,30.62-70.356,40l-17.019,56.741l-70.736,0.01l47.499-155.458L286.664,689.93z"/>
<path fill="#004A93" d="M442.777,689.93l147.67-0.027c-11.726,25.73-40.338,38.997-80.676,48.846l-5.288,18.174l57.821-0.013
	c-20.169,23.788-39.4,30.62-70.356,40l-17.019,56.741l-70.736,0.01l47.499-155.458L442.777,689.93z"/>
<path fill="#004A93" d="M641.025,801.132l-16.162,52.461l-65.444,0.01l47.5-155.46l-8.915-8.272l81.62-0.018
	c98.323,0,91.483,75.631,21.439,97.52c25.641,48.154,33.731,66.292,33.731,66.292C678.51,853.665,666.667,842.408,641.025,801.132z
	 M663.227,731.088l-8.443,26.892C692.62,757.98,698.874,731.088,663.227,731.088z"/>
</svg>
