<?xml version="1.0" encoding="UTF-8" standalone="no"?>
<!-- Created with Inkscape (http://www.inkscape.org/) -->

<svg
   xmlns:svg="http://www.w3.org/2000/svg"
   xmlns="http://www.w3.org/2000/svg"
   version="1.1"
   width="400"
   height="310"
   viewBox="0 0 399.99999 310"
   id="svg2"
   xml:space="preserve"><defs
   id="defs94" />

<g
   transform="translate(-219.375,-134.26926)"
   id="g7">
		<path
   d="m 370.156,427.889 c 0,-0.832 -0.173,-1.57 -0.518,-2.214 -0.345,-0.644 -0.87,-1.286 -1.574,-1.93 -0.704,-0.644 -1.537,-1.204 -2.496,-1.685 -0.51,-0.252 -1.439,-0.655 -2.789,-1.211 -1.169,-0.453 -1.934,-0.781 -2.294,-0.982 -0.81,-0.48 -1.214,-1.047 -1.214,-1.703 0,-0.202 0.015,-0.366 0.045,-0.492 0.21,-0.832 0.757,-1.444 1.642,-1.836 0.884,-0.391 1.836,-0.586 2.856,-0.586 1.109,0 2.144,0.158 3.103,0.473 0.959,0.315 1.889,0.75 2.789,1.304 l 1.125,-4.423 c -2.16,-0.756 -4.589,-1.135 -7.288,-1.135 -1.439,0 -2.872,0.146 -4.296,0.436 -1.424,0.29 -2.751,0.751 -3.981,1.382 -2.52,1.312 -4.094,3.155 -4.724,5.528 -0.15,0.707 -0.225,1.287 -0.225,1.741 0,1.792 0.958,3.308 2.876,4.544 0.299,0.201 2.052,1.047 5.258,2.537 1.887,0.883 2.831,1.805 2.831,2.764 0,0.126 -0.03,0.315 -0.09,0.567 -0.24,0.985 -0.959,1.704 -2.158,2.158 -0.899,0.354 -1.993,0.53 -3.282,0.53 -1.588,0 -3.169,-0.272 -4.743,-0.818 -1.573,-0.545 -2.899,-1.262 -3.978,-2.15 l 0.135,5.45 c 2.579,0.908 5.369,1.362 8.368,1.362 1.8,0 3.435,-0.139 4.904,-0.416 1.469,-0.277 2.909,-0.795 4.319,-1.552 2.819,-1.488 4.559,-3.531 5.219,-6.13 0.12,-0.479 0.18,-0.984 0.18,-1.513 l 0,0 z m 29.173,-9.825 c 0.015,-0.201 0.022,-0.391 0.022,-0.566 0,-2.066 -1.005,-3.564 -3.016,-4.498 -0.93,-0.428 -1.95,-0.686 -3.061,-0.773 -1.111,-0.087 -2.701,-0.133 -4.771,-0.133 h -10.622 l -0.045,0.113 c 0.45,0.277 0.765,0.6 0.945,0.965 0.18,0.365 0.27,0.774 0.27,1.228 0,0.429 -0.075,0.945 -0.225,1.55 -0.03,0.151 -0.165,0.668 -0.405,1.549 l -3.6,14.098 c -0.39,1.612 -0.675,2.596 -0.855,2.947 -0.48,1.059 -1.26,1.84 -2.34,2.344 L 371.583,437 h 12.015 l 0.045,-0.113 c -0.42,-0.428 -0.712,-0.831 -0.877,-1.209 -0.165,-0.378 -0.248,-0.831 -0.248,-1.359 0,-0.504 0.067,-1.039 0.202,-1.606 0.135,-0.566 0.232,-0.964 0.292,-1.19 l 3.959,-15.678 c 1.29,0 2.234,0.289 2.834,0.869 0.51,0.503 0.765,1.258 0.765,2.265 0,0.327 -0.015,0.643 -0.045,0.944 -0.03,0.303 -0.09,0.592 -0.18,0.868 -0.33,1.284 -0.99,2.397 -1.979,3.342 -0.99,0.944 -2.249,1.668 -3.778,2.171 0.12,0 0.3,0.025 0.54,0.076 0.15,0 0.315,0 0.495,0 0.12,0 0.315,0 0.585,0 3.15,0 5.851,-0.567 8.102,-1.701 2.58,-1.31 4.201,-3.225 4.861,-5.744 0.09,-0.379 0.142,-0.669 0.158,-0.871 l 0,0 z m 24.511,16.698 c -0.496,-0.769 -0.953,-1.607 -1.373,-2.515 l -3.51,-7.524 c 1.77,-0.58 3.24,-1.348 4.41,-2.307 1.35,-1.084 2.189,-2.307 2.52,-3.668 0.12,-0.479 0.18,-0.995 0.18,-1.55 0,-1.891 -0.93,-3.302 -2.789,-4.235 -1.021,-0.504 -2.19,-0.793 -3.51,-0.869 -0.78,0 -1.545,0 -2.295,0 h -13.32 l -0.045,0.113 c 0.45,0.277 0.765,0.599 0.945,0.964 0.18,0.365 0.27,0.774 0.27,1.228 0,0.43 -0.075,0.945 -0.225,1.551 -0.03,0.15 -0.165,0.667 -0.405,1.549 l -3.6,14.098 c -0.39,1.612 -0.675,2.596 -0.855,2.947 -0.48,1.059 -1.26,1.84 -2.34,2.344 L 397.852,437 h 12.105 l 0.045,-0.113 c -0.45,-0.277 -0.765,-0.599 -0.945,-0.964 -0.18,-0.365 -0.27,-0.774 -0.27,-1.229 0,-0.429 0.075,-0.944 0.225,-1.55 0.03,-0.151 0.165,-0.668 0.405,-1.55 l 1.35,-5.255 3.15,8.25 c 0.54,1.337 1.41,2.132 2.61,2.384 0.479,0.101 1.395,0.151 2.745,0.151 l 6.345,-0.34 c -0.69,-0.579 -1.283,-1.253 -1.777,-2.022 l 0,0 z m -8.663,-12.09 c -1.14,0.908 -2.445,1.463 -3.915,1.665 l 2.16,-8.587 h 0.45 c 0.48,0 0.945,0.038 1.395,0.113 0.45,0.076 0.81,0.215 1.08,0.416 0.75,0.529 1.125,1.299 1.125,2.308 0,0.328 -0.045,0.644 -0.135,0.946 -0.3,1.186 -1.02,2.232 -2.16,3.139 l 0,0 z m 25.563,14.215 c -0.45,-0.277 -0.766,-0.599 -0.945,-0.964 -0.179,-0.365 -0.27,-0.774 -0.27,-1.229 0,-0.403 0.074,-0.907 0.225,-1.512 0.06,-0.176 0.195,-0.692 0.405,-1.55 l 3.6,-14.135 c 0.39,-1.611 0.675,-2.595 0.855,-2.947 0.479,-1.059 1.26,-1.84 2.34,-2.344 l 0.045,-0.113 h -12.104 l -0.045,0.113 c 0.449,0.277 0.765,0.599 0.944,0.964 0.179,0.365 0.271,0.774 0.271,1.229 0,0.429 -0.075,0.944 -0.226,1.55 -0.03,0.15 -0.165,0.668 -0.404,1.549 l -3.601,14.135 c -0.42,1.613 -0.705,2.596 -0.854,2.948 -0.48,1.033 -1.261,1.802 -2.341,2.306 L 428.59,437 h 12.105 l 0.045,-0.113 0,0 z m 40.207,-24.793 h -8.657 v 0.113 c 0.731,0.756 1.098,1.637 1.098,2.645 0,0.479 -0.067,1.002 -0.2,1.568 -0.133,0.566 -0.229,0.963 -0.288,1.189 l -2.479,9.834 -10.038,-15.236 0.045,-0.113 h -9.36 l -0.045,0.113 c 1.02,1.209 1.53,2.33 1.53,3.362 0,0.655 -0.165,1.612 -0.495,2.871 l -3.285,13.041 c -0.332,1.285 -0.678,2.269 -1.039,2.948 -0.543,0.958 -1.326,1.777 -2.35,2.457 L 445.353,437 h 8.656 v -0.113 c -0.393,-0.428 -0.666,-0.837 -0.82,-1.227 -0.154,-0.391 -0.231,-0.85 -0.231,-1.379 0,-0.479 0.078,-1.031 0.235,-1.661 0.157,-0.629 0.252,-1.007 0.283,-1.133 l 2.641,-9.97 6.206,9.66 c 1.229,1.861 2.1,3.031 2.609,3.51 0.629,0.578 1.431,1.094 2.405,1.547 0.974,0.453 1.807,0.792 2.497,1.019 1.049,0.353 1.934,0.528 2.653,0.528 l 5.093,-20.173 c 0.3,-1.284 0.646,-2.267 1.036,-2.946 0.511,-0.957 1.277,-1.775 2.299,-2.455 l 0.032,-0.113 0,0 z m 28.076,11.968 h -9.495 l -0.045,0.113 c 0.72,0.58 1.08,1.211 1.08,1.893 0,0.252 -0.03,0.523 -0.09,0.814 -0.061,0.289 -0.135,0.611 -0.225,0.965 l -1.395,5.602 c -0.21,0.025 -0.494,0.051 -0.854,0.076 -0.36,0.025 -0.689,0.037 -0.989,0.037 -2.278,0 -3.956,-0.631 -5.035,-1.893 -0.899,-1.06 -1.349,-2.549 -1.349,-4.467 0,-1.186 0.165,-2.41 0.495,-3.672 0.6,-2.422 1.739,-4.34 3.42,-5.754 1.83,-1.539 4.154,-2.309 6.975,-2.309 1.14,0 2.303,0.191 3.487,0.575 1.186,0.384 2.078,0.868 2.678,1.456 h 0.226 l 1.305,-5.276 c -2.07,-0.503 -4.35,-0.755 -6.84,-0.755 -4.83,0 -9.128,1.191 -12.894,3.576 -3.766,2.383 -6.144,5.58 -7.134,9.591 -0.271,1.11 -0.405,2.144 -0.405,3.103 0,3.128 1.319,5.562 3.959,7.303 2.489,1.639 5.849,2.459 10.077,2.459 1.68,0 3.314,-0.102 4.904,-0.303 1.589,-0.201 3.269,-0.492 5.038,-0.871 l 3.106,-12.263 0,0 z m 27.406,3.754 c 0,-1.311 -0.451,-2.419 -1.354,-3.326 -0.903,-0.907 -2.15,-1.449 -3.744,-1.625 1.623,-0.428 2.931,-1.008 3.923,-1.738 1.112,-0.832 1.833,-1.865 2.164,-3.1 0.09,-0.378 0.136,-0.73 0.136,-1.059 0,-0.73 -0.173,-1.392 -0.519,-1.984 -0.345,-0.592 -0.862,-1.158 -1.553,-1.7 -0.691,-0.542 -1.464,-0.876 -2.319,-1.001 -0.855,-0.127 -2.049,-0.189 -3.579,-0.189 h -13.418 l -0.045,0.113 c 0.45,0.252 0.765,0.561 0.945,0.926 0.18,0.365 0.27,0.775 0.27,1.229 0,0.428 -0.075,0.945 -0.225,1.549 -0.03,0.152 -0.165,0.668 -0.405,1.55 l -3.6,14.136 c -0.391,1.637 -0.676,2.633 -0.855,2.985 -0.48,1.033 -1.26,1.802 -2.34,2.306 L 509.866,437 h 13.191 c 1.891,0 3.346,-0.088 4.366,-0.265 1.471,-0.252 2.837,-0.769 4.098,-1.55 2.551,-1.537 4.126,-3.489 4.727,-5.857 0.12,-0.478 0.181,-0.982 0.181,-1.512 l 0,0 z m -8.991,-6.997 c -0.766,0.642 -1.658,0.962 -2.678,0.962 -0.12,0 -0.39,-0.051 -0.81,-0.15 l 1.484,-5.811 c 0.51,-0.15 0.96,-0.227 1.351,-0.227 0.779,0 1.342,0.189 1.688,0.566 0.345,0.377 0.518,0.893 0.518,1.547 0,0.352 -0.03,0.629 -0.09,0.83 -0.21,0.881 -0.698,1.642 -1.463,2.283 l 0,0 z m -0.999,11.335 c -0.933,0.855 -2.09,1.283 -3.474,1.283 -0.481,0 -0.843,-0.031 -1.083,-0.094 -0.24,-0.063 -0.496,-0.184 -0.767,-0.359 l 1.985,-7.93 h 1.082 c 2.768,0 4.151,0.92 4.151,2.757 0,0.453 -0.061,0.919 -0.181,1.397 -0.329,1.209 -0.9,2.19 -1.713,2.946 l 0,0 z m 49.548,-10.961 c 0,-3.104 -1.223,-5.5 -3.668,-7.189 -2.445,-1.689 -5.768,-2.535 -9.968,-2.535 -4.74,0 -9,1.16 -12.779,3.48 -3.931,2.422 -6.405,5.601 -7.426,9.535 -0.27,1.06 -0.404,2.043 -0.404,2.951 0,3.103 1.237,5.556 3.712,7.359 2.475,1.803 5.737,2.705 9.788,2.705 4.8,0 9.075,-1.147 12.825,-3.443 3.96,-2.421 6.449,-5.625 7.47,-9.609 0.3,-1.261 0.45,-2.345 0.45,-3.254 l 0,0 z m -10.621,7.512 c -0.479,0.895 -1.125,1.684 -1.935,2.364 -0.93,0.808 -1.987,1.451 -3.173,1.931 -1.185,0.479 -2.362,0.719 -3.532,0.719 -1.23,0 -2.303,-0.303 -3.218,-0.908 -0.915,-0.605 -1.597,-1.438 -2.047,-2.498 -0.45,-1.059 -0.675,-2.334 -0.675,-3.822 0,-1.06 0.119,-2.068 0.359,-3.027 0.54,-2.17 1.62,-4.024 3.24,-5.563 1.86,-1.767 4.021,-2.649 6.48,-2.649 2.13,0 3.72,0.719 4.77,2.157 0.84,1.161 1.26,2.737 1.26,4.73 0,0.556 -0.045,1.181 -0.135,1.874 -0.09,0.693 -0.195,1.28 -0.315,1.76 -0.239,1.058 -0.598,2.036 -1.079,2.932 l 0,0 z m 40.339,8.182 c -0.48,-0.328 -0.87,-0.699 -1.17,-1.115 -0.3,-0.416 -0.57,-0.889 -0.81,-1.418 l -6.12,-12.133 12.51,-10.018 0.045,-0.109 h -11.104 v 0.113 c 0.446,0.253 0.796,0.549 1.05,0.891 0.253,0.34 0.335,0.725 0.245,1.154 -0.12,0.454 -0.509,0.996 -1.166,1.627 -0.568,0.48 -1.122,0.947 -1.66,1.401 l -7.154,6.05 1.487,-5.826 c 0.39,-1.614 0.675,-2.598 0.855,-2.951 0.48,-1.059 1.262,-1.841 2.343,-2.346 l 0.031,-0.113 H 582.98 l -0.045,0.113 c 0.449,0.277 0.765,0.599 0.944,0.964 0.179,0.365 0.271,0.774 0.271,1.229 0,0.378 -0.075,0.856 -0.226,1.437 -0.15,0.579 -0.285,1.133 -0.404,1.662 l -3.601,14.098 c -0.39,1.612 -0.675,2.596 -0.854,2.947 -0.48,1.059 -1.26,1.84 -2.34,2.344 L 576.681,437 h 12.104 l 0.045,-0.113 c -0.45,-0.277 -0.766,-0.599 -0.945,-0.964 -0.179,-0.365 -0.27,-0.774 -0.27,-1.229 0,-0.429 0.074,-0.944 0.225,-1.55 0.03,-0.151 0.165,-0.668 0.405,-1.55 l 1.439,-5.67 2.971,6.767 c 0.93,2.117 1.994,3.363 3.194,3.742 1.2,0.377 4.471,0.566 9.811,0.566 l 0.045,-0.112 0,0 z"
   id="path9" />
	</g>
<path
   d="m 282.143,18.131737 c 0,0 6.001,3.897 10.946,13.935 2.8,5.687 10.926,15.378 20.389,20.724 3.962,2.235 6.579,6.617 8.103,9.041 -5.884,-2.124 -20.6,-2.005 -30.835,0 2.469,8.979 13.592,21.32 25.771,25.042 -28.07,46.065003 -86.327,66.266003 -111.928,69.985003 -27.692,4.026 -45.195,1.357 -61.791,20.965 -11.768,-3.421 -17.888,-3.306 -28.599,-0.707 -10.38901,2.517 -23.067006,0.119 -34.720006,-6.612 3.061,13.938 9.926,18.359 15.981,20.59 6.693996,2.466 15.027006,1.856 20.388006,-0.631 6.566,-3.044 12.24,-3.659 19.654,-0.113 -3.407,8.215 -3.995,16.123 -4.238,21.845 -0.156,3.64 0,5.908 -1.53,9.098 -5.492,11.439 -24.01001,16.307 -41.898006,16.069 -10.828,20.317 -34.487,32.356 -43.195,35.43 -5.999,2.115 -9.952,4.363 -11.981,7.587 -1.311,-0.072 -7.441,-0.26 -7.441,-0.26 l -16.5940001,23.741 9.8870001,0.121 c 8.844,0.091 16.5,-3.892 29.954,-12.271 l 10.298,-6.394 c 11.773,-8.065 31.674,-21.665 45.430996,-27.638 8.12501,-3.531 18.54701,-5.992 28.71801,-8.626 12.368,-3.201 25.481,-6.071 37.666,-11.695 16.087,-7.42 35.687,-18.334 45.433,-26.935 2.334,0.293 18.239,2.125 18.239,2.125 0,0 56.728,-27.285 68.688,-33.418 -6.222,9.431 -17.93,19.769 -25.361,24.263 -0.594,-0.373 -4.487,-2.884 -4.487,-2.884 l -27.304,15.354 c 0,0 23.641,9.295 39.547,2.479 24.011,-10.287 54.024,-52.212 56.258,-66.504 -7.573,-0.93 -16.342,-0.773 -23.307,-0.939 13.654,-17.25 26.13,-41.107 29.425,-51.387001 7.811,1.144001 23.657,1.241001 34.957,-3.188 4.623,-1.812 8.531,-7.677002 8.708,-12.106002 -16.064,-4.783 -33.366,-21.793 -33.366,-21.793 0,0 -8.448,-0.948 -10.415,-1.062 -3.327,-4.409 -10.425,-15.359 -23.18,-19.786 -19.547,-6.789 -18.142,-13.877 -28.618,-19.43 -4.788,-2.536 -13.653,-4.015 -13.653,-4.015 z"
   id="path12" /><g
   transform="translate(-219.375,-134.26926)"
   id="g14">
		<path
   d="m 558.667,223.004 c 3.355,1.507 4.59,3.014 6.973,5.671 2.207,0.973 37.959,4.608 41.931,-7.973 -15.799,-5.581 -27.539,-16.922 -31.337,-20.285 -3.794,-0.708 -9.444,-0.622 -11.297,-0.622 -2.473,-3.011 -9.713,-14.352 -22.864,-19.754 -13.152,-5.407 -24.401,-15.271 -29.962,-21.854 4.471,9.215 13.864,19.785 22.959,24.92 9.09,5.137 12.477,12.994 12.477,17.485 -4.504,-2.037 -20.567,-3.986 -30.808,-0.62 3.708,9.479 17.302,17.54 25.598,18.867 -31.691,55.105 -84.476,72.824 -111.837,76.543 -25.758,3.504 -50.316,2.658 -64.675,21.441 -5.296,-1.888 -8.711,-2.833 -15.185,-3.188 -6.584,-0.362 -12.474,1.947 -21.655,2.831 -9.181,0.889 -16.242,-0.884 -22.952,-4.369 4.769,10.392 19.655,12.4 26.717,9.091 7.061,-3.303 17.888,-3.721 28.601,1.534 -8.358,14.999 -4.003,28.063 -7.413,34.614 -5.537,10.625 -18.597,19.727 -43.667,19.019 -12.474,20.669 -39.193,33.187 -45.9,35.196 -6.709,2.012 -8.241,4.49 -9.653,7.558 -2.117,0.478 -8.002,-0.469 -8.002,-0.469 0,0 -9.297,13.58 -9.415,14.173 7.762,0.08 15.209,-2.624 28.161,-10.681 6.486,-4.04 37.749,-26.818 56.109,-34.791 18.361,-7.974 43.252,-10.633 65.145,-20.731 16.369,-7.554 37.426,-19.314 45.961,-27.578 7.886,0.646 12.472,1.888 20.241,2.595 15.537,-7.089 63.732,-32.424 77.855,-36.144 -2.471,13.818 -24.361,32.423 -33.365,37.205 -2.647,-0.355 -5.415,-3.188 -5.415,-3.188 l -14.121,9.214 c 0,0 10.098,4.617 24.303,-0.354 22.772,-7.973 45.197,-41.284 51.493,-57.052 -8.594,-0.354 -20.951,-0.709 -29.246,-0.709 21.536,-22.324 39.719,-56.553 39.367,-59.743 -0.357,-3.189 -2.824,-5.636 -5.122,-7.852 z"
   id="path16"
   style="fill:#e8b663" />
		<path
   d="m 321.154,322.271 c 5.302,-1.112 9.566,-3.359 12.184,-6.402 -1.403,0.218 -2.777,0.444 -4.354,0.599 -9.181,0.889 -16.242,-0.884 -22.952,-4.369 2.783,6.067 9.014,9.209 15.122,10.172 z"
   id="path18"
   style="fill:#ffffff" />
		<path
   d="m 552.844,214.414 c -3.005,-3.191 -5.122,-7.796 -6.71,-8.86 -2.12,0 -11.829,-0.177 -18.536,-1.419 3.705,4.431 15.005,10.633 25.246,10.279 z"
   id="path20" />
		<path
   d="m 521.889,277.134 c 5.768,-6.732 17.301,-22.324 23.185,-32.007 2.702,-4.447 4.724,-10.037 7.397,-15.565 -15.569,24.806 -27.626,34.594 -37.057,41.547 -10.623,7.843 -6.986,20.504 7.069,19.155 -4.354,-1.339 -5.633,-7.244 -0.594,-13.13 z"
   id="path22"
   style="fill:#ffcb05" />
		<path
   d="m 395.483,318.481 c -6.124,0 -8.474,3.066 -8.708,8.972 -0.238,5.979 -2.909,17.91 -9.076,31.277 6.148,-10.354 9.606,-19.999 11.888,-26.932 2.128,-6.473 4.246,-7.891 11.31,-7.891 26.363,0 58.487,-8.179 78.149,-23.606 10.99,3.075 30.929,7.141 45.033,7.486 1.563,-0.614 2.941,-1.108 4.207,-1.535 -14.594,-0.313 -27.24,-3.459 -49.945,-12.349 -33.194,24.578 -77.914,24.578 -82.858,24.578 z"
   id="path24"
   style="fill:#ffcb05" />
		<path
   d="m 521.889,277.134 c 5.768,-6.732 17.301,-22.324 23.185,-32.007 1.914,-3.151 3.491,-6.899 5.2,-10.777 -10.83,19.125 -26.753,33.75 -33.624,40.802 -3.356,3.448 -4.767,9.424 -2.117,12.08 2.006,2.011 4.398,2.755 7.823,2.983 -4.248,-1.415 -5.456,-7.256 -0.467,-13.081 z"
   id="path26" />
		<path
   d="m 397.204,330.997 c 26.602,1.423 66.071,-5.666 90.79,-22.682 2.834,-0.812 14.214,-1.154 24.532,-1.414 -12.055,-1.458 -25.27,-4.297 -33.479,-6.6 -19.662,15.428 -51.786,23.606 -78.149,23.606 -7.063,0 -9.181,1.418 -11.31,7.891 -2.568,7.803 -6.602,19.03 -14.341,30.849 11.133,-13.681 18.244,-29.829 21.957,-31.65 z"
   id="path28" />
		<path
   d="m 604.895,224.511 c 1.26,-1.062 2.203,-2.313 2.676,-3.81 -15.799,-5.581 -27.539,-16.922 -31.337,-20.285 -3.794,-0.708 -9.444,-0.622 -11.297,-0.622 -2.473,-3.011 -9.713,-14.352 -22.864,-19.754 -1.123,-0.46 -2.203,-0.993 -3.285,-1.512 6.273,6.669 19.301,22.695 23.85,30.768 0.925,1.64 2.202,3.392 2.3,4.229 -11.653,8.327 -14.281,22.41 -19.863,31.6 -5.884,9.683 -17.417,25.275 -23.185,32.007 -5.739,6.705 -3.283,13.448 2.579,13.411 21.517,-22.326 39.672,-56.498 39.32,-59.688 -0.356,-3.19 -2.823,-5.637 -5.121,-7.853 3.355,1.507 4.59,3.014 6.973,5.671 0.765,0.338 5.534,0.973 11.583,1.169 3.834,-4.705 14.632,-11.371 27.671,-5.331 z"
   id="path30"
   style="fill:#ffffff" />
		<path
   d="m 487.993,308.315 c -24.719,17.016 -64.188,24.104 -90.79,22.682 -4.987,2.448 -16.097,30.758 -34.872,44.212 8.22,-2.306 16.496,-4.963 24.382,-8.599 16.369,-7.554 37.426,-19.314 45.961,-27.578 7.886,0.646 12.472,1.888 20.241,2.595 14.545,-6.634 57.709,-29.262 74.751,-35.175 -9.154,0.46 -35.174,0.576 -39.673,1.863 z"
   id="path32"
   style="fill:#ffffff" />
		<path
   d="m 551.944,194.215 c 5.826,4.428 10.342,10.898 12.285,12.492 2.56,0.353 8.475,0.885 8.475,0.885 0,0 6.178,7.619 18.538,12.045 -10.154,-1.237 -13.771,-4.517 -16.509,-4.961 -4.066,-0.658 -10.062,-0.354 -10.062,-0.354 0,0 -6.9,-13.287 -12.727,-20.107 z"
   id="path34" />
		<path
   d="m 599.254,222.356 c -0.434,0.7 2.067,2.57 5.129,4.167 2.182,-1.756 3.751,-3.8 4.499,-6.175 -4.084,0.171 -9.138,1.23 -9.628,2.008 z"
   id="path36" />
	</g><path
   d="m 164.5,88.281737 c 21.244,-11.873 26.444,-27.883 24.829,-38.681 -4.124,-0.089 -6.813,0.177 -10.766,1.194 0,0 -2.033,-23.518 -6.803,-27.101 -4.034,1.167 -8.949,3.594 -12.711,6.206 -0.495,-4.114 -4.32,-11.876 -7.056,-13.937 -3.267,1.611 -6.587,4.13 -8.951,7.188 -4.335,-6.622 -7.645,-11.374 -12.617,-16.91 l -0.094,-0.224 -0.05,0.136 c -5.016,5.579 -8.334,10.35 -12.689,16.998 -2.365,-3.059 -5.684,-5.578 -8.951,-7.188 -2.73501,2.061 -6.55501,9.648 -7.05201,13.755 -4.658996,-3.057 -8.680996,-4.857 -12.716996,-6.024 -4.768,3.583 -6.802,27.101 -6.802,27.101 -3.952,-1.017 -6.642,-1.283 -10.767,-1.194 -1.612,10.798 3.587,26.808 24.828,38.681 -8.508,-0.338 -19.988,-3.416 -26.082,-8.455 -1.076,28.696003 29.491,40.120003 52.617006,35.097003 0.449,5.135 4.123,12.045 7.642,14.732 l 0.003,-0.141 0.011,0.026 0.002,0.115 c 0.012,-0.009 0.023,-0.02 0.035,-0.029 l 0.004,0.009 0.006,-0.017 c 3.507,-2.725 7.151,-9.591 7.596,-14.695 23.128,5.023 53.695,-6.401 52.619,-35.097003 -6.096,5.039 -17.575,8.117 -26.084,8.455 z"
   id="path38" /><g
   transform="translate(-219.375,-134.26926)"
   id="g40">
		<path
   d="m 389.855,188.127 c 0,7.885 -18.002,20.72 -40.212,20.72 -22.207,0 -40.21,-12.204 -40.21,-20.72 0,-8.511 18.003,-18.148 40.21,-18.148 22.21,0 40.212,10.264 40.212,18.148 z"
   id="path42"
   style="fill:#ffffff" />
		<g
   id="g44">
			<path
   d="m 351.767,188.465 c 0,4.989 -0.951,9.039 -2.121,9.039 -1.169,0 -2.118,-4.05 -2.118,-9.039 0,-4.987 0.948,-9.036 2.118,-9.036 1.17,0 2.121,4.049 2.121,9.036 z"
   id="path46" />
			<path
   d="m 360.005,188.465 c 0,4.989 -0.949,9.039 -2.119,9.039 -1.169,0 -2.118,-4.05 -2.118,-9.039 0,-4.987 0.949,-9.036 2.118,-9.036 1.17,0 2.119,4.049 2.119,9.036 z"
   id="path48" />
			<path
   d="m 343.525,188.465 c 0,4.989 -0.949,9.039 -2.118,9.039 -1.169,0 -2.119,-4.05 -2.119,-9.039 0,-4.987 0.949,-9.036 2.119,-9.036 1.17,0 2.118,4.049 2.118,9.036 z"
   id="path50" />
		</g>
		<path
   d="m 349.646,166.734 -6.558,-5.299 c 0,0 2.499,-12.506 6.552,-16.859 4.537,4.59 6.562,16.859 6.562,16.859 l -6.556,5.299 z"
   id="path52"
   style="fill:#e8b663" />
		<path
   d="m 369.512,169.62 c 0.569,-0.284 4.375,-2.985 6.266,-3.811 -0.352,-3.628 -1.312,-9.065 -4.61,-12.725 -3.763,2.364 -10.123,8.981 -11.769,12.996 -0.18,0.432 -0.318,0.869 -0.444,1.309 3.285,0.423 7.598,1.399 10.557,2.231 z"
   id="path54"
   style="fill:#e8b663" />
		<path
   d="m 389.473,161.588 c -2.592,0.56 -10.147,4.935 -13.852,10.389 8.953,3.852 15.13,9.256 16.561,14.235 l 0.586,-0.287 c 2.59,-2.713 -0.351,-20.553 -3.295,-24.337 z"
   id="path56"
   style="fill:#e8b663" />
		<path
   d="m 329.436,169.798 c -1.414,-1.33 -3.267,-2.924 -5.56,-4.251 0,-3.545 0.949,-8.803 4.243,-12.462 3.768,2.364 10.124,8.981 11.771,12.996 0.179,0.432 0.318,0.869 0.444,1.309 -3.284,0.422 -7.941,1.578 -10.898,2.408 z"
   id="path58"
   style="fill:#ffcb05" />
		<path
   d="m 309.814,161.588 c 2.594,0.56 10.15,4.935 13.852,10.389 -8.95,3.852 -15.13,9.256 -16.558,14.235 l -0.587,-0.287 c -2.59,-2.713 0.349,-20.553 3.293,-24.337 z"
   id="path60"
   style="fill:#ffcb05" />
		<path
   d="m 404.489,187.696 c 1.527,10.04 -11.536,32.248 -35.311,35.083 14.006,-10.161 24.012,-20.793 27.895,-33.429 2.12,-1.299 4.707,-1.769 7.416,-1.654 z"
   id="path62"
   style="fill:#ffcb05" />
		<path
   d="m 294.8,187.696 c -1.53,10.04 11.534,32.248 35.309,35.083 -14.005,-10.161 -24.013,-20.793 -27.895,-33.429 -2.117,-1.299 -4.705,-1.769 -7.414,-1.654 z"
   id="path64"
   style="fill:#e8b663" />
		<path
   d="m 349.86,212.984 c -17.372,0 -32.292,-7.817 -39.018,-15.982 -0.398,0.169 -0.837,0.356 -1.199,0.495 3.53,9.335 20.126,24.451 27.425,28.471 -1.647,-3.428 -2.826,-5.794 -3.177,-10.985 3.049,6.009 7.396,12.602 15.711,19.906 0.01,0.018 0.012,0.037 0.025,0.056 l 0.015,-0.019 0.018,0.019 c 0.011,-0.019 0.013,-0.038 0.025,-0.056 8.314,-7.304 12.66,-13.897 15.712,-19.906 -0.352,5.191 -1.53,7.557 -3.177,10.985 7.296,-4.02 23.893,-19.136 27.425,-28.471 -0.328,-0.122 -0.728,-0.299 -1.089,-0.451 -6.864,7.965 -21.587,15.938 -38.696,15.938 z"
   id="path66"
   style="fill:#e8b663" />
		<g
   id="g68">
			<path
   d="m 349.91,240.966 c 4.355,4.491 18.066,6.44 28.48,4.491 10.416,-1.95 26.957,-11.931 27.132,-25.521 -5.122,3.55 -13.772,6.448 -25.718,6.856 -11.406,0.394 -22.48,1.187 -29.894,14.174 z"
   id="path70"
   style="fill:#e8b663" />
			<path
   d="m 405.511,220.056 c -4.038,7.224 -17.595,15.585 -28.176,15.706 -10.432,0.117 -20.605,0.561 -27.348,5.092 -0.024,0.04 -0.052,0.067 -0.077,0.112 4.355,4.491 18.066,6.44 28.48,4.491 10.386,-1.944 26.851,-11.876 27.121,-25.401 z"
   id="path72"
   style="fill:#ffcb05" />
			<path
   d="m 377.335,235.762 c 7.338,-0.083 16.097,-4.141 22.138,-9.025 -5.888,4.069 -14.006,6.777 -22.963,5.837 -8.617,-0.909 -14.829,1.283 -18.26,4.815 5.687,-1.35 12.338,-1.55 19.085,-1.627 z"
   id="path74"
   style="fill:#ffffff" />
		</g>
		<g
   id="g76">
			<path
   d="m 349.38,240.966 c -4.357,4.491 -18.066,6.44 -28.482,4.491 -10.417,-1.95 -26.954,-11.931 -27.129,-25.521 5.118,3.55 13.769,6.448 25.715,6.856 11.405,0.394 22.48,1.187 29.896,14.174 z"
   id="path78"
   style="fill:#ffcb05" />
			<path
   d="m 293.779,220.056 c 4.034,7.224 17.593,15.585 28.176,15.706 10.429,0.117 20.605,0.561 27.349,5.092 0.024,0.04 0.051,0.067 0.076,0.112 -4.357,4.491 -18.066,6.44 -28.482,4.491 -10.385,-1.944 -26.853,-11.876 -27.119,-25.401 z"
   id="path80"
   style="fill:#e8b663" />
			<path
   d="m 321.955,235.762 c -7.342,-0.083 -16.099,-4.141 -22.138,-9.025 5.886,4.069 14.004,6.777 22.961,5.837 8.619,-0.909 14.828,1.283 18.262,4.815 -5.687,-1.35 -12.338,-1.55 -19.085,-1.627 z"
   id="path82"
   style="fill:#ffffff" />
		</g>
		<path
   d="m 349.637,245.739 4.852,3.533 c 0,0 -2.146,8.334 -4.851,11.233 -3.021,-3.055 -4.852,-11.233 -4.852,-11.233 l 4.851,-3.533 z"
   id="path84"
   style="fill:#e8b663" />
		<path
   d="m 349.638,212.97 c -17.273,-0.064 -32.097,-7.839 -38.796,-15.969 -0.398,0.169 -0.837,0.356 -1.199,0.495 3.53,9.335 20.126,24.451 27.425,28.471 -1.647,-3.428 -2.826,-5.794 -3.177,-10.985 3.049,6.009 7.396,12.602 15.711,19.906 0.01,0.018 0.012,0.037 0.025,0.056 l 0.01,-0.013 V 212.97 z"
   id="path86"
   style="fill:#ffcb05" />
		<path
   d="m 349.637,245.739 -4.85,3.533 c 0,0 1.831,8.178 4.852,11.233 v -14.766 h -0.002 z"
   id="path88"
   style="fill:#ffcb05" />
		<path
   d="M 349.638,166.727 V 144.58 c -4.051,4.352 -6.55,16.856 -6.55,16.856 l 6.55,5.291 z"
   id="path90"
   style="fill:#ffcb05" />
	</g>
</svg>