<?xml version="1.0" encoding="UTF-8" standalone="no"?>
<!-- Created with Inkscape (http://www.inkscape.org/) -->
<svg
   xmlns:svg="http://www.w3.org/2000/svg"
   xmlns="http://www.w3.org/2000/svg"
   version="1.0"
   width="634.46454"
   height="299.87006"
   viewbox="0 0 635 300"
   id="svg2403"
   xml:space="preserve"><defs
     id="defs2406" /><path
     d="M 297.873,59.961096 C 222.57416,64.403188 132.18538,106.98511 17.124615,88.019015 C 119.09494,74.239993 196.84584,40.504587 291.68598,27.065125 C 291.68598,27.065125 297.873,59.961096 297.873,59.961096 z"
     id="path3594"
     style="fill:#ffffff;fill-opacity:1;fill-rule:nonzero;stroke:none" /><path
     d="M 310.47303,103.51457 C 340.9548,100.22308 367.89032,101.2605 397.24023,119.16098 C 336.01284,112.52141 306.05933,129.61065 267.9195,133.42095 C 402.71027,168.80683 452.05442,244.36971 485.47866,286.26305 C 508.86811,276.36038 510.11297,256.02658 504.19018,248.80234 C 504.19018,248.80234 510.1883,235.90042 510.1883,235.90042 C 510.1883,235.90042 510.45253,227.6009 510.45253,227.6009 C 510.45253,227.6009 526.56096,220.07496 526.56096,220.07496 C 526.56096,220.07496 521.46814,179.95455 521.46814,179.95455 C 521.46814,179.95455 551.61035,167.59964 551.61035,167.59964 C 551.61035,167.59964 591.59864,58.206897 591.59864,58.206897 C 523.88253,72.249956 501.96431,28.479765 405.65293,22.509847 C 366.38123,20.076528 331.03301,21.877856 297.873,26.216226 C 297.873,26.216226 303.26752,59.715987 303.26752,59.715987 C 325.44978,58.952074 346.31166,61.753153 366.11719,70.788188 C 344.35002,69.411213 324.77086,71.23147 305.64425,74.777533 C 305.64425,74.777533 310.47303,103.51457 310.47303,103.51457 z"
     id="path3598"
     style="fill:#ffffff;fill-opacity:1;fill-rule:nonzero;stroke:none" /><path
     d="M 306.02147,103.97659 C 264.33558,108.89036 215.97225,120.51903 146.29449,107.3718 C 206.39021,105.75918 251.35813,85.633018 300.89099,75.758548 C 300.89099,75.758548 306.02147,103.97659 306.02147,103.97659 z"
     id="path3602"
     style="fill:#ffffff;fill-opacity:1;fill-rule:nonzero;stroke:none" /><path
     d="M 297.873,59.961096 C 222.57416,64.403188 132.18538,106.98511 17.124615,88.019015 C 119.09494,74.239993 196.84584,40.504587 291.68598,27.065125 C 291.68598,27.065125 297.873,59.961096 297.873,59.961096 z"
     id="path3606"
     style="fill:#ef293d;fill-opacity:1;fill-rule:nonzero;stroke:none" /><path
     d="M 310.47303,103.51457 C 340.9548,100.22308 367.89032,101.2605 397.24023,119.16098 C 336.01284,112.52141 306.05933,129.61065 267.9195,133.42095 C 402.71027,168.80683 452.05442,244.36971 485.47866,286.26305 C 508.86811,276.36038 510.11297,256.02658 504.19018,248.80234 C 504.19018,248.80234 510.1883,235.90042 510.1883,235.90042 C 510.1883,235.90042 510.45253,227.6009 510.45253,227.6009 C 510.45253,227.6009 526.56096,220.07496 526.56096,220.07496 C 526.56096,220.07496 521.46814,179.95455 521.46814,179.95455 C 521.46814,179.95455 551.61035,167.59964 551.61035,167.59964 C 551.61035,167.59964 591.59864,58.206897 591.59864,58.206897 C 523.88253,72.249956 501.96431,28.479765 405.65293,22.509847 C 366.38123,20.076528 331.03301,21.877856 297.873,26.216226 C 297.873,26.216226 303.26752,59.715987 303.26752,59.715987 C 325.44978,58.952074 346.31166,61.753153 366.11719,70.788188 C 344.35002,69.411213 324.77086,71.23147 305.64425,74.777533 C 305.64425,74.777533 310.47303,103.51457 310.47303,103.51457 z"
     id="path3608"
     style="fill:#0c2e59;fill-opacity:1;fill-rule:nonzero;stroke:none" /><path
     d="M 306.02147,103.97659 C 264.33558,108.89036 215.97225,120.51903 146.29449,107.3718 C 206.39021,105.75918 251.35813,85.633018 300.89099,75.758548 C 300.89099,75.758548 306.02147,103.97659 306.02147,103.97659 z"
     id="path3610"
     style="fill:#ef293d;fill-opacity:1;fill-rule:nonzero;stroke:none" /><path
     d="M 414.44266,195.79894 C 450.88489,221.31982 469.59641,249.57572 488.57198,274.32322 C 498.22954,270.30548 501.28538,259.12009 498.07869,255.15895 C 498.07869,255.15895 488.91154,243.84144 488.91154,243.84144 C 488.91154,243.84144 499.3614,244.44504 499.3614,244.44504 C 499.3614,244.44504 504.15233,236.10786 504.15233,236.10786 C 504.15233,236.10786 491.17507,235.35341 491.17507,235.35341 C 491.17507,235.35341 476.50002,237.99418 476.50002,237.99418 C 476.50002,237.99418 491.40145,227.82728 491.40145,227.82728 C 491.40145,227.82728 502.68109,228.46873 502.68109,228.46873 C 502.68109,228.46873 503.09618,222.01767 503.09618,222.01767 C 503.09618,222.01767 491.5523,216.5287 491.5523,216.5287 C 491.5523,216.5287 495.47578,212.1716 495.47578,212.1716 C 495.47578,212.1716 516.86573,213.51071 516.86573,213.51071 C 516.86573,213.51071 510.71657,165.90203 510.71657,165.90203 C 502.2662,164.86461 495.17388,169.30671 492.11823,181.52004 C 492.11823,181.52004 454.24244,179.29436 454.24244,179.29436 C 459.56163,167.21295 467.86114,161.7711 483.63001,163.77061 C 474.76475,151.39676 431.72062,150.25562 425.64698,169.64627 C 425.64698,169.64627 459.07122,197.08166 459.07122,197.08166 C 459.07122,197.08166 463.37192,222.11193 463.37192,222.11193 C 463.37192,222.11193 449.67769,202.19321 449.67769,202.19321 C 437.26618,191.49824 424.3266,183.9721 414.44266,195.79894 z"
     id="path3612"
     style="fill:#d3d3d3;fill-opacity:1;fill-rule:nonzero;stroke:none" /><path
     d="M 526.52329,73.089391 C 526.52329,73.089391 529.20172,96.97872 529.20172,96.97872 C 529.20172,96.97872 556.13724,107.07956 556.13724,107.07956 C 556.13724,107.07956 530.89933,113.41724 530.89933,113.41724 C 530.89933,113.41724 533.35138,145.61536 533.35138,145.61536 C 533.35138,145.61536 511.54654,118.39707 511.54654,118.39707 C 511.54654,118.39707 478.91442,126.08333 478.91442,126.08333 C 478.91442,126.08333 499.05951,102.59034 499.05951,102.59034 C 499.05951,102.59034 482.46067,80.558935 482.46067,80.558935 C 482.46067,80.558935 510.30149,90.122238 510.30149,90.122238 C 510.30149,90.122238 526.52329,73.089391 526.52329,73.089391 z"
     id="path3614"
     style="fill:#ffffff;fill-opacity:1;fill-rule:nonzero;stroke:none" /></svg>