<?xml version="1.0" encoding="UTF-8" standalone="no"?>
<!-- Created with Inkscape (http://www.inkscape.org/) -->
<svg xmlns:dc="http://purl.org/dc/elements/1.1/" xmlns:cc="http://creativecommons.org/ns#" xmlns:rdf="http://www.w3.org/1999/02/22-rdf-syntax-ns#" xmlns:svg="http://www.w3.org/2000/svg" xmlns="http://www.w3.org/2000/svg" version="1.1" width="366.42899" height="252.90262" viewBox="0 0 367 253" id="svg2">
  <defs id="defs4"/>
  <g transform="translate(80.283463,-81.63493)" id="layer1">
    <g transform="matrix(1.25,0,0,-1.25,87.8,904.40968)" id="g2993">
      <path d="m 11.363903,569.66563 c 6.61308,3.83735 13.052907,4.01061 19.669673,4.01061 3.30654,-0.17326 6.616766,-0.34651 10.096559,-0.17326 3.483478,0.17326 7.140209,0.6967 10.970193,1.91684 12.356211,4.17649 20.543307,9.74637 30.289675,19.84661 0,-9.40355 -3.476106,-16.71701 -13.926542,-24.72348 -10.966506,-8.36035 -22.976213,-12.53684 -36.906441,-13.41047 -4.873184,-0.33913 -8.010158,0.18062 -10.966507,0.52344 -2.960035,0.35019 -6.097009,0.52713 -10.7969402,0 -8.0064714,-1.0432 -12.3635842,-2.96003 -18.6264731,-7.13652 5.5698794,9.22661 10.2661246,13.58004 20.1968033,19.14623" id="path3053" style="fill:#fdbb30;fill-opacity:1;fill-rule:nonzero;stroke:none"/>
      <path d="m -75.686202,620.16317 c 7.483028,-4.00693 13.229846,-6.61677 18.626473,-9.40355 5.392944,-2.78679 10.443067,-5.74313 16.713328,-10.09656 6.616766,-4.87319 11.663202,-12.88334 9.399863,-23.50703 -1.566644,-6.9559 -4.87687,-13.22616 -9.576802,-19.66967 2.267026,9.39986 2.267026,15.49318 -2.960035,24.90042 -3.999549,7.12915 -13.056597,11.30932 -22.976217,15.66275 -5.053808,2.09377 -10.450436,4.53036 -15.496872,7.13652 -5.050122,2.78678 -9.926992,5.92007 -14.10348,10.09656 -7.659966,7.31715 -11.663206,14.10348 -13.580036,24.55392 -1.21645,6.96327 0.70038,13.57635 2.78678,17.58327 3.65673,-16.54007 14.969744,-28.73041 31.166998,-37.25663" id="path3055" style="fill:#fdbb30;fill-opacity:1;fill-rule:nonzero;stroke:none"/>
      <path d="m -62.456356,560.0962 c 7.65997,-0.51976 10.789571,-3.83736 11.313015,-9.22661 0.350191,-1.91683 0.176938,-3.31023 -0.523444,-5.21969 -2.259653,2.7831 -5.219692,3.65673 -8.526232,3.82261 -1.743582,0.18063 -3.483478,0.18063 -5.396627,0.18063 -1.743582,0 -3.656731,0.17325 -5.400313,0.52344 -9.399863,1.7399 -15.666438,3.1296 -27.160074,15.31625 -2.263339,2.43659 -3.826299,4.87687 -4.873179,6.96695 -0.34651,0.51976 -0.6967,1.0432 -0.86995,1.56296 8.187093,-6.2592 22.456453,-12.53683 41.436804,-13.92654" id="path3057" style="fill:#fdbb30;fill-opacity:1;fill-rule:nonzero;stroke:none"/>
      <path d="m -77.606723,588.30316 c 4.18386,-1.56664 8.360348,-3.13697 12.194018,-4.70362 3.653044,-1.57033 7.306089,-3.13328 10.266128,-4.70361 6.270261,-3.47611 10.273497,-7.30609 10.970193,-12.87966 0.523443,-2.96372 0.346505,-11.14344 -3.483479,-16.36313 0.346505,1.91315 0.523444,3.82629 0,6.44351 -1.216453,6.78633 -5.92007,10.61632 -11.489953,13.05291 -2.786783,1.22014 -5.746818,2.0864 -8.703167,2.96003 -2.960036,0.69301 -5.923757,1.39339 -8.529915,2.09009 -19.677046,5.56988 -36.386682,14.61955 -39.519972,29.94686 -1.04689,5.21969 -1.22383,9.74636 -1.22383,12.7064 0,1.22014 0,2.09009 0.17694,2.7831 6.26658,-17.2294 23.330094,-25.07368 39.343037,-31.33288" id="path3059" style="fill:#fdbb30;fill-opacity:1;fill-rule:nonzero;stroke:none"/>
      <path d="m 25.286758,593.17634 c 0,0 -0.693009,2.09009 -4.34974,1.56665 -1.393392,-0.18063 -2.786783,-0.18063 -4.180174,-0.18063 -2.960036,0 -5.920071,0.35388 -8.5262288,0.87364 -3.1369738,0.70038 -4.1838605,0.86995 -7.31714805,0.86995 -11.66320215,0 -23.15315215,-8.69948 -27.16007415,-20.88613 -8.880105,-27.67983 -34.816358,-47.70338 -65.463597,-47.70338 -15.666436,0 -31.159626,5.216 -41.779626,14.10348 -0.17694,-1.39708 -0.17694,-2.26334 -0.17694,-3.30654 0,-3.66411 0,-7.1439 1.56665,-11.32407 2.26702,-5.75051 7.31346,-10.95914 14.62692,-10.95914 13.75329,0 22.109952,6.25921 36.559937,8.69948 4.180174,0.6967 7.4904,1.22014 13.933914,1.22014 l 10.789568,0 c 21.933017,0 40.389924,14.10348 47.1836283,33.77316 4.6999314,14.79649 16.7096383,27.16007 34.2929107,33.25339" id="path3061" style="fill:#fdbb30;fill-opacity:1;fill-rule:nonzero;stroke:none"/>
      <path d="m -70.289575,522.84325 c -1.743583,-0.86994 -3.310226,-1.57401 -5.396627,-2.96372 -2.963722,-1.91683 -6.439828,-5.39294 -9.75374,-9.04967 -3.483479,-3.48716 -6.959585,-7.31715 -9.573115,-9.75374 -2.786783,-2.60984 -6.443513,-4.17649 -10.446753,-4.17649 -3.47979,0 -6.61308,1.21277 -9.22661,3.1296 -4.00692,3.12961 -7.65996,6.96696 -10.62369,11.14345 5.56988,-3.47611 10.62369,-4.69993 17.41003,-3.65673 4.35342,0.51976 8.360344,2.79047 12.194013,5.22706 2.086401,1.21645 3.995863,2.43659 5.916384,3.64936 1.909463,1.22382 3.829984,2.44396 5.746818,3.31391 5.046437,2.43291 8.529915,2.96004 13.75329,3.13697" id="path3063" style="fill:#fdbb30;fill-opacity:1;fill-rule:nonzero;stroke:none"/>
      <path d="m -85.616881,493.93591 c 2.26334,1.91684 4.006922,4.35711 5.400313,6.79371 1.566644,2.61353 2.786783,5.22337 4.006922,7.8369 2.26334,5.216 4.696246,9.92331 8.87642,12.53684 1.566644,0.86995 3.483478,1.38602 5.396627,1.56296 1.566644,0.17693 3.136974,0.17693 4.703617,0.17693 -0.523443,-0.35387 -0.873634,-0.53081 -1.220139,-0.86994 -0.869948,-0.53451 -1.739896,-1.22383 -2.609844,-2.09378 -2.263339,-2.43659 -3.656731,-6.61676 -4.703617,-10.97019 -0.519758,-2.0864 -0.869949,-4.17649 -1.389706,-6.26289 -0.519757,-2.09377 -1.046886,-4.00692 -1.743582,-5.56988 -2.783097,-6.09701 -8.352976,-9.75742 -14.79649,-9.75742 -5.750504,0 -10.620002,1.04688 -15.496872,3.14066 5.396627,-0.3502 10.096559,0.16956 13.576351,3.4761" id="path3065" style="fill:#fdbb30;fill-opacity:1;fill-rule:nonzero;stroke:none"/>
      <path d="m -1.3498724,547.55936 c 5.9163842,1.74727 10.9701928,0.87364 15.8433764,-0.17325 2.609844,-0.69301 5.223375,-1.21277 7.833219,-1.56664 2.786783,-0.34651 5.746818,-0.52345 8.880106,-0.16957 9.580487,1.21277 16.886577,3.47979 23.156838,6.08964 5.746818,2.44028 10.789568,5.39294 16.193567,8.5336 -4.534051,-6.61308 -11.493636,-14.45367 -22.983585,-20.71656 -8.706854,-4.70731 -17.756525,-7.84059 -31.860006,-6.79371 -3.133287,0.16957 -5.396627,0.69301 -7.4830278,1.3934 -2.0937733,0.693 -3.8336695,1.56295 -5.5735657,2.43659 -3.6604171,1.56664 -7.6636528,3.13328 -14.9734285,2.78678 -2.263339,0 -3.656731,-0.17694 -5.569879,-0.52713 5.392941,4.35711 9.3998624,6.62045 16.5363856,8.70685" id="path3067" style="fill:#fdbb30;fill-opacity:1;fill-rule:nonzero;stroke:none"/>
      <path d="m -29.851731,493.01804 -14.10348,0 0,25.59712 6.649942,0 0,-20.16363 8.703167,0 -1.249629,-5.43349" id="path3069" style="fill:#000000;fill-opacity:1;fill-rule:nonzero;stroke:none"/>
      <path d="m -25.601518,493.01804 6.720717,0 0,25.59528 -6.720717,0 0,-25.59528 z" id="path3071" style="fill:#000000;fill-opacity:1;fill-rule:nonzero;stroke:none"/>
      <path d="m -3.9081095,493.01804 -10.3914565,0 0,25.59712 11.3498739,0 c 3.70465176,0 6.7162941,-1.58139 6.7162941,-6.28132 0,-2.31495 -0.9547312,-4.73679 -3.78206246,-5.65835 2.49557136,-0.65983 4.70361756,-2.67988 4.70361756,-5.76156 0,-4.66307 -2.757293,-7.89589 -8.5962666,-7.89589 z m -1.2828048,20.19681 -2.5324336,0 0,-4.4419 2.606158,0 c 1.5813887,0 2.1269493,1.10218 2.1269493,2.42185 0,1.31966 -0.6598335,2.02005 -2.2006737,2.02005 z m -0.1105866,-9.66159 -2.421847,0 0,-5.06487 2.4955714,0 c 1.6514269,0 2.3481226,1.06901 2.3481226,2.64302 0,1.29018 -0.4017981,2.42185 -2.421847,2.42185" id="path3073" style="fill:#000000;fill-opacity:1;fill-rule:nonzero;stroke:none"/>
      <path d="m 7.7182305,493.01804 0,25.59712 14.8739005,0 -0.475522,-5.40031 -7.825847,0 0,-4.29814 6.391907,0 0,-5.21231 -6.391907,0 0,-5.21601 8.776891,0 0,-5.47035 -15.3494225,0" id="path3075" style="fill:#000000;fill-opacity:1;fill-rule:nonzero;stroke:none"/>
      <path d="m 39.069537,493.01804 -2.676196,7.15864 c -0.991593,2.64671 -1.577702,2.97478 -3.011642,2.97478 l 0,-10.13342 -6.576218,0 0,25.59712 8.81744,0 c 7.527263,0 9.952796,-3.05219 9.952796,-7.30978 0,-4.40872 -2.318633,-6.64625 -5.330275,-7.16232 0.884693,-0.25804 1.950011,-1.43394 2.572982,-2.75361 0.844144,-1.72515 3.011642,-6.46195 3.855787,-8.37141 l -7.604674,0 z m -3.848414,20.19681 -1.839424,0 0,-5.21601 1.8726,0 c 2.237536,0 3.011642,1.06532 3.011642,2.79047 0,1.83574 -0.991593,2.42554 -3.044818,2.42554" id="path3077" style="fill:#000000;fill-opacity:1;fill-rule:nonzero;stroke:none"/>
      <path d="m 64.032624,493.01804 -1.323353,4.92111 -6.056461,0 -1.397078,-4.92111 -6.904291,0 8.227645,25.59712 6.830567,0 7.748435,-25.59712 -7.125464,0 z m -3.7452,14.64904 c -0.25435,1.13905 -0.442347,2.64671 -0.475523,3.60144 -0.07372,-0.95473 -0.254349,-2.35181 -0.696696,-4.07696 l -1.032141,-4.18755 3.30654,0 -1.10218,4.66307" id="path3079" style="fill:#000000;fill-opacity:1;fill-rule:nonzero;stroke:none"/>
      <path d="m 87.45487,493.01804 -14.099794,0 0,25.59712 6.646256,0 0,-20.16363 8.699481,0 -1.245943,-5.43349" id="path3081" style="fill:#000000;fill-opacity:1;fill-rule:nonzero;stroke:none"/>
      <path d="m -27.536784,460.22174 c -1.618251,-1.94264 -3.671476,-3.08168 -7.125465,-3.08168 l -9.292962,0 0,25.59711 9.038613,0 c 1.762014,0 4.036412,-0.14745 6.089637,-1.58507 2.904742,-2.01268 4.187546,-5.54039 4.187546,-10.75639 0,-3.96638 -0.586109,-7.41668 -2.897369,-10.17397 z m -7.82216,17.11512 -2.020049,0 0,-14.72645 2.200673,0 c 1.835738,0 3.30654,0.91787 3.30654,8.00278 0,5.94956 -1.507664,6.72367 -3.487164,6.72367" id="path3083" style="fill:#000000;fill-opacity:1;fill-rule:nonzero;stroke:none"/>
      <path d="m -21.314444,457.14006 0,25.59711 14.8739009,0 -0.4755225,-5.40031 -7.8258464,0 0,-4.29813 6.3919066,0 0,-5.21601 -6.3919066,0 0,-5.21231 8.7805776,0 0,-5.47035 -15.3531096,0" id="path3085" style="fill:#000000;fill-opacity:1;fill-rule:nonzero;stroke:none"/>
      <path d="m 18.426702,457.14006 -0.622972,10.31773 c -0.110586,1.61456 -0.184311,2.93792 -0.184311,5.14228 l -0.03686,0 c -0.294898,-2.16382 -0.479209,-3.45399 -0.884693,-4.81421 l -3.118543,-10.6458 -5.5809377,0 -2.7167446,10.35459 c -0.3686221,1.43025 -0.6598335,2.86419 -0.8441446,5.14228 l -0.036862,0 c 0,-2.27809 -0.036862,-3.67516 -0.1105866,-5.28973 l -0.5160709,-10.20714 -6.6093937,0 2.49557142,25.59711 8.04701978,0 2.4955709,-10.1371 c 0.364936,-1.43763 0.619285,-2.79047 0.844145,-4.85107 l 0.03686,0 c 0.217487,1.95001 0.442346,3.19964 0.987907,5.216 l 2.609844,9.77217 7.785298,0 2.351809,-25.59711 -6.391906,0" id="path3087" style="fill:#000000;fill-opacity:1;fill-rule:nonzero;stroke:none"/>
      <path d="m 38.409704,456.69771 c -7.416676,0 -11.530498,4.9211 -11.530498,12.5995 0,9.10497 4.991142,13.87862 11.751671,13.87862 8.699481,0 11.235601,-6.64994 11.235601,-12.26405 0,-7.34664 -2.314947,-14.21407 -11.456774,-14.21407 z m 0.03686,21.33953 c -2.978466,0 -4.224409,-3.12591 -4.224409,-8.01016 0,-6.53567 1.577703,-8.15023 4.298134,-8.15023 2.790469,0 3.999549,1.65143 3.999549,8.22396 0,6.38822 -1.249629,7.93643 -4.073274,7.93643" id="path3089" style="fill:#000000;fill-opacity:1;fill-rule:nonzero;stroke:none"/>
      <path d="m 63.398594,456.69771 c -3.155405,0 -6.019598,0.95842 -8.371407,3.52403 -2.020049,2.24122 -2.934232,5.58094 -2.934232,9.21555 0,3.19964 0.512385,5.62517 1.758327,7.93643 2.163812,4.00324 5.875836,5.80211 10.35828,5.80211 2.606158,0 5.359765,-0.73355 6.53567,-1.8726 l -2.786783,-4.85106 c -1.142729,0.88469 -2.425533,1.36021 -3.826297,1.36021 -1.139042,0 -2.200674,-0.28752 -2.860507,-0.98791 -1.249629,-1.28649 -1.655113,-2.60984 -1.655113,-5.62148 0,-4.22072 0.180624,-6.24446 1.249628,-7.49409 0.844145,-0.98791 1.913149,-1.61456 3.265992,-1.61456 1.655113,0 2.97478,0.40548 4.412406,1.69197 l 2.823645,-4.47876 c -1.614565,-1.50397 -4.220723,-2.60984 -7.969609,-2.60984" id="path3091" style="fill:#000000;fill-opacity:1;fill-rule:nonzero;stroke:none"/>
      <path d="m 86.396925,457.14006 -2.683569,7.15864 c -0.991593,2.6467 -1.577702,2.97478 -3.011642,2.97478 l 0,-10.13342 -6.572532,0 0,25.59711 8.813754,0 c 7.527263,0 9.952796,-3.0485 9.952796,-7.30977 0,-4.40504 -2.311261,-6.64626 -5.322903,-7.16602 0.877321,-0.25066 1.942638,-1.42656 2.56561,-2.7536 0.844144,-1.72147 3.011642,-6.46195 3.855787,-8.36772 l -7.597301,0 z m -3.855787,20.1968 -1.839424,0 0,-5.21232 1.8726,0 c 2.241222,0 3.011642,1.06164 3.011642,2.78679 0,1.83942 -0.991593,2.42553 -3.044818,2.42553" id="path3093" style="fill:#000000;fill-opacity:1;fill-rule:nonzero;stroke:none"/>
      <path d="m 111.61067,457.14006 -1.32335,4.91741 -6.06015,0 -1.39707,-4.91741 -6.904295,0 8.227645,25.59711 6.83057,0 7.74475,-25.59711 -7.1181,0 z m -3.74888,14.64904 c -0.25804,1.13904 -0.43866,2.6467 -0.47921,3.60144 -0.0737,-0.95474 -0.25804,-2.35181 -0.6967,-4.07696 l -1.02477,-4.18755 3.30286,0 -1.10218,4.66307" id="path3095" style="fill:#000000;fill-opacity:1;fill-rule:nonzero;stroke:none"/>
      <path d="m 136.09455,477.3 -5.94956,0 0,-20.15994 -6.64625,0 0,20.15994 -5.94956,0 0,5.43717 19.31579,0 -0.77042,-5.43717" id="path3097" style="fill:#000000;fill-opacity:1;fill-rule:nonzero;stroke:none"/>
      <path d="m 146.67769,456.69771 c -3.85579,0 -6.86743,0.95842 -9.44041,2.31126 l 2.31495,5.14228 c 1.83942,-1.06163 4.58566,-2.05691 7.1955,-2.05691 2.57298,0 3.59775,0.95841 3.59775,2.34812 0,1.13904 -0.80728,1.65143 -2.56561,2.09746 l -3.01164,0.77042 c -3.70834,0.95104 -6.24814,3.01164 -6.24814,7.41668 0,5.07224 4.18754,8.44881 9.9233,8.44881 3.5572,0 6.86006,-0.91418 9.13814,-2.49925 l -3.1554,-4.66307 c -1.72884,1.13904 -4.00324,1.79887 -5.76894,1.79887 -1.68829,0 -2.60616,-0.80359 -2.60616,-1.83574 0,-0.84045 0.58611,-1.68828 2.49926,-2.16381 l 2.60616,-0.66352 c 2.74992,-0.70038 6.71998,-1.94632 6.71998,-7.09229 0,-6.12649 -4.55617,-9.35931 -11.19874,-9.35931" id="path3099" style="fill:#000000;fill-opacity:1;fill-rule:nonzero;stroke:none"/>
    </g>
  </g>
</svg>