<?xml version="1.0" encoding="utf-8"?>
<!-- Generator: Adobe Illustrator 18.1.1, SVG Export Plug-In . SVG Version: 6.00 Build 0)  -->
<svg version="1.1" id="ENGLISH" xmlns="http://www.w3.org/2000/svg" xmlns:xlink="http://www.w3.org/1999/xlink" x="0px" y="0px"
	 width="841.9px" height="595.3px" viewBox="165 -105.3 841.9 595.3" enable-background="new 165 -105.3 841.9 595.3"
	 xml:space="preserve">
<path fill="#E63329" d="M302.8,276.3c7.2-9.2,17.8-22.3,30.9-36.6H381L302.8,276.3z M292.5,106.9l6.1,3.6h49.7
	c0.9-0.6,1.8-1.2,2.7-1.8L304,81C299.8,89.3,296.1,98,292.5,106.9 M714.3,289.9c-2.8,5-7.2,13.3-10,21c-0.6,1.6-1.1,3.2-1.6,4.8
	l58.8,34.6c7.5-3.9,16.3-8.7,26.3-14.5c0.8-0.4,1.5-0.9,2.2-1.3L714.3,289.9z M846.3,210.9c-11.7-13-43.6-39.7-43.6-39.7
	s-35.5,24.9-62.6,38c0,0,23.5-22.1,31.8-29.6c11.6-10.6,45.6-43.5,45.6-43.5l-0.6-0.7l-307.1,1l39.5-184.1
	c-16.5,4.7-40.4,12.4-66.4,23.9c-5.1,2.3-10.1,4.6-14.9,6.9l-32.6,153.3h-99.9c-30.9,31.1-51,58.8-51,58.8l17.1,18.7h39.6
	c11.8-10.4,28.9-24.3,52.4-40.5l-5.9,15.8c-10,7.8-19.6,16.2-28.6,24.8h59.1l-22.4,101.3l27.3,27.2l1.9,2.2c0,0,18-3.1,40.6-8.8
	l27-121.8l353.1-1C846.1,211.8,846.4,211.1,846.3,210.9 M711.9,288.5l-82.8-48.7h-55.5L684.5,305
	C696.8,298.1,706.4,292.1,711.9,288.5 M747.9,42.4l-14.5-19.1l-186.7,87.2h55.4L747.9,42.4z M300.3,147.7c0,0,5-4.5,13.5-11.3h-24.8
	C294.3,141.4,300.3,147.7,300.3,147.7"/>
<path fill="#FFFFFF" d="M350.9,108.6c12.3-8.5,26.1-17.3,40.4-25.2l-66.1-38.9C317.4,56,310.3,68.1,304,81L350.9,108.6z"/>
<path fill="#FFFFFF" d="M882.3,239.8l-19.4-14.3c0,0-6.2,6.1-15.3,14.3H882.3z"/>
<path fill="#FFFFFF" d="M794.4,110.5H685.3l84.4-39.4l-21.8-28.7l-145.8,68.1h-55.5l186.7-87.2l-11.1,5.2l-7.9-9.2L542.5,99.5
	l32.2-146.8c-2-3.9-3.1-6.1-3.1-6.1s-8.6,1.8-22.5,5.7l-39.5,184.1l307.1-1L794.4,110.5z"/>
<path fill="#FFFFFF" d="M298.5,110.5l-6.1-3.6c-3.2,7.9-6.2,15.9-9,24.2c1.4,1.1,3.4,3.1,5.6,5.2h24.8c8.5-6.9,20.3-16.1,34.4-25.9
	H298.5z"/>
<path fill="#FFFFFF" d="M492.9,328l16.3-77.2l130.3,77.1c4.7-2.1,9.5-4.3,14.4-6.7c11.2-5.4,21.6-11.1,30.6-16.2l-110.9-65.3h55.5
	l82.9,48.8c3.3-2.1,5.1-3.3,5.1-3.3s-1.1,1.8-2.7,4.7l75.7,44.5c4.8-2.8,9.3-5.6,13.8-8.5l-146.9-86.3h170.6
	c8.6-11.9,16.1-22.6,18.2-26.9l-353.1,1l-27,121.8C474.2,333.5,483.6,330.9,492.9,328"/>
<path fill="#FFFFFF" d="M702.7,315.7c-4,12-6.5,24-6.5,24l35.3,24.9c0,0,10.8-4.3,30-14.3L702.7,315.7z"/>
<path fill="#FFFFFF" d="M418.5,99.5l-24.1-14.2c-1.2,0.8-24.3,17.1-52.5,44.6c-2.2,2.2-4.4,4.3-6.5,6.5h99.8L467.7-17
	c-8.8,4.2-17.2,8.4-25.3,12.8L418.5,99.5z"/>
<path fill="#FFFFFF" d="M341.1,213.9h-39.6l18.7,20.5C320.1,234.3,326.6,226.7,341.1,213.9"/>
<path fill="#FFFFFF" d="M368.4,324.8l21.4-15l2.5,2l3.3,3.3l22.4-101.3h-59.1c-9.1,8.7-17.6,17.5-25.3,25.9H381l-78.2,36.6
	c-6.4,8.3-10.1,13.4-10.1,13.4l2.9,2.9l89.6-41.9L368.4,324.8z"/>
<path fill="#11437D" d="M882.3,239.8h-34.7c-5.3,4.7-11.5,10.1-18.1,15.6c-12.2,10-29.5,20.3-29.5,20.3c7-8.6,17.9-22.9,27.3-35.8
	H656.9l147,86.3c16.8-10.7,30.9-21.2,42.3-29.9c0,0-12.2,18.7-21.1,32.2c12.3,11.7,25.4,22.1,25.4,22.1l56.2-92.8L882.3,239.8z"/>
<path fill="#11437D" d="M574.7-47.4L542.5,99.5l171.8-80.3l-6.6-7.7l-53.9,27.6L630.4-4.3L565,24.3c8-8,12-11.3,31.6-23
	C588.4-19.6,579.3-38.2,574.7-47.4"/>
<path fill="#11437D" d="M391.3,83.5L391.3,83.5c0.7,0.2,2.5,1.4,3.2,1.7c0,0-0.1,0.1-0.1,0.1l24.1,14.2l24-103.6
	c-31.1,16.7-57.5,34.8-80.4,55.3l-1.4-0.7c5.7-10.7,22.2-28.2,40.9-44.8c17.4-15.4,41.5-28.8,41.5-28.8l4-24.1
	c-31.5,11.5-66.4,28.4-93.7,56.9c-10.3,10.8-19.6,22.5-28.2,35L391.3,83.5z"/>
<polygon fill="#11437D" points="794.4,110.5 773.9,87.5 776.3,79.8 769.7,71.1 685.3,110.5 "/>
<polygon fill="#11437D" points="368.4,324.8 385.1,250.8 295.6,292.7 344.1,341.8 "/>
<path fill="#11437D" d="M494.1,327.6c29.6-9.5,56.3-23.4,56.3-23.4s5.8,6.5,11.3,13.9l23.7,30.4c0,0,24.7-7.5,54.1-20.6l-130.3-77.1
	L492.9,328C493.3,327.9,493.7,327.8,494.1,327.6"/>
<path fill="#11437D" d="M729.4,418.3c-0.7,0,1.4-5.9,0.9-5.9c-53.8-2-156.3-1.9-166.4-9.4c-7.3-5.5,3.8-33.3,11.1-48.5
	c0,0-11.2-15.1-29.1-37c-1.8,1.8-29.3,32.6-32.1,80.5c-15,4.2-16.9,7.2-46.5,9.6c-17.8,1.4-97.8,3.9-97.8,3.9l-4.4,4
	c-4.8,0.4-31.4,1.3-31.4,1.3s2.8,9,8.6,15.3c7.1,0.6,170.3,4.1,191.9-10c8.4,7.1,23.5,11,53.2,9.7c5.6-0.2,101.7,0.9,113.2,0.8
	c40.6-0.3,123.1-5.4,123.1-5.4l7.4-8.1c-8.9,0-52.4-0.5-79.4-0.5C744.2,418.5,731.1,418.5,729.4,418.3"/>
</svg>
